<svg xmlns="http://www.w3.org/2000/svg" xmlns:xlink="http://www.w3.org/1999/xlink" width="500" zoomAndPan="magnify" viewBox="0 0 375 374.999991" height="500" preserveAspectRatio="xMidYMid meet" version="1.0"><defs><g/><clipPath id="8e88e3e40b"><path d="M 111.132812 119.554688 L 263.851562 119.554688 L 263.851562 200.925781 L 111.132812 200.925781 Z M 111.132812 119.554688 " clip-rule="nonzero"/></clipPath></defs><path fill="#ffa500" d="M 168.398438 179.152344 L 168.800781 133.253906 C 171.105469 133.722656 184.148438 137.042969 188.226562 138.984375 L 191.394531 155.546875 C 191.394531 155.546875 192.695312 156.484375 194.636719 156.691406 C 196.617188 156.898438 220.511719 151.191406 220.511719 151.191406 C 220.511719 151.191406 217.867188 155.257812 218.074219 156.742188 C 218.285156 158.253906 218.074219 173.734375 218.074219 173.734375 L 210.6875 178.410156 C 210.6875 178.410156 208.042969 166.488281 202.910156 164.925781 C 197.765625 163.402344 193.644531 165.796875 192.722656 167.207031 C 191.808594 168.585938 189.503906 173.265625 189.375 176.730469 C 189.242188 180.183594 189.453125 184.910156 189.453125 184.910156 L 171.160156 184.992188 L 168.398438 179.152344 " fill-opacity="1" fill-rule="evenodd"/><path fill="#7bb7e0" d="M 112.75 186.476562 L 112.878906 166.75 L 161.738281 133.488281 L 161.84375 179.492188 L 112.75 186.476562 " fill-opacity="1" fill-rule="evenodd"/><g clip-path="url(#8e88e3e40b)"><path fill="#022135" d="M 184.566406 143.179688 C 184.566406 143.179688 187.835938 142.085938 188.277344 142.320312 C 188.683594 142.542969 189.035156 144.183594 189.035156 144.183594 L 190.492188 154.386719 L 184.304688 156.589844 C 184.304688 156.589844 183.769531 156.71875 182.976562 156.289062 C 182.207031 155.816406 182.234375 155.074219 182.234375 155.074219 L 181.414062 144.433594 Z M 172.867188 194.476562 L 173.125 194.304688 L 172.890625 194.304688 C 172.890625 194.34375 172.867188 194.398438 172.867188 194.476562 Z M 199.25 168.636719 C 201.085938 168.613281 202.804688 169.785156 204.003906 172.328125 C 205.4375 175.363281 206.207031 180.261719 206.765625 185.289062 C 207.328125 190.4375 210.804688 192.691406 212.929688 193.535156 C 212.289062 198.03125 211.601562 198.617188 209.710938 200.546875 C 204.539062 200.585938 201.453125 200.597656 196.253906 200.652344 C 194.886719 199.28125 193.722656 196.988281 192.941406 194.125 L 190.429688 194.148438 C 190.378906 194.449219 190.324219 194.816406 190.21875 195.21875 C 189.582031 197.574219 187.863281 200.144531 187.863281 200.144531 L 176.421875 200.402344 C 176.421875 200.402344 175.277344 200.535156 174.023438 199.53125 C 173.230469 198.890625 172.773438 196.675781 172.566406 195.738281 C 172.515625 195.832031 172.488281 195.960938 172.460938 196.066406 C 171.667969 198.617188 170.546875 199.972656 170.546875 199.972656 C 167.835938 200.574219 158.3125 201.25 156.800781 200.558594 C 155.679688 200.039062 155.25 198.085938 155.25 198.085938 L 157.597656 194.398438 L 148.359375 194.476562 C 148.359375 194.578125 148.359375 194.660156 148.332031 194.738281 C 147.875 198.085938 145.753906 200.429688 145.753906 200.429688 L 140.632812 200.753906 C 140.632812 200.753906 135.417969 201.09375 134.574219 200.222656 C 133.753906 199.347656 133.140625 195.660156 133.140625 195.660156 C 133.140625 195.660156 132.800781 195.632812 132.320312 197.261719 C 131.835938 198.878906 130.886719 200.847656 130.886719 200.847656 L 119.863281 200.925781 C 118.199219 200.949219 116.789062 198.539062 116.542969 195.402344 C 116.386719 195.53125 116.230469 195.632812 116.074219 195.660156 C 115.566406 195.6875 113.0625 195.882812 112.566406 195.453125 C 112.113281 195.035156 112.113281 194.683594 112.113281 194.683594 L 111.824219 188.742188 C 111.800781 188.675781 111.773438 188.574219 111.773438 188.46875 L 111.722656 186.1875 L 111.132812 164.289062 C 111.109375 163.988281 111.265625 163.726562 111.5 163.546875 L 160.488281 127.453125 C 162.378906 126.046875 164.605469 128.980469 162.128906 130.671875 L 112.878906 164.703125 L 113.441406 185.417969 L 163.121094 178.019531 L 163.066406 133.003906 C 163.066406 132.820312 163.121094 132.691406 163.171875 132.5625 C 163.328125 132.210938 164.046875 130.777344 165.789062 130.007812 L 165.789062 121.4375 C 165.789062 120.523438 166.546875 119.753906 167.472656 119.753906 C 168.398438 119.730469 169.164062 120.496094 169.164062 121.410156 L 169.164062 124.886719 C 172.121094 124.964844 181.035156 125.148438 189.140625 125.5 C 196.304688 125.8125 203.160156 126.320312 203.160156 126.660156 L 203.160156 131.101562 L 204.460938 131.179688 L 204.460938 122.179688 C 204.460938 121.382812 205.136719 120.71875 205.917969 120.71875 C 206.742188 120.71875 207.378906 121.355469 207.378906 122.152344 L 207.378906 131.363281 L 210.636719 131.570312 C 210.636719 131.570312 210.714844 131.074219 218.414062 134.019531 C 226.140625 136.964844 230.582031 139.910156 230.386719 140.144531 C 230.207031 140.367188 226.753906 139.753906 219.429688 139.570312 C 213.671875 139.453125 201.777344 139.570312 196.941406 139.648438 C 196.96875 139.804688 197.074219 139.988281 197.257812 140.144531 C 197.660156 140.417969 226.804688 140.859375 227.898438 141.003906 C 228.980469 141.160156 229.410156 141.824219 229.671875 142.214844 C 229.917969 142.621094 231.820312 147.816406 231.820312 147.816406 C 231.820312 147.816406 239.613281 148.992188 240.355469 149.199219 C 241.097656 149.421875 241.074219 150.085938 241.074219 150.085938 L 220.566406 149.472656 L 196.382812 154.621094 C 196.382812 154.621094 193.085938 154.214844 192.75 152.46875 L 190.675781 140.859375 C 190.570312 140.289062 192.472656 139.546875 193.777344 139.089844 C 187.09375 135.351562 179.652344 132.769531 171.238281 131.625 L 170.363281 131.570312 L 170.363281 177.539062 C 170.363281 177.539062 171.5625 178.253906 172.644531 179.949219 C 173.6875 181.667969 173.816406 184.246094 173.816406 184.246094 L 188.605469 183.480469 C 188.605469 183.480469 188.8125 176.652344 189.269531 175.167969 C 189.738281 173.679688 190.429688 174.671875 190.429688 175.0625 C 190.429688 175.441406 190.167969 181.484375 190.167969 182.503906 C 190.167969 183.53125 190.21875 185.734375 190.21875 185.734375 L 169.726562 186.75 C 169.726562 186.75 169.296875 185.578125 167.628906 182.789062 C 165.988281 180.027344 164.070312 179.921875 164.070312 179.921875 C 164.070312 179.921875 165.636719 181.300781 166.519531 182.945312 C 167.394531 184.574219 168.242188 189.484375 168.578125 189.902344 C 168.933594 190.304688 170.027344 190.332031 170.027344 190.332031 L 192.136719 189.953125 C 191.953125 188.507812 191.847656 186.984375 191.847656 185.394531 C 191.847656 176.15625 195.183594 168.664062 199.25 168.636719 Z M 220.734375 172.246094 L 220.734375 157.484375 C 220.734375 154.515625 223.859375 150.828125 226.910156 150.960938 L 249.160156 151.570312 C 251.871094 151.675781 253.460938 154.308594 253.460938 156.976562 L 253.460938 162.722656 C 254.921875 163.414062 257.734375 164.808594 259.167969 166.113281 C 261.109375 167.921875 261.34375 168.050781 261.109375 168.210938 C 260.902344 168.339844 253.894531 168.535156 253.894531 168.535156 C 253.894531 168.535156 253.816406 172.835938 254.046875 172.992188 C 254.28125 173.148438 262.519531 172.808594 262.921875 173.199219 C 263.3125 173.601562 264.25 183.609375 263.664062 187.308594 C 263.078125 191.023438 261.75 191.871094 261.515625 191.871094 C 261.449219 191.871094 258.125 191.894531 253.292969 191.933594 C 253.203125 192.339844 253.058594 192.808594 252.875 193.355469 C 251.601562 196.910156 249.488281 200.027344 249.488281 200.027344 L 238.308594 200.089844 C 238.308594 200.089844 236.210938 199.21875 234.804688 196.597656 C 233.867188 194.890625 233.644531 193.121094 233.605469 192.105469 L 215.417969 192.246094 C 215.417969 192.246094 211.066406 190.515625 210.050781 185.890625 C 209.046875 181.277344 208.589844 172.78125 206.363281 169.121094 C 204.109375 165.5 198.9375 165.34375 197.28125 165.511719 C 195.613281 165.695312 193.542969 166.644531 192.722656 167.207031 C 191.902344 167.742188 195.769531 162.476562 200.863281 161.578125 C 205.945312 160.679688 210.714844 161.421875 214.21875 163.753906 C 217.75 166.058594 218.050781 167.023438 218.050781 167.023438 L 211.808594 167.074219 C 211.808594 167.074219 210.792969 167.308594 210.804688 167.972656 C 210.832031 168.636719 211.066406 171.480469 211.066406 171.480469 C 211.066406 171.480469 211.144531 172.039062 212.238281 172.167969 C 213.136719 172.273438 218.820312 172.246094 220.734375 172.246094 " fill-opacity="1" fill-rule="evenodd"/></g><path fill="#ffa500" d="M 253.65625 173.550781 L 262.84375 173.550781 L 262.84375 168.132812 L 253.65625 168.132812 L 253.65625 173.550781 " fill-opacity="1" fill-rule="evenodd"/><path fill="#ffffff" d="M 162.351562 171.074219 C 161.464844 170.917969 160.566406 170.839844 159.875 170.996094 C 157.804688 171.480469 122.011719 177.484375 121.882812 177.484375 C 121.753906 177.484375 121.625 177.339844 121.625 177.183594 C 121.648438 177.03125 121.9375 176.953125 121.9375 176.953125 L 162.351562 166.085938 Z M 162.300781 145.890625 C 162.050781 145.941406 161.765625 145.996094 161.492188 146.074219 C 158.339844 146.894531 122.925781 164.847656 121.78125 165.160156 C 120.605469 165.472656 120.839844 165.054688 120.878906 164.925781 C 120.933594 164.820312 151.433594 144.742188 162.285156 137.605469 Z M 162.324219 158.660156 C 161.179688 158.582031 160.109375 158.738281 159.367188 158.972656 C 158.183594 159.347656 122.339844 171.191406 121.832031 171.191406 C 121.296875 171.21875 121.480469 170.972656 121.570312 170.867188 C 121.675781 170.789062 151.914062 157.09375 162.324219 152.367188 L 162.324219 158.660156 " fill-opacity="1" fill-rule="nonzero"/><path fill="#7bb7e0" d="M 163.589844 181.40625 C 165.296875 181.40625 166.679688 185.148438 166.679688 189.746094 C 166.679688 194.371094 165.296875 198.136719 163.589844 198.164062 C 161.84375 198.164062 160.460938 194.421875 160.460938 189.796875 C 160.460938 185.183594 161.84375 181.433594 163.589844 181.40625 Z M 198.585938 171.558594 C 201.21875 171.558594 203.367188 177.695312 203.367188 185.316406 C 203.367188 192.9375 201.21875 199.140625 198.585938 199.164062 C 196.980469 199.179688 195.574219 196.925781 194.703125 193.445312 L 196.003906 193.433594 C 196.539062 194.710938 197.230469 195.480469 197.972656 195.453125 C 199.730469 195.453125 201.164062 191.125 201.164062 185.785156 C 201.164062 180.457031 199.730469 176.15625 197.972656 176.183594 C 196.722656 176.183594 195.640625 178.332031 195.132812 181.484375 L 194 181.484375 C 194.585938 175.777344 196.421875 171.582031 198.585938 171.558594 Z M 125.84375 187.464844 C 126.769531 187.464844 127.511719 190.058594 127.511719 193.222656 C 127.511719 196.429688 126.769531 199.035156 125.84375 199.035156 C 124.957031 199.035156 124.214844 196.441406 124.214844 193.25 C 124.214844 190.085938 124.957031 187.464844 125.84375 187.464844 Z M 120.191406 187.882812 C 121.011719 187.882812 121.675781 190.410156 121.675781 193.5625 C 121.675781 196.675781 121.011719 199.21875 120.191406 199.242188 C 119.382812 199.242188 118.71875 196.703125 118.71875 193.5625 C 118.71875 190.4375 119.382812 187.882812 120.191406 187.882812 Z M 156.242188 182.582031 C 157.960938 182.554688 159.34375 186.058594 159.34375 190.359375 C 159.34375 194.683594 157.960938 198.1875 156.242188 198.214844 C 154.535156 198.214844 153.113281 194.738281 153.113281 190.410156 C 153.113281 186.109375 154.535156 182.582031 156.242188 182.582031 " fill-opacity="1" fill-rule="evenodd"/><path fill="#022135" d="M 156.085938 194.148438 C 156.398438 193.042969 156.605469 191.582031 156.605469 189.980469 C 156.605469 188.574219 156.449219 187.269531 156.1875 186.214844 C 156.269531 184.78125 157.519531 185.628906 157.777344 187.441406 C 157.90625 188.207031 157.960938 189.054688 157.960938 189.980469 C 157.960938 191.738281 157.726562 193.355469 157.347656 194.476562 C 156.984375 195.480469 155.707031 195.375 156.085938 194.148438 Z M 163.613281 194.421875 C 163.914062 193.199219 164.121094 191.582031 164.121094 189.796875 C 164.121094 188.207031 163.96875 186.773438 163.71875 185.601562 C 163.8125 184.011719 165.046875 184.964844 165.320312 186.957031 C 165.425781 187.832031 165.480469 188.769531 165.480469 189.796875 C 165.480469 191.765625 165.242188 193.535156 164.867188 194.789062 C 164.527344 195.910156 163.25 195.804688 163.613281 194.421875 " fill-opacity="1" fill-rule="evenodd"/><path fill="#999999" d="M 193.308594 123.15625 C 193.308594 123.15625 201.75 115.296875 203.847656 115.351562 C 205.972656 115.429688 206.101562 117.851562 206.078125 118.75 C 206.050781 119.675781 205.800781 118.960938 204.316406 119.128906 C 202.804688 119.3125 196.734375 122.972656 195.535156 123.375 C 194.339844 123.820312 193.308594 123.15625 193.308594 123.15625 Z M 133.597656 139.804688 C 133.597656 139.804688 133.347656 139.039062 134.039062 138.164062 C 134.703125 137.304688 135.851562 136.484375 136.542969 136.9375 C 137.207031 137.394531 137.207031 138.347656 136.488281 138.984375 C 135.773438 139.625 134.261719 140.144531 133.960938 140.066406 C 133.648438 140.015625 133.597656 139.804688 133.597656 139.804688 Z M 139.355469 134.203125 C 139.355469 134.203125 153.347656 120.523438 157.960938 116.808594 C 162.535156 113.070312 165.398438 112.863281 167.121094 114.152344 C 168.800781 115.429688 167.183594 116.757812 167.183594 116.757812 C 167.183594 116.757812 166.300781 115.78125 165.320312 116.015625 C 164.359375 116.222656 147.953125 128.730469 145.519531 130.515625 C 143.09375 132.3125 139.835938 134.542969 139.511719 134.515625 C 139.199219 134.515625 139.355469 134.203125 139.355469 134.203125 Z M 128.816406 144.027344 C 128.816406 144.027344 128.605469 143.390625 129.179688 142.671875 C 129.742188 141.957031 130.679688 141.265625 131.25 141.644531 C 131.8125 142.007812 131.8125 142.828125 131.226562 143.335938 C 130.613281 143.871094 129.347656 144.289062 129.128906 144.234375 C 128.867188 144.210938 128.816406 144.027344 128.816406 144.027344 " fill-opacity="1" fill-rule="evenodd"/><path fill="#7bb7e0" d="M 249.449219 155.492188 C 250.085938 155.46875 250.597656 155.972656 250.597656 156.613281 L 250.597656 172.507812 L 248.316406 172.507812 L 248.316406 156.640625 C 248.316406 156 248.824219 155.492188 249.449219 155.492188 Z M 238.648438 155.570312 C 239.261719 155.570312 239.769531 156.078125 239.769531 156.691406 L 239.769531 172.574219 L 237.488281 172.597656 L 237.488281 156.71875 C 237.488281 156.105469 238.011719 155.570312 238.648438 155.570312 Z M 233.074219 155.625 C 233.710938 155.625 234.21875 156.132812 234.21875 156.742188 L 234.21875 172.625 L 231.9375 172.652344 L 231.9375 156.769531 C 231.9375 156.132812 232.460938 155.625 233.074219 155.625 Z M 227.027344 155.675781 C 227.652344 155.675781 228.160156 156.183594 228.160156 156.796875 L 228.160156 172.675781 L 225.878906 172.675781 L 225.878906 156.820312 C 225.878906 156.183594 226.386719 155.675781 227.027344 155.675781 Z M 225.035156 140.367188 L 214.414062 149.550781 L 204.75 151.882812 L 216.539062 140.234375 Z M 213.191406 140.222656 L 200.839844 152.808594 L 196.355469 153.589844 L 209.152344 140.234375 Z M 244.277344 155.519531 C 244.890625 155.519531 245.421875 156.027344 245.421875 156.667969 L 245.421875 172.535156 L 243.128906 172.558594 L 243.128906 156.667969 C 243.128906 156.054688 243.640625 155.546875 244.277344 155.519531 " fill-opacity="1" fill-rule="evenodd"/><path fill="#999999" d="M 214.648438 178.304688 L 260.851562 177.929688 L 260.851562 181.40625 L 214.648438 181.785156 L 214.648438 178.304688 " fill-opacity="1" fill-rule="evenodd"/><path fill="#ffffff" d="M 167.472656 131.546875 L 167.367188 131.570312 C 165.855469 131.847656 165.242188 132.820312 165.046875 133.199219 L 165.046875 150.605469 L 167.472656 149.863281 L 167.472656 131.546875 " fill-opacity="1" fill-rule="nonzero"/><g fill="#022135" fill-opacity="1"><g transform="translate(77.08141, 230.891543)"><g><path d="M 4 -20.609375 L 15.328125 -20.609375 C 17.078125 -20.609375 18.410156 -20.234375 19.328125 -19.484375 C 20.242188 -18.742188 20.703125 -17.703125 20.703125 -16.359375 C 20.703125 -15.972656 20.648438 -15.488281 20.546875 -14.90625 C 20.117188 -12.90625 19.082031 -11.4375 17.4375 -10.5 C 18.125 -10.195312 18.644531 -9.800781 19 -9.3125 C 19.363281 -8.820312 19.546875 -8.191406 19.546875 -7.421875 C 19.546875 -7.078125 19.492188 -6.640625 19.390625 -6.109375 C 18.960938 -4.148438 18.046875 -2.640625 16.640625 -1.578125 C 15.234375 -0.523438 13.429688 0 11.234375 0 L -0.359375 0 Z M 11.96875 -12.390625 C 13.414062 -12.390625 14.289062 -13.050781 14.59375 -14.375 C 14.632812 -14.519531 14.65625 -14.71875 14.65625 -14.96875 C 14.65625 -15.445312 14.492188 -15.800781 14.171875 -16.03125 C 13.859375 -16.269531 13.347656 -16.390625 12.640625 -16.390625 L 8.890625 -16.390625 L 8.0625 -12.390625 Z M 10.46875 -4.1875 C 11.28125 -4.1875 11.914062 -4.359375 12.375 -4.703125 C 12.832031 -5.046875 13.144531 -5.613281 13.3125 -6.40625 C 13.351562 -6.695312 13.375 -6.882812 13.375 -6.96875 C 13.375 -7.46875 13.203125 -7.832031 12.859375 -8.0625 C 12.523438 -8.300781 11.984375 -8.421875 11.234375 -8.421875 L 7.203125 -8.421875 L 6.296875 -4.1875 Z M 10.46875 -4.1875 "/></g></g></g><g fill="#022135" fill-opacity="1"><g transform="translate(97.780326, 230.891543)"><g><path d="M 4 -20.609375 L 14.71875 -20.609375 C 16.632812 -20.609375 18.113281 -20.113281 19.15625 -19.125 C 20.207031 -18.144531 20.734375 -16.828125 20.734375 -15.171875 C 20.734375 -14.585938 20.671875 -13.957031 20.546875 -13.28125 C 20.242188 -11.914062 19.640625 -10.703125 18.734375 -9.640625 C 17.828125 -8.585938 16.722656 -7.773438 15.421875 -7.203125 C 15.617188 -7.023438 15.769531 -6.804688 15.875 -6.546875 C 15.976562 -6.296875 16.09375 -5.914062 16.21875 -5.40625 L 17.46875 0 L 11.203125 0 L 10.046875 -4.953125 C 9.941406 -5.335938 9.785156 -5.609375 9.578125 -5.765625 C 9.378906 -5.929688 9.054688 -6.015625 8.609375 -6.015625 L 6.90625 -6.015625 L 5.65625 0 L -0.359375 0 Z M 11.078125 -10.625 C 11.953125 -10.625 12.675781 -10.851562 13.25 -11.3125 C 13.820312 -11.769531 14.207031 -12.425781 14.40625 -13.28125 C 14.488281 -13.789062 14.53125 -14.128906 14.53125 -14.296875 C 14.53125 -14.859375 14.363281 -15.28125 14.03125 -15.5625 C 13.695312 -15.851562 13.160156 -16 12.421875 -16 L 9.0625 -16 L 7.90625 -10.625 Z M 11.078125 -10.625 "/></g></g></g><g fill="#022135" fill-opacity="1"><g transform="translate(118.095327, 230.891543)"><g><path d="M 7.578125 -16.125 L 1.796875 -16.125 L 2.71875 -20.609375 L 20.3125 -20.609375 L 19.390625 -16.125 L 13.59375 -16.125 L 10.171875 0 L 4.15625 0 Z M 7.578125 -16.125 "/></g></g></g><g fill="#022135" fill-opacity="1"><g transform="translate(136.010926, 230.891543)"><g/></g></g><g fill="#022135" fill-opacity="1"><g transform="translate(146.888248, 230.891543)"><g><path d="M 4 -20.609375 L 10.015625 -20.609375 L 6.625 -4.609375 L 15.90625 -4.609375 L 14.9375 0 L -0.359375 0 Z M 4 -20.609375 "/></g></g></g><g fill="#022135" fill-opacity="1"><g transform="translate(163.780093, 230.891543)"><g><path d="M 9.4375 0.3125 C 6.6875 0.3125 4.554688 -0.28125 3.046875 -1.46875 C 1.546875 -2.664062 0.796875 -4.5 0.796875 -6.96875 C 0.796875 -7.9375 0.925781 -9.023438 1.1875 -10.234375 C 2 -14.015625 3.425781 -16.738281 5.46875 -18.40625 C 7.519531 -20.082031 10.359375 -20.921875 13.984375 -20.921875 C 16.773438 -20.921875 18.910156 -20.316406 20.390625 -19.109375 C 21.878906 -17.910156 22.625 -16.070312 22.625 -13.59375 C 22.625 -12.613281 22.492188 -11.492188 22.234375 -10.234375 C 21.453125 -6.546875 20.023438 -3.863281 17.953125 -2.1875 C 15.878906 -0.519531 13.039062 0.3125 9.4375 0.3125 Z M 10.53125 -4.796875 C 12.0625 -4.796875 13.265625 -5.226562 14.140625 -6.09375 C 15.015625 -6.957031 15.664062 -8.335938 16.09375 -10.234375 C 16.3125 -11.222656 16.421875 -12.085938 16.421875 -12.828125 C 16.421875 -13.898438 16.144531 -14.664062 15.59375 -15.125 C 15.050781 -15.582031 14.148438 -15.8125 12.890625 -15.8125 C 11.335938 -15.8125 10.132812 -15.390625 9.28125 -14.546875 C 8.425781 -13.703125 7.773438 -12.265625 7.328125 -10.234375 C 7.085938 -9.171875 6.96875 -8.304688 6.96875 -7.640625 C 6.96875 -6.617188 7.242188 -5.890625 7.796875 -5.453125 C 8.359375 -5.015625 9.269531 -4.796875 10.53125 -4.796875 Z M 10.53125 -4.796875 "/></g></g></g><g fill="#022135" fill-opacity="1"><g transform="translate(186.430524, 230.891543)"><g><path d="M 10.171875 0.3125 C 7.316406 0.3125 5.050781 -0.363281 3.375 -1.71875 C 1.695312 -3.070312 0.859375 -4.992188 0.859375 -7.484375 C 0.859375 -8.316406 0.957031 -9.191406 1.15625 -10.109375 C 2.6875 -17.316406 7.347656 -20.921875 15.140625 -20.921875 C 17.566406 -20.921875 19.632812 -20.625 21.34375 -20.03125 L 20.21875 -14.875 C 18.707031 -15.5 16.789062 -15.8125 14.46875 -15.8125 C 12.5625 -15.8125 10.988281 -15.347656 9.75 -14.421875 C 8.519531 -13.492188 7.703125 -12.054688 7.296875 -10.109375 C 7.109375 -9.273438 7.015625 -8.550781 7.015625 -7.9375 C 7.015625 -6.820312 7.34375 -6.019531 8 -5.53125 C 8.65625 -5.039062 9.742188 -4.796875 11.265625 -4.796875 C 12.285156 -4.796875 13.296875 -4.9375 14.296875 -5.21875 L 14.9375 -8.21875 L 10.84375 -8.21875 L 11.640625 -11.9375 L 20.765625 -11.9375 L 18.5625 -1.5625 C 17.5625 -1.007812 16.351562 -0.554688 14.9375 -0.203125 C 13.53125 0.140625 11.941406 0.3125 10.171875 0.3125 Z M 10.171875 0.3125 "/></g></g></g><g fill="#022135" fill-opacity="1"><g transform="translate(207.257408, 230.891543)"><g><path d="M 4 -20.609375 L 10.015625 -20.609375 L 5.65625 0 L -0.359375 0 Z M 4 -20.609375 "/></g></g></g><g fill="#022135" fill-opacity="1"><g transform="translate(216.151217, 230.891543)"><g><path d="M 6.296875 0.3125 C 4.890625 0.3125 3.59375 0.203125 2.40625 -0.015625 C 1.226562 -0.242188 0.253906 -0.554688 -0.515625 -0.953125 L 0.546875 -5.921875 C 1.421875 -5.472656 2.414062 -5.109375 3.53125 -4.828125 C 4.65625 -4.554688 5.71875 -4.421875 6.71875 -4.421875 C 7.875 -4.421875 8.722656 -4.519531 9.265625 -4.71875 C 9.804688 -4.925781 10.140625 -5.328125 10.265625 -5.921875 C 10.285156 -6.003906 10.296875 -6.109375 10.296875 -6.234375 C 10.296875 -6.660156 10.09375 -6.984375 9.6875 -7.203125 C 9.289062 -7.429688 8.503906 -7.75 7.328125 -8.15625 L 6.375 -8.484375 C 4.851562 -9.015625 3.734375 -9.644531 3.015625 -10.375 C 2.304688 -11.113281 1.953125 -12.0625 1.953125 -13.21875 C 1.953125 -13.769531 2.003906 -14.269531 2.109375 -14.71875 C 2.554688 -16.789062 3.578125 -18.34375 5.171875 -19.375 C 6.773438 -20.40625 9.0625 -20.921875 12.03125 -20.921875 C 13.113281 -20.921875 14.238281 -20.832031 15.40625 -20.65625 C 16.570312 -20.476562 17.515625 -20.257812 18.234375 -20 L 17.1875 -15.015625 C 15.476562 -15.753906 13.738281 -16.125 11.96875 -16.125 C 10.832031 -16.125 9.960938 -16.035156 9.359375 -15.859375 C 8.753906 -15.691406 8.382812 -15.320312 8.25 -14.75 C 8.226562 -14.6875 8.21875 -14.59375 8.21875 -14.46875 C 8.21875 -14.101562 8.40625 -13.820312 8.78125 -13.625 C 9.15625 -13.4375 9.910156 -13.171875 11.046875 -12.828125 L 11.6875 -12.640625 C 13.476562 -12.109375 14.75 -11.441406 15.5 -10.640625 C 16.257812 -9.835938 16.640625 -8.863281 16.640625 -7.71875 C 16.640625 -7.269531 16.566406 -6.671875 16.421875 -5.921875 C 15.992188 -3.910156 14.992188 -2.367188 13.421875 -1.296875 C 11.859375 -0.222656 9.484375 0.3125 6.296875 0.3125 Z M 6.296875 0.3125 "/></g></g></g><g fill="#022135" fill-opacity="1"><g transform="translate(233.90685, 230.891543)"><g><path d="M 7.578125 -16.125 L 1.796875 -16.125 L 2.71875 -20.609375 L 20.3125 -20.609375 L 19.390625 -16.125 L 13.59375 -16.125 L 10.171875 0 L 4.15625 0 Z M 7.578125 -16.125 "/></g></g></g><g fill="#022135" fill-opacity="1"><g transform="translate(251.822449, 230.891543)"><g><path d="M 4 -20.609375 L 10.015625 -20.609375 L 5.65625 0 L -0.359375 0 Z M 4 -20.609375 "/></g></g></g><g fill="#022135" fill-opacity="1"><g transform="translate(260.716258, 230.891543)"><g><path d="M 10.40625 0.3125 C 7.414062 0.3125 5.078125 -0.367188 3.390625 -1.734375 C 1.703125 -3.097656 0.859375 -5.035156 0.859375 -7.546875 C 0.859375 -8.359375 0.957031 -9.242188 1.15625 -10.203125 C 1.894531 -13.765625 3.367188 -16.441406 5.578125 -18.234375 C 7.785156 -20.023438 10.894531 -20.921875 14.90625 -20.921875 C 16.125 -20.921875 17.207031 -20.832031 18.15625 -20.65625 C 19.101562 -20.476562 20.035156 -20.207031 20.953125 -19.84375 L 19.84375 -14.59375 C 18.195312 -15.40625 16.328125 -15.8125 14.234375 -15.8125 C 12.273438 -15.8125 10.726562 -15.363281 9.59375 -14.46875 C 8.46875 -13.570312 7.703125 -12.148438 7.296875 -10.203125 C 7.128906 -9.390625 7.046875 -8.71875 7.046875 -8.1875 C 7.046875 -7 7.425781 -6.132812 8.1875 -5.59375 C 8.957031 -5.0625 10.207031 -4.796875 11.9375 -4.796875 C 14.070312 -4.796875 16.117188 -5.191406 18.078125 -5.984375 L 16.953125 -0.703125 C 14.847656 -0.0234375 12.664062 0.3125 10.40625 0.3125 Z M 10.40625 0.3125 "/></g></g></g><g fill="#022135" fill-opacity="1"><g transform="translate(280.135473, 230.891543)"><g><path d="M 6.296875 0.3125 C 4.890625 0.3125 3.59375 0.203125 2.40625 -0.015625 C 1.226562 -0.242188 0.253906 -0.554688 -0.515625 -0.953125 L 0.546875 -5.921875 C 1.421875 -5.472656 2.414062 -5.109375 3.53125 -4.828125 C 4.65625 -4.554688 5.71875 -4.421875 6.71875 -4.421875 C 7.875 -4.421875 8.722656 -4.519531 9.265625 -4.71875 C 9.804688 -4.925781 10.140625 -5.328125 10.265625 -5.921875 C 10.285156 -6.003906 10.296875 -6.109375 10.296875 -6.234375 C 10.296875 -6.660156 10.09375 -6.984375 9.6875 -7.203125 C 9.289062 -7.429688 8.503906 -7.75 7.328125 -8.15625 L 6.375 -8.484375 C 4.851562 -9.015625 3.734375 -9.644531 3.015625 -10.375 C 2.304688 -11.113281 1.953125 -12.0625 1.953125 -13.21875 C 1.953125 -13.769531 2.003906 -14.269531 2.109375 -14.71875 C 2.554688 -16.789062 3.578125 -18.34375 5.171875 -19.375 C 6.773438 -20.40625 9.0625 -20.921875 12.03125 -20.921875 C 13.113281 -20.921875 14.238281 -20.832031 15.40625 -20.65625 C 16.570312 -20.476562 17.515625 -20.257812 18.234375 -20 L 17.1875 -15.015625 C 15.476562 -15.753906 13.738281 -16.125 11.96875 -16.125 C 10.832031 -16.125 9.960938 -16.035156 9.359375 -15.859375 C 8.753906 -15.691406 8.382812 -15.320312 8.25 -14.75 C 8.226562 -14.6875 8.21875 -14.59375 8.21875 -14.46875 C 8.21875 -14.101562 8.40625 -13.820312 8.78125 -13.625 C 9.15625 -13.4375 9.910156 -13.171875 11.046875 -12.828125 L 11.6875 -12.640625 C 13.476562 -12.109375 14.75 -11.441406 15.5 -10.640625 C 16.257812 -9.835938 16.640625 -8.863281 16.640625 -7.71875 C 16.640625 -7.269531 16.566406 -6.671875 16.421875 -5.921875 C 15.992188 -3.910156 14.992188 -2.367188 13.421875 -1.296875 C 11.859375 -0.222656 9.484375 0.3125 6.296875 0.3125 Z M 6.296875 0.3125 "/></g></g></g><g fill="#022135" fill-opacity="1"><g transform="translate(76.370471, 245.347001)"><g><path d="M 0.40625 -6.4375 L 3.875 -6.4375 C 4.65625 -6.4375 5.242188 -6.222656 5.640625 -5.796875 C 6.046875 -5.367188 6.25 -4.800781 6.25 -4.09375 C 6.25 -3.664062 6.144531 -3.285156 5.9375 -2.953125 C 5.726562 -2.628906 5.445312 -2.363281 5.09375 -2.15625 C 5.21875 -2.0625 5.320312 -1.914062 5.40625 -1.71875 L 6.15625 0 L 3.921875 0 L 3.265625 -1.484375 C 3.210938 -1.585938 3.15625 -1.660156 3.09375 -1.703125 C 3.039062 -1.742188 2.960938 -1.765625 2.859375 -1.765625 L 2.546875 -1.765625 L 2.546875 0 L 0.40625 0 Z M 3.34375 -3.421875 C 3.570312 -3.421875 3.75 -3.476562 3.875 -3.59375 C 4 -3.707031 4.0625 -3.875 4.0625 -4.09375 C 4.0625 -4.539062 3.835938 -4.765625 3.390625 -4.765625 L 2.546875 -4.765625 L 2.546875 -3.421875 Z M 3.34375 -3.421875 "/></g></g></g><g fill="#022135" fill-opacity="1"><g transform="translate(84.817918, 245.347001)"><g><path d="M 0.40625 -6.4375 L 5.40625 -6.4375 L 5.40625 -4.84375 L 2.546875 -4.84375 L 2.546875 -4.03125 L 5.046875 -4.03125 L 5.046875 -2.40625 L 2.546875 -2.40625 L 2.546875 -1.59375 L 5.40625 -1.59375 L 5.40625 0 L 0.40625 0 Z M 0.40625 -6.4375 "/></g></g></g><g fill="#022135" fill-opacity="1"><g transform="translate(92.375724, 245.347001)"><g><path d="M 3.921875 0.09375 C 2.703125 0.09375 1.773438 -0.1875 1.140625 -0.75 C 0.515625 -1.3125 0.203125 -2.128906 0.203125 -3.203125 C 0.203125 -4.296875 0.507812 -5.125 1.125 -5.6875 C 1.75 -6.257812 2.675781 -6.546875 3.90625 -6.546875 C 4.289062 -6.546875 4.640625 -6.515625 4.953125 -6.453125 C 5.273438 -6.398438 5.59375 -6.3125 5.90625 -6.1875 L 5.90625 -4.3125 C 5.300781 -4.582031 4.679688 -4.71875 4.046875 -4.71875 C 3.492188 -4.71875 3.078125 -4.597656 2.796875 -4.359375 C 2.523438 -4.117188 2.390625 -3.734375 2.390625 -3.203125 C 2.390625 -2.679688 2.53125 -2.300781 2.8125 -2.0625 C 3.09375 -1.832031 3.507812 -1.71875 4.0625 -1.71875 C 4.71875 -1.71875 5.335938 -1.847656 5.921875 -2.109375 L 5.921875 -0.234375 C 5.609375 -0.117188 5.289062 -0.0351562 4.96875 0.015625 C 4.65625 0.0664062 4.304688 0.09375 3.921875 0.09375 Z M 3.921875 0.09375 "/></g></g></g><g fill="#022135" fill-opacity="1"><g transform="translate(100.493307, 245.347001)"><g><path d="M 0.40625 -6.4375 L 3.875 -6.4375 C 4.65625 -6.4375 5.242188 -6.222656 5.640625 -5.796875 C 6.046875 -5.367188 6.25 -4.800781 6.25 -4.09375 C 6.25 -3.664062 6.144531 -3.285156 5.9375 -2.953125 C 5.726562 -2.628906 5.445312 -2.363281 5.09375 -2.15625 C 5.21875 -2.0625 5.320312 -1.914062 5.40625 -1.71875 L 6.15625 0 L 3.921875 0 L 3.265625 -1.484375 C 3.210938 -1.585938 3.15625 -1.660156 3.09375 -1.703125 C 3.039062 -1.742188 2.960938 -1.765625 2.859375 -1.765625 L 2.546875 -1.765625 L 2.546875 0 L 0.40625 0 Z M 3.34375 -3.421875 C 3.570312 -3.421875 3.75 -3.476562 3.875 -3.59375 C 4 -3.707031 4.0625 -3.875 4.0625 -4.09375 C 4.0625 -4.539062 3.835938 -4.765625 3.390625 -4.765625 L 2.546875 -4.765625 L 2.546875 -3.421875 Z M 3.34375 -3.421875 "/></g></g></g><g fill="#022135" fill-opacity="1"><g transform="translate(108.940754, 245.347001)"><g><path d="M 3.484375 0.09375 C 2.867188 0.09375 2.328125 -0.00390625 1.859375 -0.203125 C 1.390625 -0.398438 1.019531 -0.695312 0.75 -1.09375 C 0.476562 -1.488281 0.34375 -1.960938 0.34375 -2.515625 L 0.34375 -6.4375 L 2.5 -6.4375 L 2.5 -2.765625 C 2.5 -2.066406 2.828125 -1.71875 3.484375 -1.71875 C 4.128906 -1.71875 4.453125 -2.066406 4.453125 -2.765625 L 4.453125 -6.4375 L 6.609375 -6.4375 L 6.609375 -2.515625 C 6.609375 -1.960938 6.472656 -1.488281 6.203125 -1.09375 C 5.941406 -0.695312 5.578125 -0.398438 5.109375 -0.203125 C 4.640625 -0.00390625 4.097656 0.09375 3.484375 0.09375 Z M 3.484375 0.09375 "/></g></g></g><g fill="#022135" fill-opacity="1"><g transform="translate(117.898002, 245.347001)"><g><path d="M 0.40625 -6.4375 L 2.546875 -6.4375 L 2.546875 0 L 0.40625 0 Z M 0.40625 -6.4375 "/></g></g></g><g fill="#022135" fill-opacity="1"><g transform="translate(122.84683, 245.347001)"><g><path d="M 1.71875 -4.875 L 0 -4.875 L 0 -6.4375 L 5.59375 -6.4375 L 5.59375 -4.875 L 3.875 -4.875 L 3.875 0 L 1.71875 0 Z M 1.71875 -4.875 "/></g></g></g><g fill="#022135" fill-opacity="1"><g transform="translate(130.444625, 245.347001)"><g><path d="M 0.40625 -6.4375 L 2.546875 -6.4375 L 2.546875 0 L 0.40625 0 Z M 0.40625 -6.4375 "/></g></g></g><g fill="#022135" fill-opacity="1"><g transform="translate(135.39345, 245.347001)"><g><path d="M 0.40625 -6.4375 L 2.203125 -6.4375 L 4.328125 -3.46875 L 4.328125 -6.4375 L 6.484375 -6.4375 L 6.484375 0 L 4.65625 0 L 2.546875 -2.953125 L 2.546875 0 L 0.40625 0 Z M 0.40625 -6.4375 "/></g></g></g><g fill="#022135" fill-opacity="1"><g transform="translate(144.270735, 245.347001)"><g><path d="M 3.828125 0.09375 C 2.648438 0.09375 1.75 -0.179688 1.125 -0.734375 C 0.507812 -1.296875 0.203125 -2.113281 0.203125 -3.1875 C 0.203125 -4.269531 0.523438 -5.097656 1.171875 -5.671875 C 1.816406 -6.253906 2.753906 -6.546875 3.984375 -6.546875 C 4.765625 -6.546875 5.441406 -6.445312 6.015625 -6.25 L 6.015625 -4.421875 C 5.484375 -4.617188 4.851562 -4.71875 4.125 -4.71875 C 3.5625 -4.71875 3.128906 -4.59375 2.828125 -4.34375 C 2.535156 -4.101562 2.390625 -3.71875 2.390625 -3.1875 C 2.390625 -2.664062 2.503906 -2.289062 2.734375 -2.0625 C 2.972656 -1.832031 3.332031 -1.71875 3.8125 -1.71875 C 4.101562 -1.71875 4.359375 -1.75 4.578125 -1.8125 L 4.578125 -2.484375 L 3.40625 -2.484375 L 3.40625 -3.796875 L 6.375 -3.796875 L 6.375 -0.515625 C 6.082031 -0.328125 5.722656 -0.175781 5.296875 -0.0625 C 4.867188 0.0390625 4.378906 0.09375 3.828125 0.09375 Z M 3.828125 0.09375 "/></g></g></g><g fill="#022135" fill-opacity="1"><g transform="translate(152.838136, 245.347001)"><g/></g></g><g fill="#022135" fill-opacity="1"><g transform="translate(158.036866, 245.347001)"><g><path d="M 2.5625 0.09375 C 2.125 0.09375 1.703125 0.0546875 1.296875 -0.015625 C 0.890625 -0.0859375 0.546875 -0.1875 0.265625 -0.3125 L 0.265625 -2 C 0.578125 -1.851562 0.921875 -1.734375 1.296875 -1.640625 C 1.679688 -1.546875 2.03125 -1.5 2.34375 -1.5 C 2.625 -1.5 2.832031 -1.523438 2.96875 -1.578125 C 3.101562 -1.640625 3.171875 -1.738281 3.171875 -1.875 C 3.171875 -2 3.109375 -2.097656 2.984375 -2.171875 C 2.859375 -2.242188 2.617188 -2.335938 2.265625 -2.453125 C 2.171875 -2.472656 2.046875 -2.507812 1.890625 -2.5625 C 1.453125 -2.71875 1.113281 -2.878906 0.875 -3.046875 C 0.632812 -3.210938 0.460938 -3.414062 0.359375 -3.65625 C 0.253906 -3.894531 0.203125 -4.195312 0.203125 -4.5625 C 0.203125 -5.882812 1.117188 -6.546875 2.953125 -6.546875 C 3.273438 -6.546875 3.632812 -6.515625 4.03125 -6.453125 C 4.425781 -6.390625 4.753906 -6.316406 5.015625 -6.234375 L 5.015625 -4.546875 C 4.398438 -4.796875 3.832031 -4.921875 3.3125 -4.921875 C 3.019531 -4.921875 2.789062 -4.894531 2.625 -4.84375 C 2.46875 -4.800781 2.390625 -4.710938 2.390625 -4.578125 C 2.390625 -4.492188 2.421875 -4.425781 2.484375 -4.375 C 2.554688 -4.320312 2.65625 -4.273438 2.78125 -4.234375 C 2.914062 -4.191406 3.148438 -4.128906 3.484375 -4.046875 C 3.992188 -3.898438 4.382812 -3.726562 4.65625 -3.53125 C 4.925781 -3.332031 5.113281 -3.101562 5.21875 -2.84375 C 5.320312 -2.582031 5.375 -2.265625 5.375 -1.890625 C 5.375 -1.273438 5.132812 -0.789062 4.65625 -0.4375 C 4.175781 -0.0820312 3.476562 0.09375 2.5625 0.09375 Z M 2.5625 0.09375 "/></g></g></g><g fill="#022135" fill-opacity="1"><g transform="translate(165.604661, 245.347001)"><g><path d="M 0.40625 -6.4375 L 5.40625 -6.4375 L 5.40625 -4.84375 L 2.546875 -4.84375 L 2.546875 -4.03125 L 5.046875 -4.03125 L 5.046875 -2.40625 L 2.546875 -2.40625 L 2.546875 -1.59375 L 5.40625 -1.59375 L 5.40625 0 L 0.40625 0 Z M 0.40625 -6.4375 "/></g></g></g><g fill="#022135" fill-opacity="1"><g transform="translate(173.162464, 245.347001)"><g><path d="M 0.40625 -6.4375 L 3.875 -6.4375 C 4.65625 -6.4375 5.242188 -6.222656 5.640625 -5.796875 C 6.046875 -5.367188 6.25 -4.800781 6.25 -4.09375 C 6.25 -3.664062 6.144531 -3.285156 5.9375 -2.953125 C 5.726562 -2.628906 5.445312 -2.363281 5.09375 -2.15625 C 5.21875 -2.0625 5.320312 -1.914062 5.40625 -1.71875 L 6.15625 0 L 3.921875 0 L 3.265625 -1.484375 C 3.210938 -1.585938 3.15625 -1.660156 3.09375 -1.703125 C 3.039062 -1.742188 2.960938 -1.765625 2.859375 -1.765625 L 2.546875 -1.765625 L 2.546875 0 L 0.40625 0 Z M 3.34375 -3.421875 C 3.570312 -3.421875 3.75 -3.476562 3.875 -3.59375 C 4 -3.707031 4.0625 -3.875 4.0625 -4.09375 C 4.0625 -4.539062 3.835938 -4.765625 3.390625 -4.765625 L 2.546875 -4.765625 L 2.546875 -3.421875 Z M 3.34375 -3.421875 "/></g></g></g><g fill="#022135" fill-opacity="1"><g transform="translate(181.609909, 245.347001)"><g><path d="M 0.203125 -6.4375 L 2.4375 -6.4375 L 3.796875 -2.515625 L 5.15625 -6.4375 L 7.40625 -6.4375 L 4.921875 0 L 2.671875 0 Z M 0.203125 -6.4375 "/></g></g></g><g fill="#022135" fill-opacity="1"><g transform="translate(191.2069, 245.347001)"><g><path d="M 0.40625 -6.4375 L 2.546875 -6.4375 L 2.546875 0 L 0.40625 0 Z M 0.40625 -6.4375 "/></g></g></g><g fill="#022135" fill-opacity="1"><g transform="translate(196.155726, 245.347001)"><g><path d="M 3.921875 0.09375 C 2.703125 0.09375 1.773438 -0.1875 1.140625 -0.75 C 0.515625 -1.3125 0.203125 -2.128906 0.203125 -3.203125 C 0.203125 -4.296875 0.507812 -5.125 1.125 -5.6875 C 1.75 -6.257812 2.675781 -6.546875 3.90625 -6.546875 C 4.289062 -6.546875 4.640625 -6.515625 4.953125 -6.453125 C 5.273438 -6.398438 5.59375 -6.3125 5.90625 -6.1875 L 5.90625 -4.3125 C 5.300781 -4.582031 4.679688 -4.71875 4.046875 -4.71875 C 3.492188 -4.71875 3.078125 -4.597656 2.796875 -4.359375 C 2.523438 -4.117188 2.390625 -3.734375 2.390625 -3.203125 C 2.390625 -2.679688 2.53125 -2.300781 2.8125 -2.0625 C 3.09375 -1.832031 3.507812 -1.71875 4.0625 -1.71875 C 4.71875 -1.71875 5.335938 -1.847656 5.921875 -2.109375 L 5.921875 -0.234375 C 5.609375 -0.117188 5.289062 -0.0351562 4.96875 0.015625 C 4.65625 0.0664062 4.304688 0.09375 3.921875 0.09375 Z M 3.921875 0.09375 "/></g></g></g><g fill="#022135" fill-opacity="1"><g transform="translate(204.273306, 245.347001)"><g><path d="M 0.40625 -6.4375 L 5.40625 -6.4375 L 5.40625 -4.84375 L 2.546875 -4.84375 L 2.546875 -4.03125 L 5.046875 -4.03125 L 5.046875 -2.40625 L 2.546875 -2.40625 L 2.546875 -1.59375 L 5.40625 -1.59375 L 5.40625 0 L 0.40625 0 Z M 0.40625 -6.4375 "/></g></g></g><g fill="#022135" fill-opacity="1"><g transform="translate(211.831109, 245.347001)"><g/></g></g><g fill="#022135" fill-opacity="1"><g transform="translate(217.02984, 245.347001)"><g><path d="M 0.40625 -6.4375 L 2.546875 -6.4375 L 2.546875 0 L 0.40625 0 Z M 0.40625 -6.4375 "/></g></g></g><g fill="#022135" fill-opacity="1"><g transform="translate(221.978665, 245.347001)"><g><path d="M 0.40625 -6.4375 L 2.203125 -6.4375 L 4.328125 -3.46875 L 4.328125 -6.4375 L 6.484375 -6.4375 L 6.484375 0 L 4.65625 0 L 2.546875 -2.953125 L 2.546875 0 L 0.40625 0 Z M 0.40625 -6.4375 "/></g></g></g><g fill="#022135" fill-opacity="1"><g transform="translate(230.855949, 245.347001)"><g/></g></g><g fill="#022135" fill-opacity="1"><g transform="translate(236.05468, 245.347001)"><g><path d="M 1.71875 -4.875 L 0 -4.875 L 0 -6.4375 L 5.59375 -6.4375 L 5.59375 -4.875 L 3.875 -4.875 L 3.875 0 L 1.71875 0 Z M 1.71875 -4.875 "/></g></g></g><g fill="#022135" fill-opacity="1"><g transform="translate(243.652469, 245.347001)"><g><path d="M 0.40625 -6.4375 L 3.875 -6.4375 C 4.65625 -6.4375 5.242188 -6.222656 5.640625 -5.796875 C 6.046875 -5.367188 6.25 -4.800781 6.25 -4.09375 C 6.25 -3.664062 6.144531 -3.285156 5.9375 -2.953125 C 5.726562 -2.628906 5.445312 -2.363281 5.09375 -2.15625 C 5.21875 -2.0625 5.320312 -1.914062 5.40625 -1.71875 L 6.15625 0 L 3.921875 0 L 3.265625 -1.484375 C 3.210938 -1.585938 3.15625 -1.660156 3.09375 -1.703125 C 3.039062 -1.742188 2.960938 -1.765625 2.859375 -1.765625 L 2.546875 -1.765625 L 2.546875 0 L 0.40625 0 Z M 3.34375 -3.421875 C 3.570312 -3.421875 3.75 -3.476562 3.875 -3.59375 C 4 -3.707031 4.0625 -3.875 4.0625 -4.09375 C 4.0625 -4.539062 3.835938 -4.765625 3.390625 -4.765625 L 2.546875 -4.765625 L 2.546875 -3.421875 Z M 3.34375 -3.421875 "/></g></g></g><g fill="#022135" fill-opacity="1"><g transform="translate(252.099913, 245.347001)"><g><path d="M 3.484375 0.09375 C 2.867188 0.09375 2.328125 -0.00390625 1.859375 -0.203125 C 1.390625 -0.398438 1.019531 -0.695312 0.75 -1.09375 C 0.476562 -1.488281 0.34375 -1.960938 0.34375 -2.515625 L 0.34375 -6.4375 L 2.5 -6.4375 L 2.5 -2.765625 C 2.5 -2.066406 2.828125 -1.71875 3.484375 -1.71875 C 4.128906 -1.71875 4.453125 -2.066406 4.453125 -2.765625 L 4.453125 -6.4375 L 6.609375 -6.4375 L 6.609375 -2.515625 C 6.609375 -1.960938 6.472656 -1.488281 6.203125 -1.09375 C 5.941406 -0.695312 5.578125 -0.398438 5.109375 -0.203125 C 4.640625 -0.00390625 4.097656 0.09375 3.484375 0.09375 Z M 3.484375 0.09375 "/></g></g></g><g fill="#022135" fill-opacity="1"><g transform="translate(261.057158, 245.347001)"><g><path d="M 3.921875 0.09375 C 2.703125 0.09375 1.773438 -0.1875 1.140625 -0.75 C 0.515625 -1.3125 0.203125 -2.128906 0.203125 -3.203125 C 0.203125 -4.296875 0.507812 -5.125 1.125 -5.6875 C 1.75 -6.257812 2.675781 -6.546875 3.90625 -6.546875 C 4.289062 -6.546875 4.640625 -6.515625 4.953125 -6.453125 C 5.273438 -6.398438 5.59375 -6.3125 5.90625 -6.1875 L 5.90625 -4.3125 C 5.300781 -4.582031 4.679688 -4.71875 4.046875 -4.71875 C 3.492188 -4.71875 3.078125 -4.597656 2.796875 -4.359375 C 2.523438 -4.117188 2.390625 -3.734375 2.390625 -3.203125 C 2.390625 -2.679688 2.53125 -2.300781 2.8125 -2.0625 C 3.09375 -1.832031 3.507812 -1.71875 4.0625 -1.71875 C 4.71875 -1.71875 5.335938 -1.847656 5.921875 -2.109375 L 5.921875 -0.234375 C 5.609375 -0.117188 5.289062 -0.0351562 4.96875 0.015625 C 4.65625 0.0664062 4.304688 0.09375 3.921875 0.09375 Z M 3.921875 0.09375 "/></g></g></g><g fill="#022135" fill-opacity="1"><g transform="translate(269.174749, 245.347001)"><g><path d="M 0.40625 -6.4375 L 2.546875 -6.4375 L 2.546875 -4.40625 L 4.234375 -6.4375 L 6.65625 -6.4375 L 4.4375 -3.78125 L 6.84375 0 L 4.5625 0 L 3.109375 -2.421875 L 2.546875 -1.765625 L 2.546875 0 L 0.40625 0 Z M 0.40625 -6.4375 "/></g></g></g><g fill="#022135" fill-opacity="1"><g transform="translate(278.211964, 245.347001)"><g><path d="M 0.40625 -6.4375 L 2.546875 -6.4375 L 2.546875 0 L 0.40625 0 Z M 0.40625 -6.4375 "/></g></g></g><g fill="#022135" fill-opacity="1"><g transform="translate(283.160801, 245.347001)"><g><path d="M 0.40625 -6.4375 L 2.203125 -6.4375 L 4.328125 -3.46875 L 4.328125 -6.4375 L 6.484375 -6.4375 L 6.484375 0 L 4.65625 0 L 2.546875 -2.953125 L 2.546875 0 L 0.40625 0 Z M 0.40625 -6.4375 "/></g></g></g><g fill="#022135" fill-opacity="1"><g transform="translate(292.038097, 245.347001)"><g><path d="M 3.828125 0.09375 C 2.648438 0.09375 1.75 -0.179688 1.125 -0.734375 C 0.507812 -1.296875 0.203125 -2.113281 0.203125 -3.1875 C 0.203125 -4.269531 0.523438 -5.097656 1.171875 -5.671875 C 1.816406 -6.253906 2.753906 -6.546875 3.984375 -6.546875 C 4.765625 -6.546875 5.441406 -6.445312 6.015625 -6.25 L 6.015625 -4.421875 C 5.484375 -4.617188 4.851562 -4.71875 4.125 -4.71875 C 3.5625 -4.71875 3.128906 -4.59375 2.828125 -4.34375 C 2.535156 -4.101562 2.390625 -3.71875 2.390625 -3.1875 C 2.390625 -2.664062 2.503906 -2.289062 2.734375 -2.0625 C 2.972656 -1.832031 3.332031 -1.71875 3.8125 -1.71875 C 4.101562 -1.71875 4.359375 -1.75 4.578125 -1.8125 L 4.578125 -2.484375 L 3.40625 -2.484375 L 3.40625 -3.796875 L 6.375 -3.796875 L 6.375 -0.515625 C 6.082031 -0.328125 5.722656 -0.175781 5.296875 -0.0625 C 4.867188 0.0390625 4.378906 0.09375 3.828125 0.09375 Z M 3.828125 0.09375 "/></g></g></g></svg>