<svg xmlns="http://www.w3.org/2000/svg" xmlns:xlink="http://www.w3.org/1999/xlink" width="500" zoomAndPan="magnify" viewBox="0 0 375 374.999991" height="500" preserveAspectRatio="xMidYMid meet" version="1.0"><defs><g/><clipPath id="0d51db3375"><path d="M 91 206.675781 L 287.183594 206.675781 L 287.183594 211.359375 L 91 211.359375 Z M 91 206.675781 " clip-rule="nonzero"/></clipPath><clipPath id="4414f446fb"><path d="M 87.558594 102.667969 L 279 102.667969 L 279 208 L 87.558594 208 Z M 87.558594 102.667969 " clip-rule="nonzero"/></clipPath></defs><rect x="-37.5" width="450" fill="#ffffff" y="-37.499999" height="449.999989" fill-opacity="1"/><rect x="-37.5" width="450" fill="#ffffff" y="-37.499999" height="449.999989" fill-opacity="1"/><g fill="#242424" fill-opacity="1"><g transform="translate(59.496106, 240.819594)"><g><path d="M 17.703125 -13.046875 C 18.785156 -12.472656 19.628906 -11.675781 20.234375 -10.65625 C 20.835938 -9.632812 21.140625 -8.460938 21.140625 -7.140625 C 21.140625 -5.816406 20.789062 -4.613281 20.09375 -3.53125 C 19.394531 -2.445312 18.453125 -1.585938 17.265625 -0.953125 C 16.078125 -0.316406 14.773438 0 13.359375 0 L 2.828125 0 L 2.828125 -24.734375 L 13.078125 -24.734375 C 14.492188 -24.734375 15.757812 -24.457031 16.875 -23.90625 C 18 -23.351562 18.882812 -22.59375 19.53125 -21.625 C 20.175781 -20.664062 20.5 -19.582031 20.5 -18.375 C 20.5 -17.3125 20.25 -16.304688 19.75 -15.359375 C 19.257812 -14.421875 18.578125 -13.648438 17.703125 -13.046875 Z M 15.296875 -17.53125 C 15.296875 -18.3125 15.046875 -18.945312 14.546875 -19.4375 C 14.054688 -19.9375 13.390625 -20.1875 12.546875 -20.1875 L 8.09375 -20.1875 L 8.09375 -14.921875 L 12.546875 -14.921875 C 13.390625 -14.921875 14.054688 -15.164062 14.546875 -15.65625 C 15.046875 -16.15625 15.296875 -16.78125 15.296875 -17.53125 Z M 12.828125 -4.90625 C 13.722656 -4.90625 14.4375 -5.164062 14.96875 -5.6875 C 15.5 -6.207031 15.765625 -6.878906 15.765625 -7.703125 C 15.765625 -8.503906 15.5 -9.164062 14.96875 -9.6875 C 14.4375 -10.207031 13.722656 -10.46875 12.828125 -10.46875 L 8.09375 -10.46875 L 8.09375 -4.90625 Z M 12.828125 -4.90625 "/></g></g></g><g fill="#242424" fill-opacity="1"><g transform="translate(81.472382, 240.819594)"><g><path d="M 16.4375 0 L 11.625 -8.453125 L 8.203125 -8.453125 L 8.203125 0 L 2.828125 0 L 2.828125 -24.734375 L 12.828125 -24.734375 C 14.472656 -24.734375 15.941406 -24.378906 17.234375 -23.671875 C 18.535156 -22.972656 19.5625 -22.007812 20.3125 -20.78125 C 21.070312 -19.550781 21.453125 -18.140625 21.453125 -16.546875 C 21.453125 -14.941406 21.046875 -13.507812 20.234375 -12.25 C 19.421875 -10.988281 18.332031 -10.023438 16.96875 -9.359375 L 22.4375 0 Z M 8.203125 -19.796875 L 8.203125 -13.390625 L 12.46875 -13.390625 C 13.582031 -13.390625 14.457031 -13.691406 15.09375 -14.296875 C 15.726562 -14.898438 16.046875 -15.660156 16.046875 -16.578125 C 16.046875 -17.515625 15.726562 -18.285156 15.09375 -18.890625 C 14.457031 -19.492188 13.582031 -19.796875 12.46875 -19.796875 Z M 8.203125 -19.796875 "/></g></g></g><g fill="#242424" fill-opacity="1"><g transform="translate(104.11997, 240.819594)"><g><path d="M 19.90625 -24.734375 L 19.90625 -19.75 L 13 -19.75 L 13 0 L 7.640625 0 L 7.640625 -19.75 L 0.78125 -19.75 L 0.78125 -24.734375 Z M 19.90625 -24.734375 "/></g></g></g><g fill="#242424" fill-opacity="1"><g transform="translate(124.046988, 240.819594)"><g/></g></g><g fill="#242424" fill-opacity="1"><g transform="translate(131.784458, 240.819594)"><g><path d="M 8.203125 -4.984375 L 17.671875 -4.984375 L 17.671875 0 L 2.828125 0 L 2.828125 -24.734375 L 8.203125 -24.734375 Z M 8.203125 -4.984375 "/></g></g></g><g fill="#242424" fill-opacity="1"><g transform="translate(149.520893, 240.819594)"><g><path d="M 14.5625 0.53125 C 12.675781 0.53125 10.929688 0.207031 9.328125 -0.4375 C 7.722656 -1.082031 6.328125 -1.988281 5.140625 -3.15625 C 3.953125 -4.320312 3.023438 -5.6875 2.359375 -7.25 C 1.703125 -8.820312 1.375 -10.53125 1.375 -12.375 C 1.375 -14.207031 1.703125 -15.90625 2.359375 -17.46875 C 3.023438 -19.039062 3.953125 -20.410156 5.140625 -21.578125 C 6.328125 -22.742188 7.722656 -23.648438 9.328125 -24.296875 C 10.929688 -24.941406 12.675781 -25.265625 14.5625 -25.265625 C 16.445312 -25.265625 18.191406 -24.941406 19.796875 -24.296875 C 21.398438 -23.648438 22.789062 -22.742188 23.96875 -21.578125 C 25.144531 -20.410156 26.0625 -19.039062 26.71875 -17.46875 C 27.375 -15.90625 27.703125 -14.207031 27.703125 -12.375 C 27.703125 -10.53125 27.375 -8.820312 26.71875 -7.25 C 26.0625 -5.6875 25.144531 -4.320312 23.96875 -3.15625 C 22.789062 -1.988281 21.398438 -1.082031 19.796875 -0.4375 C 18.191406 0.207031 16.445312 0.53125 14.5625 0.53125 Z M 14.5625 -4.53125 C 16.039062 -4.53125 17.363281 -4.867188 18.53125 -5.546875 C 19.695312 -6.234375 20.613281 -7.164062 21.28125 -8.34375 C 21.957031 -9.519531 22.296875 -10.863281 22.296875 -12.375 C 22.296875 -13.851562 21.957031 -15.1875 21.28125 -16.375 C 20.613281 -17.570312 19.695312 -18.507812 18.53125 -19.1875 C 17.363281 -19.875 16.039062 -20.21875 14.5625 -20.21875 C 13.101562 -20.21875 11.78125 -19.875 10.59375 -19.1875 C 9.414062 -18.507812 8.484375 -17.570312 7.796875 -16.375 C 7.117188 -15.1875 6.78125 -13.851562 6.78125 -12.375 C 6.78125 -10.882812 7.117188 -9.546875 7.796875 -8.359375 C 8.484375 -7.171875 9.414062 -6.234375 10.59375 -5.546875 C 11.78125 -4.867188 13.101562 -4.53125 14.5625 -4.53125 Z M 14.5625 -4.53125 "/></g></g></g><g fill="#242424" fill-opacity="1"><g transform="translate(177.892265, 240.819594)"><g><path d="M 13.671875 -12.9375 L 26.859375 -12.9375 C 26.835938 -10.976562 26.519531 -9.179688 25.90625 -7.546875 C 25.289062 -5.910156 24.421875 -4.488281 23.296875 -3.28125 C 22.179688 -2.082031 20.851562 -1.144531 19.3125 -0.46875 C 17.769531 0.195312 16.066406 0.53125 14.203125 0.53125 C 12.390625 0.53125 10.707031 0.210938 9.15625 -0.421875 C 7.601562 -1.054688 6.242188 -1.953125 5.078125 -3.109375 C 3.910156 -4.265625 3.003906 -5.628906 2.359375 -7.203125 C 1.722656 -8.785156 1.40625 -10.492188 1.40625 -12.328125 C 1.40625 -14.191406 1.71875 -15.90625 2.34375 -17.46875 C 2.96875 -19.039062 3.851562 -20.410156 5 -21.578125 C 6.144531 -22.742188 7.492188 -23.648438 9.046875 -24.296875 C 10.597656 -24.941406 12.285156 -25.265625 14.109375 -25.265625 C 16.148438 -25.265625 18.039062 -24.863281 19.78125 -24.0625 C 21.53125 -23.269531 22.992188 -22.164062 24.171875 -20.75 C 25.347656 -19.332031 26.125 -17.691406 26.5 -15.828125 L 21 -15.828125 C 20.476562 -17.171875 19.601562 -18.234375 18.375 -19.015625 C 17.15625 -19.796875 15.765625 -20.1875 14.203125 -20.1875 C 12.742188 -20.1875 11.457031 -19.847656 10.34375 -19.171875 C 9.238281 -18.503906 8.375 -17.585938 7.75 -16.421875 C 7.132812 -15.253906 6.828125 -13.890625 6.828125 -12.328125 C 6.828125 -10.796875 7.128906 -9.445312 7.734375 -8.28125 C 8.347656 -7.113281 9.207031 -6.203125 10.3125 -5.546875 C 11.425781 -4.890625 12.722656 -4.5625 14.203125 -4.5625 C 15.804688 -4.5625 17.242188 -4.945312 18.515625 -5.71875 C 19.785156 -6.5 20.644531 -7.523438 21.09375 -8.796875 L 13.671875 -8.796875 Z M 13.671875 -12.9375 "/></g></g></g><g fill="#242424" fill-opacity="1"><g transform="translate(205.345003, 240.819594)"><g><path d="M 2.828125 0 L 2.828125 -24.734375 L 8.203125 -24.734375 L 8.203125 0 Z M 2.828125 0 "/></g></g></g><g fill="#242424" fill-opacity="1"><g transform="translate(215.661714, 240.819594)"><g><path d="M 11.03125 0.5 C 9.144531 0.5 7.484375 0.15625 6.046875 -0.53125 C 4.609375 -1.21875 3.484375 -2.195312 2.671875 -3.46875 C 1.859375 -4.738281 1.453125 -6.253906 1.453125 -8.015625 L 6.859375 -8.015625 C 6.859375 -6.816406 7.273438 -5.925781 8.109375 -5.34375 C 8.941406 -4.769531 9.898438 -4.484375 10.984375 -4.484375 C 11.671875 -4.484375 12.3125 -4.59375 12.90625 -4.8125 C 13.507812 -5.039062 14.003906 -5.375 14.390625 -5.8125 C 14.785156 -6.25 14.984375 -6.773438 14.984375 -7.390625 C 14.984375 -8.023438 14.757812 -8.523438 14.3125 -8.890625 C 13.863281 -9.253906 13.257812 -9.550781 12.5 -9.78125 C 11.75 -10.019531 10.925781 -10.25 10.03125 -10.46875 C 9.113281 -10.675781 8.171875 -10.929688 7.203125 -11.234375 C 6.242188 -11.546875 5.347656 -11.953125 4.515625 -12.453125 C 3.691406 -12.960938 3.03125 -13.644531 2.53125 -14.5 C 2.039062 -15.363281 1.796875 -16.457031 1.796875 -17.78125 C 1.796875 -20.15625 2.601562 -21.984375 4.21875 -23.265625 C 5.832031 -24.554688 8.019531 -25.203125 10.78125 -25.203125 C 13.601562 -25.203125 15.789062 -24.488281 17.34375 -23.0625 C 18.90625 -21.632812 19.6875 -19.695312 19.6875 -17.25 L 14.390625 -17.25 C 14.390625 -18.3125 14.007812 -19.09375 13.25 -19.59375 C 12.5 -20.101562 11.628906 -20.359375 10.640625 -20.359375 C 9.765625 -20.359375 8.960938 -20.171875 8.234375 -19.796875 C 7.503906 -19.421875 7.140625 -18.832031 7.140625 -18.03125 C 7.140625 -17.4375 7.359375 -16.96875 7.796875 -16.625 C 8.234375 -16.28125 8.8125 -15.992188 9.53125 -15.765625 C 10.25 -15.546875 11.039062 -15.332031 11.90625 -15.125 C 12.851562 -14.894531 13.820312 -14.617188 14.8125 -14.296875 C 15.800781 -13.972656 16.71875 -13.539062 17.5625 -13 C 18.414062 -12.457031 19.101562 -11.738281 19.625 -10.84375 C 20.15625 -9.945312 20.421875 -8.816406 20.421875 -7.453125 C 20.421875 -5.660156 19.988281 -4.175781 19.125 -3 C 18.269531 -1.820312 17.132812 -0.941406 15.71875 -0.359375 C 14.3125 0.210938 12.75 0.5 11.03125 0.5 Z M 11.03125 0.5 "/></g></g></g><g fill="#242424" fill-opacity="1"><g transform="translate(236.82534, 240.819594)"><g><path d="M 19.90625 -24.734375 L 19.90625 -19.75 L 13 -19.75 L 13 0 L 7.640625 0 L 7.640625 -19.75 L 0.78125 -19.75 L 0.78125 -24.734375 Z M 19.90625 -24.734375 "/></g></g></g><g fill="#242424" fill-opacity="1"><g transform="translate(256.752363, 240.819594)"><g><path d="M 2.828125 0 L 2.828125 -24.734375 L 8.203125 -24.734375 L 8.203125 0 Z M 2.828125 0 "/></g></g></g><g fill="#242424" fill-opacity="1"><g transform="translate(267.069074, 240.819594)"><g><path d="M 14.171875 0.53125 C 12.359375 0.53125 10.671875 0.207031 9.109375 -0.4375 C 7.554688 -1.082031 6.203125 -1.988281 5.046875 -3.15625 C 3.898438 -4.320312 3.003906 -5.6875 2.359375 -7.25 C 1.722656 -8.820312 1.40625 -10.515625 1.40625 -12.328125 C 1.40625 -14.171875 1.722656 -15.878906 2.359375 -17.453125 C 3.003906 -19.035156 3.898438 -20.410156 5.046875 -21.578125 C 6.203125 -22.742188 7.554688 -23.648438 9.109375 -24.296875 C 10.671875 -24.941406 12.359375 -25.265625 14.171875 -25.265625 C 16.171875 -25.265625 18.007812 -24.851562 19.6875 -24.03125 C 21.363281 -23.207031 22.765625 -22.050781 23.890625 -20.5625 C 25.023438 -19.082031 25.78125 -17.363281 26.15625 -15.40625 L 20.78125 -15.40625 C 20.289062 -16.863281 19.453125 -18.023438 18.265625 -18.890625 C 17.085938 -19.753906 15.722656 -20.1875 14.171875 -20.1875 C 12.785156 -20.1875 11.535156 -19.835938 10.421875 -19.140625 C 9.316406 -18.441406 8.441406 -17.503906 7.796875 -16.328125 C 7.148438 -15.148438 6.828125 -13.816406 6.828125 -12.328125 C 6.828125 -10.847656 7.148438 -9.523438 7.796875 -8.359375 C 8.441406 -7.191406 9.316406 -6.265625 10.421875 -5.578125 C 11.535156 -4.898438 12.785156 -4.5625 14.171875 -4.5625 C 15.796875 -4.5625 17.195312 -5.019531 18.375 -5.9375 C 19.550781 -6.851562 20.363281 -8.101562 20.8125 -9.6875 L 26.21875 -9.6875 C 25.84375 -7.632812 25.09375 -5.84375 23.96875 -4.3125 C 22.851562 -2.78125 21.453125 -1.585938 19.765625 -0.734375 C 18.085938 0.109375 16.222656 0.53125 14.171875 0.53125 Z M 14.171875 0.53125 "/></g></g></g><g fill="#242424" fill-opacity="1"><g transform="translate(293.603184, 240.819594)"><g><path d="M 11.03125 0.5 C 9.144531 0.5 7.484375 0.15625 6.046875 -0.53125 C 4.609375 -1.21875 3.484375 -2.195312 2.671875 -3.46875 C 1.859375 -4.738281 1.453125 -6.253906 1.453125 -8.015625 L 6.859375 -8.015625 C 6.859375 -6.816406 7.273438 -5.925781 8.109375 -5.34375 C 8.941406 -4.769531 9.898438 -4.484375 10.984375 -4.484375 C 11.671875 -4.484375 12.3125 -4.59375 12.90625 -4.8125 C 13.507812 -5.039062 14.003906 -5.375 14.390625 -5.8125 C 14.785156 -6.25 14.984375 -6.773438 14.984375 -7.390625 C 14.984375 -8.023438 14.757812 -8.523438 14.3125 -8.890625 C 13.863281 -9.253906 13.257812 -9.550781 12.5 -9.78125 C 11.75 -10.019531 10.925781 -10.25 10.03125 -10.46875 C 9.113281 -10.675781 8.171875 -10.929688 7.203125 -11.234375 C 6.242188 -11.546875 5.347656 -11.953125 4.515625 -12.453125 C 3.691406 -12.960938 3.03125 -13.644531 2.53125 -14.5 C 2.039062 -15.363281 1.796875 -16.457031 1.796875 -17.78125 C 1.796875 -20.15625 2.601562 -21.984375 4.21875 -23.265625 C 5.832031 -24.554688 8.019531 -25.203125 10.78125 -25.203125 C 13.601562 -25.203125 15.789062 -24.488281 17.34375 -23.0625 C 18.90625 -21.632812 19.6875 -19.695312 19.6875 -17.25 L 14.390625 -17.25 C 14.390625 -18.3125 14.007812 -19.09375 13.25 -19.59375 C 12.5 -20.101562 11.628906 -20.359375 10.640625 -20.359375 C 9.765625 -20.359375 8.960938 -20.171875 8.234375 -19.796875 C 7.503906 -19.421875 7.140625 -18.832031 7.140625 -18.03125 C 7.140625 -17.4375 7.359375 -16.96875 7.796875 -16.625 C 8.234375 -16.28125 8.8125 -15.992188 9.53125 -15.765625 C 10.25 -15.546875 11.039062 -15.332031 11.90625 -15.125 C 12.851562 -14.894531 13.820312 -14.617188 14.8125 -14.296875 C 15.800781 -13.972656 16.71875 -13.539062 17.5625 -13 C 18.414062 -12.457031 19.101562 -11.738281 19.625 -10.84375 C 20.15625 -9.945312 20.421875 -8.816406 20.421875 -7.453125 C 20.421875 -5.660156 19.988281 -4.175781 19.125 -3 C 18.269531 -1.820312 17.132812 -0.941406 15.71875 -0.359375 C 14.3125 0.210938 12.75 0.5 11.03125 0.5 Z M 11.03125 0.5 "/></g></g></g><g fill="#242424" fill-opacity="1"><g transform="translate(92.426828, 269.357267)"><g><path d="M 6.828125 0 L 5.03125 -2.5625 C 4.800781 -2.539062 4.625 -2.53125 4.5 -2.53125 L 2.4375 -2.53125 L 2.4375 0 L 1.25 0 L 1.25 -8.328125 L 4.5 -8.328125 C 5.582031 -8.328125 6.429688 -8.066406 7.046875 -7.546875 C 7.671875 -7.035156 7.984375 -6.328125 7.984375 -5.421875 C 7.984375 -4.785156 7.820312 -4.238281 7.5 -3.78125 C 7.1875 -3.332031 6.734375 -3.003906 6.140625 -2.796875 L 8.125 0 Z M 4.46875 -3.546875 C 5.21875 -3.546875 5.789062 -3.707031 6.1875 -4.03125 C 6.582031 -4.363281 6.78125 -4.828125 6.78125 -5.421875 C 6.78125 -6.023438 6.582031 -6.488281 6.1875 -6.8125 C 5.789062 -7.132812 5.21875 -7.296875 4.46875 -7.296875 L 2.4375 -7.296875 L 2.4375 -3.546875 Z M 4.46875 -3.546875 "/></g></g></g><g fill="#242424" fill-opacity="1"><g transform="translate(103.133885, 269.357267)"><g><path d="M 7.296875 -1.03125 L 7.296875 0 L 1.25 0 L 1.25 -8.328125 L 7.125 -8.328125 L 7.125 -7.296875 L 2.4375 -7.296875 L 2.4375 -4.734375 L 6.625 -4.734375 L 6.625 -3.734375 L 2.4375 -3.734375 L 2.4375 -1.03125 Z M 7.296875 -1.03125 "/></g></g></g><g fill="#242424" fill-opacity="1"><g transform="translate(113.16296, 269.357267)"><g><path d="M 4.984375 0.09375 C 4.148438 0.09375 3.394531 -0.0859375 2.71875 -0.453125 C 2.050781 -0.828125 1.523438 -1.335938 1.140625 -1.984375 C 0.765625 -2.628906 0.578125 -3.359375 0.578125 -4.171875 C 0.578125 -4.972656 0.765625 -5.695312 1.140625 -6.34375 C 1.523438 -7 2.050781 -7.507812 2.71875 -7.875 C 3.394531 -8.238281 4.148438 -8.421875 4.984375 -8.421875 C 5.640625 -8.421875 6.234375 -8.3125 6.765625 -8.09375 C 7.304688 -7.882812 7.769531 -7.5625 8.15625 -7.125 L 7.375 -6.375 C 6.75 -7.039062 5.96875 -7.375 5.03125 -7.375 C 4.414062 -7.375 3.859375 -7.234375 3.359375 -6.953125 C 2.859375 -6.671875 2.46875 -6.285156 2.1875 -5.796875 C 1.90625 -5.316406 1.765625 -4.773438 1.765625 -4.171875 C 1.765625 -3.566406 1.90625 -3.019531 2.1875 -2.53125 C 2.46875 -2.039062 2.859375 -1.65625 3.359375 -1.375 C 3.859375 -1.101562 4.414062 -0.96875 5.03125 -0.96875 C 5.957031 -0.96875 6.738281 -1.300781 7.375 -1.96875 L 8.15625 -1.21875 C 7.769531 -0.789062 7.304688 -0.460938 6.765625 -0.234375 C 6.222656 -0.015625 5.628906 0.09375 4.984375 0.09375 Z M 4.984375 0.09375 "/></g></g></g><g fill="#242424" fill-opacity="1"><g transform="translate(123.822445, 269.357267)"><g><path d="M 6.828125 0 L 5.03125 -2.5625 C 4.800781 -2.539062 4.625 -2.53125 4.5 -2.53125 L 2.4375 -2.53125 L 2.4375 0 L 1.25 0 L 1.25 -8.328125 L 4.5 -8.328125 C 5.582031 -8.328125 6.429688 -8.066406 7.046875 -7.546875 C 7.671875 -7.035156 7.984375 -6.328125 7.984375 -5.421875 C 7.984375 -4.785156 7.820312 -4.238281 7.5 -3.78125 C 7.1875 -3.332031 6.734375 -3.003906 6.140625 -2.796875 L 8.125 0 Z M 4.46875 -3.546875 C 5.21875 -3.546875 5.789062 -3.707031 6.1875 -4.03125 C 6.582031 -4.363281 6.78125 -4.828125 6.78125 -5.421875 C 6.78125 -6.023438 6.582031 -6.488281 6.1875 -6.8125 C 5.789062 -7.132812 5.21875 -7.296875 4.46875 -7.296875 L 2.4375 -7.296875 L 2.4375 -3.546875 Z M 4.46875 -3.546875 "/></g></g></g><g fill="#242424" fill-opacity="1"><g transform="translate(134.529502, 269.357267)"><g><path d="M 4.703125 0.09375 C 3.585938 0.09375 2.71875 -0.222656 2.09375 -0.859375 C 1.476562 -1.492188 1.171875 -2.40625 1.171875 -3.59375 L 1.171875 -8.328125 L 2.375 -8.328125 L 2.375 -3.640625 C 2.375 -1.859375 3.15625 -0.96875 4.71875 -0.96875 C 5.476562 -0.96875 6.0625 -1.1875 6.46875 -1.625 C 6.875 -2.0625 7.078125 -2.734375 7.078125 -3.640625 L 7.078125 -8.328125 L 8.234375 -8.328125 L 8.234375 -3.59375 C 8.234375 -2.394531 7.921875 -1.476562 7.296875 -0.84375 C 6.679688 -0.21875 5.816406 0.09375 4.703125 0.09375 Z M 4.703125 0.09375 "/></g></g></g><g fill="#242424" fill-opacity="1"><g transform="translate(145.997809, 269.357267)"><g><path d="M 1.25 -8.328125 L 2.4375 -8.328125 L 2.4375 0 L 1.25 0 Z M 1.25 -8.328125 "/></g></g></g><g fill="#242424" fill-opacity="1"><g transform="translate(151.744848, 269.357267)"><g><path d="M 2.90625 -7.296875 L 0.046875 -7.296875 L 0.046875 -8.328125 L 6.9375 -8.328125 L 6.9375 -7.296875 L 4.078125 -7.296875 L 4.078125 0 L 2.90625 0 Z M 2.90625 -7.296875 "/></g></g></g><g fill="#242424" fill-opacity="1"><g transform="translate(160.786676, 269.357267)"><g><path d="M 1.25 -8.328125 L 2.4375 -8.328125 L 2.4375 0 L 1.25 0 Z M 1.25 -8.328125 "/></g></g></g><g fill="#242424" fill-opacity="1"><g transform="translate(166.533715, 269.357267)"><g><path d="M 8.421875 -8.328125 L 8.421875 0 L 7.4375 0 L 2.4375 -6.21875 L 2.4375 0 L 1.25 0 L 1.25 -8.328125 L 2.21875 -8.328125 L 7.234375 -2.125 L 7.234375 -8.328125 Z M 8.421875 -8.328125 "/></g></g></g><g fill="#242424" fill-opacity="1"><g transform="translate(178.251812, 269.357267)"><g><path d="M 7.03125 -4.21875 L 8.171875 -4.21875 L 8.171875 -0.96875 C 7.753906 -0.625 7.269531 -0.359375 6.71875 -0.171875 C 6.175781 0.00390625 5.609375 0.09375 5.015625 0.09375 C 4.171875 0.09375 3.410156 -0.0859375 2.734375 -0.453125 C 2.054688 -0.828125 1.523438 -1.335938 1.140625 -1.984375 C 0.765625 -2.628906 0.578125 -3.359375 0.578125 -4.171875 C 0.578125 -4.972656 0.765625 -5.695312 1.140625 -6.34375 C 1.523438 -7 2.054688 -7.507812 2.734375 -7.875 C 3.421875 -8.238281 4.1875 -8.421875 5.03125 -8.421875 C 5.695312 -8.421875 6.300781 -8.3125 6.84375 -8.09375 C 7.394531 -7.882812 7.859375 -7.566406 8.234375 -7.140625 L 7.5 -6.40625 C 6.832031 -7.050781 6.023438 -7.375 5.078125 -7.375 C 4.441406 -7.375 3.875 -7.234375 3.375 -6.953125 C 2.875 -6.679688 2.476562 -6.300781 2.1875 -5.8125 C 1.90625 -5.320312 1.765625 -4.773438 1.765625 -4.171875 C 1.765625 -3.566406 1.90625 -3.019531 2.1875 -2.53125 C 2.476562 -2.039062 2.875 -1.65625 3.375 -1.375 C 3.875 -1.101562 4.441406 -0.96875 5.078125 -0.96875 C 5.816406 -0.96875 6.46875 -1.144531 7.03125 -1.5 Z M 7.03125 -4.21875 "/></g></g></g><g fill="#242424" fill-opacity="1"><g transform="translate(189.494121, 269.357267)"><g/></g></g><g fill="#242424" fill-opacity="1"><g transform="translate(194.753493, 269.357267)"><g><path d="M 3.671875 0.09375 C 3.046875 0.09375 2.441406 0 1.859375 -0.1875 C 1.273438 -0.382812 0.816406 -0.640625 0.484375 -0.953125 L 0.921875 -1.875 C 1.242188 -1.59375 1.648438 -1.363281 2.140625 -1.1875 C 2.640625 -1.007812 3.148438 -0.921875 3.671875 -0.921875 C 4.367188 -0.921875 4.882812 -1.035156 5.21875 -1.265625 C 5.5625 -1.503906 5.734375 -1.816406 5.734375 -2.203125 C 5.734375 -2.484375 5.640625 -2.710938 5.453125 -2.890625 C 5.265625 -3.078125 5.035156 -3.21875 4.765625 -3.3125 C 4.492188 -3.40625 4.109375 -3.507812 3.609375 -3.625 C 2.984375 -3.78125 2.476562 -3.929688 2.09375 -4.078125 C 1.707031 -4.234375 1.375 -4.46875 1.09375 -4.78125 C 0.820312 -5.09375 0.6875 -5.515625 0.6875 -6.046875 C 0.6875 -6.492188 0.800781 -6.894531 1.03125 -7.25 C 1.269531 -7.601562 1.628906 -7.882812 2.109375 -8.09375 C 2.585938 -8.3125 3.175781 -8.421875 3.875 -8.421875 C 4.375 -8.421875 4.859375 -8.359375 5.328125 -8.234375 C 5.804688 -8.109375 6.21875 -7.925781 6.5625 -7.6875 L 6.171875 -6.734375 C 5.816406 -6.960938 5.441406 -7.132812 5.046875 -7.25 C 4.648438 -7.363281 4.257812 -7.421875 3.875 -7.421875 C 3.207031 -7.421875 2.703125 -7.296875 2.359375 -7.046875 C 2.023438 -6.796875 1.859375 -6.476562 1.859375 -6.09375 C 1.859375 -5.8125 1.953125 -5.578125 2.140625 -5.390625 C 2.328125 -5.210938 2.5625 -5.070312 2.84375 -4.96875 C 3.132812 -4.875 3.519531 -4.773438 4 -4.671875 C 4.625 -4.515625 5.125 -4.359375 5.5 -4.203125 C 5.882812 -4.054688 6.210938 -3.828125 6.484375 -3.515625 C 6.765625 -3.210938 6.90625 -2.800781 6.90625 -2.28125 C 6.90625 -1.84375 6.785156 -1.441406 6.546875 -1.078125 C 6.304688 -0.710938 5.941406 -0.425781 5.453125 -0.21875 C 4.972656 -0.0078125 4.378906 0.09375 3.671875 0.09375 Z M 3.671875 0.09375 "/></g></g></g><g fill="#242424" fill-opacity="1"><g transform="translate(204.199732, 269.357267)"><g><path d="M 7.296875 -1.03125 L 7.296875 0 L 1.25 0 L 1.25 -8.328125 L 7.125 -8.328125 L 7.125 -7.296875 L 2.4375 -7.296875 L 2.4375 -4.734375 L 6.625 -4.734375 L 6.625 -3.734375 L 2.4375 -3.734375 L 2.4375 -1.03125 Z M 7.296875 -1.03125 "/></g></g></g><g fill="#242424" fill-opacity="1"><g transform="translate(214.228807, 269.357267)"><g><path d="M 6.828125 0 L 5.03125 -2.5625 C 4.800781 -2.539062 4.625 -2.53125 4.5 -2.53125 L 2.4375 -2.53125 L 2.4375 0 L 1.25 0 L 1.25 -8.328125 L 4.5 -8.328125 C 5.582031 -8.328125 6.429688 -8.066406 7.046875 -7.546875 C 7.671875 -7.035156 7.984375 -6.328125 7.984375 -5.421875 C 7.984375 -4.785156 7.820312 -4.238281 7.5 -3.78125 C 7.1875 -3.332031 6.734375 -3.003906 6.140625 -2.796875 L 8.125 0 Z M 4.46875 -3.546875 C 5.21875 -3.546875 5.789062 -3.707031 6.1875 -4.03125 C 6.582031 -4.363281 6.78125 -4.828125 6.78125 -5.421875 C 6.78125 -6.023438 6.582031 -6.488281 6.1875 -6.8125 C 5.789062 -7.132812 5.21875 -7.296875 4.46875 -7.296875 L 2.4375 -7.296875 L 2.4375 -3.546875 Z M 4.46875 -3.546875 "/></g></g></g><g fill="#242424" fill-opacity="1"><g transform="translate(224.935864, 269.357267)"><g><path d="M 8.484375 -8.328125 L 4.828125 0 L 3.65625 0 L -0.015625 -8.328125 L 1.28125 -8.328125 L 4.28125 -1.484375 L 7.296875 -8.328125 Z M 8.484375 -8.328125 "/></g></g></g><g fill="#242424" fill-opacity="1"><g transform="translate(235.464508, 269.357267)"><g><path d="M 1.25 -8.328125 L 2.4375 -8.328125 L 2.4375 0 L 1.25 0 Z M 1.25 -8.328125 "/></g></g></g><g fill="#242424" fill-opacity="1"><g transform="translate(241.211547, 269.357267)"><g><path d="M 4.984375 0.09375 C 4.148438 0.09375 3.394531 -0.0859375 2.71875 -0.453125 C 2.050781 -0.828125 1.523438 -1.335938 1.140625 -1.984375 C 0.765625 -2.628906 0.578125 -3.359375 0.578125 -4.171875 C 0.578125 -4.972656 0.765625 -5.695312 1.140625 -6.34375 C 1.523438 -7 2.050781 -7.507812 2.71875 -7.875 C 3.394531 -8.238281 4.148438 -8.421875 4.984375 -8.421875 C 5.640625 -8.421875 6.234375 -8.3125 6.765625 -8.09375 C 7.304688 -7.882812 7.769531 -7.5625 8.15625 -7.125 L 7.375 -6.375 C 6.75 -7.039062 5.96875 -7.375 5.03125 -7.375 C 4.414062 -7.375 3.859375 -7.234375 3.359375 -6.953125 C 2.859375 -6.671875 2.46875 -6.285156 2.1875 -5.796875 C 1.90625 -5.316406 1.765625 -4.773438 1.765625 -4.171875 C 1.765625 -3.566406 1.90625 -3.019531 2.1875 -2.53125 C 2.46875 -2.039062 2.859375 -1.65625 3.359375 -1.375 C 3.859375 -1.101562 4.414062 -0.96875 5.03125 -0.96875 C 5.957031 -0.96875 6.738281 -1.300781 7.375 -1.96875 L 8.15625 -1.21875 C 7.769531 -0.789062 7.304688 -0.460938 6.765625 -0.234375 C 6.222656 -0.015625 5.628906 0.09375 4.984375 0.09375 Z M 4.984375 0.09375 "/></g></g></g><g fill="#242424" fill-opacity="1"><g transform="translate(251.871032, 269.357267)"><g><path d="M 7.296875 -1.03125 L 7.296875 0 L 1.25 0 L 1.25 -8.328125 L 7.125 -8.328125 L 7.125 -7.296875 L 2.4375 -7.296875 L 2.4375 -4.734375 L 6.625 -4.734375 L 6.625 -3.734375 L 2.4375 -3.734375 L 2.4375 -1.03125 Z M 7.296875 -1.03125 "/></g></g></g><g fill="#242424" fill-opacity="1"><g transform="translate(261.900106, 269.357267)"><g/></g></g><g fill="#242424" fill-opacity="1"><g transform="translate(267.159479, 269.357267)"><g><path d="M 1.25 -8.328125 L 2.4375 -8.328125 L 2.4375 0 L 1.25 0 Z M 1.25 -8.328125 "/></g></g></g><g fill="#242424" fill-opacity="1"><g transform="translate(272.906518, 269.357267)"><g><path d="M 8.421875 -8.328125 L 8.421875 0 L 7.4375 0 L 2.4375 -6.21875 L 2.4375 0 L 1.25 0 L 1.25 -8.328125 L 2.21875 -8.328125 L 7.234375 -2.125 L 7.234375 -8.328125 Z M 8.421875 -8.328125 "/></g></g></g><g fill="#242424" fill-opacity="1"><g transform="translate(147.926825, 285.857266)"><g><path d="M 2.90625 -7.296875 L 0.046875 -7.296875 L 0.046875 -8.328125 L 6.9375 -8.328125 L 6.9375 -7.296875 L 4.078125 -7.296875 L 4.078125 0 L 2.90625 0 Z M 2.90625 -7.296875 "/></g></g></g><g fill="#242424" fill-opacity="1"><g transform="translate(156.968652, 285.857266)"><g><path d="M 6.828125 0 L 5.03125 -2.5625 C 4.800781 -2.539062 4.625 -2.53125 4.5 -2.53125 L 2.4375 -2.53125 L 2.4375 0 L 1.25 0 L 1.25 -8.328125 L 4.5 -8.328125 C 5.582031 -8.328125 6.429688 -8.066406 7.046875 -7.546875 C 7.671875 -7.035156 7.984375 -6.328125 7.984375 -5.421875 C 7.984375 -4.785156 7.820312 -4.238281 7.5 -3.78125 C 7.1875 -3.332031 6.734375 -3.003906 6.140625 -2.796875 L 8.125 0 Z M 4.46875 -3.546875 C 5.21875 -3.546875 5.789062 -3.707031 6.1875 -4.03125 C 6.582031 -4.363281 6.78125 -4.828125 6.78125 -5.421875 C 6.78125 -6.023438 6.582031 -6.488281 6.1875 -6.8125 C 5.789062 -7.132812 5.21875 -7.296875 4.46875 -7.296875 L 2.4375 -7.296875 L 2.4375 -3.546875 Z M 4.46875 -3.546875 "/></g></g></g><g fill="#242424" fill-opacity="1"><g transform="translate(167.675709, 285.857266)"><g><path d="M 4.703125 0.09375 C 3.585938 0.09375 2.71875 -0.222656 2.09375 -0.859375 C 1.476562 -1.492188 1.171875 -2.40625 1.171875 -3.59375 L 1.171875 -8.328125 L 2.375 -8.328125 L 2.375 -3.640625 C 2.375 -1.859375 3.15625 -0.96875 4.71875 -0.96875 C 5.476562 -0.96875 6.0625 -1.1875 6.46875 -1.625 C 6.875 -2.0625 7.078125 -2.734375 7.078125 -3.640625 L 7.078125 -8.328125 L 8.234375 -8.328125 L 8.234375 -3.59375 C 8.234375 -2.394531 7.921875 -1.476562 7.296875 -0.84375 C 6.679688 -0.21875 5.816406 0.09375 4.703125 0.09375 Z M 4.703125 0.09375 "/></g></g></g><g fill="#242424" fill-opacity="1"><g transform="translate(179.144016, 285.857266)"><g><path d="M 4.984375 0.09375 C 4.148438 0.09375 3.394531 -0.0859375 2.71875 -0.453125 C 2.050781 -0.828125 1.523438 -1.335938 1.140625 -1.984375 C 0.765625 -2.628906 0.578125 -3.359375 0.578125 -4.171875 C 0.578125 -4.972656 0.765625 -5.695312 1.140625 -6.34375 C 1.523438 -7 2.050781 -7.507812 2.71875 -7.875 C 3.394531 -8.238281 4.148438 -8.421875 4.984375 -8.421875 C 5.640625 -8.421875 6.234375 -8.3125 6.765625 -8.09375 C 7.304688 -7.882812 7.769531 -7.5625 8.15625 -7.125 L 7.375 -6.375 C 6.75 -7.039062 5.96875 -7.375 5.03125 -7.375 C 4.414062 -7.375 3.859375 -7.234375 3.359375 -6.953125 C 2.859375 -6.671875 2.46875 -6.285156 2.1875 -5.796875 C 1.90625 -5.316406 1.765625 -4.773438 1.765625 -4.171875 C 1.765625 -3.566406 1.90625 -3.019531 2.1875 -2.53125 C 2.46875 -2.039062 2.859375 -1.65625 3.359375 -1.375 C 3.859375 -1.101562 4.414062 -0.96875 5.03125 -0.96875 C 5.957031 -0.96875 6.738281 -1.300781 7.375 -1.96875 L 8.15625 -1.21875 C 7.769531 -0.789062 7.304688 -0.460938 6.765625 -0.234375 C 6.222656 -0.015625 5.628906 0.09375 4.984375 0.09375 Z M 4.984375 0.09375 "/></g></g></g><g fill="#242424" fill-opacity="1"><g transform="translate(189.8035, 285.857266)"><g><path d="M 3.96875 -3.703125 L 2.4375 -2.15625 L 2.4375 0 L 1.25 0 L 1.25 -8.328125 L 2.4375 -8.328125 L 2.4375 -3.671875 L 6.96875 -8.328125 L 8.328125 -8.328125 L 4.765625 -4.578125 L 8.546875 0 L 7.15625 0 Z M 3.96875 -3.703125 "/></g></g></g><g fill="#242424" fill-opacity="1"><g transform="translate(200.4154, 285.857266)"><g><path d="M 1.25 -8.328125 L 2.4375 -8.328125 L 2.4375 0 L 1.25 0 Z M 1.25 -8.328125 "/></g></g></g><g fill="#242424" fill-opacity="1"><g transform="translate(206.162439, 285.857266)"><g><path d="M 8.421875 -8.328125 L 8.421875 0 L 7.4375 0 L 2.4375 -6.21875 L 2.4375 0 L 1.25 0 L 1.25 -8.328125 L 2.21875 -8.328125 L 7.234375 -2.125 L 7.234375 -8.328125 Z M 8.421875 -8.328125 "/></g></g></g><g fill="#242424" fill-opacity="1"><g transform="translate(217.880536, 285.857266)"><g><path d="M 7.03125 -4.21875 L 8.171875 -4.21875 L 8.171875 -0.96875 C 7.753906 -0.625 7.269531 -0.359375 6.71875 -0.171875 C 6.175781 0.00390625 5.609375 0.09375 5.015625 0.09375 C 4.171875 0.09375 3.410156 -0.0859375 2.734375 -0.453125 C 2.054688 -0.828125 1.523438 -1.335938 1.140625 -1.984375 C 0.765625 -2.628906 0.578125 -3.359375 0.578125 -4.171875 C 0.578125 -4.972656 0.765625 -5.695312 1.140625 -6.34375 C 1.523438 -7 2.054688 -7.507812 2.734375 -7.875 C 3.421875 -8.238281 4.1875 -8.421875 5.03125 -8.421875 C 5.695312 -8.421875 6.300781 -8.3125 6.84375 -8.09375 C 7.394531 -7.882812 7.859375 -7.566406 8.234375 -7.140625 L 7.5 -6.40625 C 6.832031 -7.050781 6.023438 -7.375 5.078125 -7.375 C 4.441406 -7.375 3.875 -7.234375 3.375 -6.953125 C 2.875 -6.679688 2.476562 -6.300781 2.1875 -5.8125 C 1.90625 -5.320312 1.765625 -4.773438 1.765625 -4.171875 C 1.765625 -3.566406 1.90625 -3.019531 2.1875 -2.53125 C 2.476562 -2.039062 2.875 -1.65625 3.375 -1.375 C 3.875 -1.101562 4.441406 -0.96875 5.078125 -0.96875 C 5.816406 -0.96875 6.46875 -1.144531 7.03125 -1.5 Z M 7.03125 -4.21875 "/></g></g></g><g clip-path="url(#0d51db3375)"><path fill="#db1818" d="M 278.414062 211.359375 L 287.183594 211.359375 L 284.902344 206.972656 L 280.753906 206.972656 C 280.203125 208.980469 279.375 210.53125 278.414062 211.359375 Z M 266.078125 211.359375 L 268.164062 211.359375 C 267.789062 211.042969 267.457031 210.609375 267.121094 210.097656 C 266.804688 210.609375 266.453125 211.042969 266.078125 211.359375 Z M 250.441406 211.359375 L 255.851562 211.359375 C 254.886719 210.53125 254.058594 208.980469 253.488281 206.972656 L 252.429688 206.972656 C 251.957031 208.980469 251.269531 210.53125 250.441406 211.359375 Z M 237.953125 211.359375 L 241.785156 211.359375 C 241.019531 210.574219 240.351562 209.136719 239.878906 207.285156 C 239.40625 209.136719 238.738281 210.574219 237.953125 211.359375 Z M 221.332031 211.359375 L 229.296875 211.359375 C 228.46875 210.53125 227.78125 208.980469 227.308594 206.972656 L 223.828125 206.972656 C 223.199219 208.980469 222.332031 210.53125 221.332031 211.359375 Z M 173.199219 211.359375 L 210.296875 211.359375 C 209.273438 210.53125 208.40625 208.980469 207.777344 206.972656 L 176.621094 206.972656 C 175.679688 208.960938 174.496094 210.472656 173.199219 211.359375 Z M 120.425781 211.359375 L 155.28125 211.359375 C 153.980469 210.472656 152.820312 208.960938 151.859375 206.972656 L 123.414062 206.972656 C 122.570312 208.960938 121.566406 210.472656 120.425781 211.359375 Z M 91.078125 211.359375 L 104.769531 211.359375 C 103.628906 210.472656 102.605469 208.960938 101.777344 206.972656 L 94.285156 206.972656 L 91.078125 211.359375 " fill-opacity="1" fill-rule="evenodd"/></g><g clip-path="url(#4414f446fb)"><path fill="#242424" d="M 114.269531 159.546875 L 116.195312 159.546875 L 117.496094 181.539062 L 114.269531 188.699219 Z M 129.0625 159.546875 L 130.96875 159.546875 L 132.285156 181.539062 L 129.0625 188.699219 Z M 121.449219 159.546875 L 123.355469 159.546875 L 124.675781 181.539062 L 121.449219 188.699219 Z M 101.011719 181.441406 L 106.773438 181.441406 L 106.773438 186.730469 L 98.375 186.730469 L 98.375 184.078125 C 98.375 182.621094 99.554688 181.441406 101.011719 181.441406 Z M 170.425781 180.890625 C 172.609375 180.890625 174.378906 186.359375 174.378906 193.085938 C 174.378906 199.832031 172.609375 205.300781 170.425781 205.300781 C 168.242188 205.300781 166.472656 199.832031 166.472656 193.085938 C 166.472656 186.359375 168.242188 180.890625 170.425781 180.890625 Z M 156.34375 198.671875 L 93.105469 198.925781 L 92.042969 204.554688 L 91.15625 204.554688 L 87.792969 194.363281 L 156.441406 194.363281 Z M 150.460938 181.441406 L 160.90625 181.441406 L 160.90625 186.730469 L 147.804688 186.730469 L 147.804688 184.078125 C 147.804688 182.621094 149.003906 181.441406 150.460938 181.441406 Z M 203.292969 196.6875 L 189.035156 196.6875 L 189.425781 201.484375 L 203.292969 201.484375 Z M 263.5625 193.046875 C 264.996094 193.046875 266.15625 196.292969 266.15625 200.304688 C 266.15625 204.316406 264.996094 207.5625 263.5625 207.5625 C 262.125 207.5625 260.964844 204.316406 260.964844 200.304688 C 260.964844 196.292969 262.125 193.046875 263.5625 193.046875 Z M 229.886719 195.445312 L 250.1875 196.625 L 250.1875 202.46875 L 229.886719 202.46875 Z M 218.851562 190.410156 C 220.5625 190.410156 221.941406 194.246094 221.941406 198.984375 C 221.941406 203.726562 220.5625 207.5625 218.851562 207.5625 C 217.160156 207.5625 215.765625 203.726562 215.765625 198.984375 C 215.765625 194.246094 217.160156 190.410156 218.851562 190.410156 Z M 275.796875 193.890625 C 277.210938 193.890625 278.351562 196.960938 278.351562 200.738281 C 278.351562 204.511719 277.210938 207.5625 275.796875 207.5625 C 274.378906 207.5625 273.238281 204.511719 273.238281 200.738281 C 273.238281 196.960938 274.378906 193.890625 275.796875 193.890625 Z M 135.828125 134.941406 L 135.828125 111.222656 L 135.863281 111.023438 C 136.183594 109.015625 137.203125 106.894531 138.875 105.300781 C 140.3125 103.902344 142.238281 102.898438 144.597656 102.664062 L 144.992188 106.773438 C 143.65625 106.894531 142.554688 107.484375 141.726562 108.269531 C 140.785156 109.175781 140.191406 110.355469 139.976562 111.476562 L 139.976562 126.878906 Z M 183.703125 152.191406 L 186.4375 152.191406 C 187.636719 152.191406 188.640625 153.175781 188.640625 154.394531 L 188.640625 161.671875 L 191.765625 162.519531 L 193.972656 182.050781 L 193.972656 163.109375 L 193.988281 163.128906 L 193.792969 142.21875 L 182.5625 139.171875 L 177.703125 158.722656 L 181.480469 159.746094 L 181.480469 154.394531 C 181.480469 153.175781 182.484375 152.191406 183.703125 152.191406 Z M 180.496094 133.328125 L 194.089844 118.929688 L 155.695312 121.234375 L 144.070312 131.597656 L 155.554688 117.398438 L 203.488281 114.722656 L 203.488281 188.503906 L 178.941406 188.503906 C 177.898438 180.695312 174.539062 174.96875 170.542969 174.96875 L 148.691406 174.96875 C 144.835938 176.40625 141.375 179.238281 138.640625 184.707031 L 138.640625 155.851562 C 129.097656 153.15625 118.378906 152.996094 108.820312 155.851562 L 108.820312 178.390625 L 97.804688 178.390625 C 93.714844 180.652344 91.804688 184.46875 89.996094 188.582031 C 91.375 183.742188 93.085938 177.859375 97.492188 174.96875 L 106.125 174.96875 L 106.125 154.199219 C 114.957031 148.59375 129.730469 147.273438 139.523438 149.339844 L 172.886719 156.382812 L 177.683594 138.425781 L 145.503906 138.425781 C 144.5 138.40625 143.734375 138.738281 143.242188 139.464844 L 140.785156 146.25 L 138.226562 145.699219 C 137.929688 145.640625 137.617188 145.582031 137.320312 145.523438 C 138.460938 142.21875 139.601562 138.894531 140.742188 135.59375 C 141.257812 134.6875 142.160156 134.15625 143.871094 134.292969 L 180.496094 133.328125 " fill-opacity="1" fill-rule="evenodd"/></g><path fill="#db1818" d="M 150.34375 110.609375 L 150.105469 118.8125 L 153.332031 114.269531 L 210.414062 110.808594 L 210.414062 184 L 283.074219 189.113281 L 283.074219 183.878906 L 215.980469 176.070312 L 215.980469 165.726562 L 283.074219 179.140625 L 283.074219 173.101562 L 215.980469 156.164062 L 215.980469 147.570312 L 283.074219 169.167969 L 283.074219 162.480469 L 215.980469 133.566406 L 215.980469 128.3125 L 283.074219 159.195312 L 283.074219 151.464844 L 209.863281 105.792969 L 150.34375 110.609375 " fill-opacity="1" fill-rule="evenodd"/></svg>