<svg xmlns="http://www.w3.org/2000/svg" xmlns:xlink="http://www.w3.org/1999/xlink" width="500" zoomAndPan="magnify" viewBox="0 0 375 374.999991" height="500" preserveAspectRatio="xMidYMid meet" version="1.0"><defs><g/><clipPath id="e8dc410845"><path d="M 78.566406 129.808594 L 296 129.808594 L 296 198.058594 L 78.566406 198.058594 Z M 78.566406 129.808594 " clip-rule="nonzero"/></clipPath></defs><g clip-path="url(#e8dc410845)"><path fill="#000000" d="M 249.164062 164.621094 L 253.003906 164.621094 L 251.292969 165.136719 L 249.738281 165.136719 C 248.273438 165.136719 247.078125 166.332031 247.078125 167.796875 L 247.078125 175.429688 C 247.078125 176.894531 248.273438 178.089844 249.738281 178.089844 L 250.785156 178.089844 L 253.007812 178.605469 L 249.167969 178.605469 C 247.589844 178.605469 246.296875 177.316406 246.296875 175.734375 L 246.296875 167.492188 C 246.292969 165.910156 247.585938 164.621094 249.164062 164.621094 M 251.632812 169.4375 C 252.632812 169.4375 253.441406 170.46875 253.441406 171.75 C 253.441406 172.617188 253.066406 173.375 252.511719 173.769531 L 252.496094 173.894531 C 252.484375 174.015625 252.492188 174.144531 252.550781 174.253906 C 252.859375 174.808594 254.367188 174.617188 254.851562 174.550781 L 255.066406 174.523438 L 255.125 174.945312 L 254.910156 174.972656 C 254.179688 175.078125 252.617188 175.261719 252.175781 174.464844 C 252.09375 174.316406 252.0625 174.15625 252.0625 173.996094 C 251.921875 174.039062 251.773438 174.0625 251.625 174.0625 C 250.625 174.0625 249.8125 173.027344 249.8125 171.75 C 249.8125 171.382812 249.878906 171.035156 250 170.726562 C 250.1875 171.269531 250.429688 171.773438 250.746094 172.242188 C 250.675781 171.457031 250.546875 170.6875 250.5625 169.875 C 250.871094 169.597656 251.234375 169.4375 251.632812 169.4375 Z M 259.664062 166.265625 L 271.566406 166.265625 L 274.726562 173.972656 L 273.527344 175.613281 L 265.390625 175.582031 L 263.933594 173.972656 L 257.707031 174.027344 Z M 257.082031 161.195312 C 254.890625 161.195312 252.695312 161.195312 250.503906 161.195312 C 247.886719 154.328125 239.847656 151.597656 233.832031 150.648438 C 242.066406 150.554688 251.855469 153.320312 257.082031 161.195312 Z M 293.679688 179.375 C 287.957031 176.414062 282.324219 175.363281 276.734375 175.28125 C 282.902344 176.445312 288.65625 178.230469 293.679688 181.132812 C 293.679688 180.546875 293.679688 179.964844 293.679688 179.375 Z M 293.28125 186.429688 L 287.378906 186.429688 C 281.886719 182.203125 272.96875 183.492188 269.582031 188.863281 L 268.375 188.660156 C 272.882812 179.894531 285.765625 180.390625 293.28125 186.429688 Z M 220.347656 150.953125 L 221.652344 150.953125 C 223.585938 141.804688 222.898438 135.777344 218.539062 134.128906 C 218.820312 132.691406 219.109375 131.25 219.390625 129.808594 C 227.101562 132.964844 228.421875 140.695312 226.21875 150.953125 L 227.070312 150.953125 L 222.996094 187.035156 L 215.417969 187.035156 Z M 78.664062 196.238281 C 143.871094 197.105469 208.097656 198.058594 273.140625 198.058594 C 274.273438 191.398438 281.425781 188.0625 287.101562 194.140625 C 282.769531 186.46875 273.71875 189.265625 271.25 195.273438 C 207.035156 195.273438 142.882812 195.742188 78.664062 196.238281 Z M 276.285156 173.097656 C 274.96875 170.476562 273.648438 167.855469 272.328125 165.234375 C 272.644531 164.960938 272.964844 164.6875 273.28125 164.414062 C 270.128906 161.875 264.628906 161.320312 259.609375 160.359375 C 251.523438 149.925781 242.167969 148.109375 229.707031 148.109375 L 228.5625 163.023438 L 226.789062 163.023438 L 224.941406 187.027344 L 251 187.027344 L 249.84375 188.65625 L 214.570312 188.65625 L 213.914062 194.019531 L 270.472656 194.019531 C 271.875 190.34375 275.433594 187.734375 279.597656 187.734375 C 284.992188 187.734375 289.363281 192.105469 289.363281 197.5 C 289.363281 197.6875 289.355469 197.871094 289.351562 198.054688 C 292.042969 198.054688 295.96875 195.1875 295.96875 192.449219 C 295.96875 188.484375 295.96875 184.519531 295.96875 180.558594 C 295.96875 175.78125 280.015625 173.566406 276.285156 173.097656 Z M 276.285156 173.097656 " fill-opacity="1" fill-rule="evenodd"/></g><path fill="#000000" d="M 208.585938 190.523438 L 213.949219 148.171875 L 218.207031 148.171875 L 212.835938 190.601562 Z M 208.585938 190.523438 " fill-opacity="1" fill-rule="evenodd"/><path fill="#000000" d="M 214.859375 148.171875 L 83.566406 151.925781 L 215.113281 152.523438 Z M 214.859375 148.171875 " fill-opacity="1" fill-rule="evenodd"/><path fill="#000000" d="M 215.328125 156.175781 L 119.570312 157.058594 L 215.582031 160.523438 Z M 215.328125 156.175781 " fill-opacity="1" fill-rule="evenodd"/><path fill="#000000" d="M 211.09375 186.222656 L 141.09375 189.425781 L 211.347656 190.570312 Z M 211.09375 186.222656 " fill-opacity="1" fill-rule="evenodd"/><g fill="#000000" fill-opacity="1"><g transform="translate(89.218732, 229.440872)"><g><path d="M 2.203125 -20.734375 L 7.46875 -20.734375 C 10.445312 -20.734375 12.421875 -20.234375 13.390625 -19.234375 C 14.367188 -18.234375 14.859375 -17.03125 14.859375 -15.625 C 14.859375 -14.6875 14.648438 -13.796875 14.234375 -12.953125 C 13.828125 -12.117188 13.171875 -11.492188 12.265625 -11.078125 C 13.597656 -10.742188 14.578125 -10.148438 15.203125 -9.296875 C 15.835938 -8.453125 16.15625 -7.457031 16.15625 -6.3125 C 16.15625 -5.113281 15.96875 -4.0625 15.59375 -3.15625 C 15.21875 -2.257812 14.4375 -1.507812 13.25 -0.90625 C 12.070312 -0.300781 10.363281 0 8.125 0 L 2.203125 0 Z M 7.984375 -11.9375 C 9.316406 -11.9375 10.265625 -12.257812 10.828125 -12.90625 C 11.390625 -13.550781 11.671875 -14.375 11.671875 -15.375 C 11.671875 -17.15625 10.394531 -18.046875 7.84375 -18.046875 L 5.296875 -18.046875 L 5.296875 -11.9375 Z M 8.546875 -2.65625 C 10.253906 -2.65625 11.40625 -2.992188 12 -3.671875 C 12.59375 -4.359375 12.890625 -5.234375 12.890625 -6.296875 C 12.890625 -7.285156 12.550781 -8.050781 11.875 -8.59375 C 11.195312 -9.144531 10.171875 -9.421875 8.796875 -9.421875 L 5.296875 -9.421875 L 5.296875 -2.65625 Z M 8.546875 -2.65625 "/></g></g></g><g fill="#000000" fill-opacity="1"><g transform="translate(107.094199, 229.440872)"><g><path d="M 12.546875 0 L 8.375 -7.84375 C 7.507812 -7.800781 6.738281 -7.78125 6.0625 -7.78125 L 5.28125 -7.78125 L 5.28125 0 L 2.203125 0 L 2.203125 -20.734375 L 6.90625 -20.734375 C 9.289062 -20.734375 11.253906 -20.238281 12.796875 -19.25 C 14.335938 -18.257812 15.109375 -16.65625 15.109375 -14.4375 C 15.109375 -13.050781 14.785156 -11.851562 14.140625 -10.84375 C 13.492188 -9.832031 12.53125 -9.054688 11.25 -8.515625 L 16.1875 0 Z M 7.28125 -10.34375 C 9.125 -10.34375 10.382812 -10.742188 11.0625 -11.546875 C 11.75 -12.347656 12.09375 -13.300781 12.09375 -14.40625 C 12.09375 -16.875 10.445312 -18.109375 7.15625 -18.109375 L 5.28125 -18.109375 L 5.28125 -10.34375 Z M 7.28125 -10.34375 "/></g></g></g><g fill="#000000" fill-opacity="1"><g transform="translate(124.518548, 229.440872)"><g><path d="M 6.140625 -17.96875 L 0.84375 -17.96875 L 0.84375 -20.734375 L 14.640625 -20.734375 L 14.640625 -17.96875 L 9.28125 -17.96875 L 9.28125 0 L 6.140625 0 Z M 6.140625 -17.96875 "/></g></g></g><g fill="#000000" fill-opacity="1"><g transform="translate(140.223019, 229.440872)"><g/></g></g><g fill="#000000" fill-opacity="1"><g transform="translate(147.356348, 229.440872)"><g><path d="M 2.203125 -20.734375 L 5.390625 -20.734375 L 5.390625 -2.8125 L 11.34375 -2.8125 L 11.34375 0 L 2.203125 0 Z M 2.203125 -20.734375 "/></g></g></g><g fill="#000000" fill-opacity="1"><g transform="translate(159.762063, 229.440872)"><g><path d="M 11.734375 0.28125 C 9.847656 0.28125 8.109375 -0.15625 6.515625 -1.03125 C 4.929688 -1.90625 3.671875 -3.148438 2.734375 -4.765625 C 1.796875 -6.378906 1.328125 -8.257812 1.328125 -10.40625 C 1.328125 -12.570312 1.796875 -14.457031 2.734375 -16.0625 C 3.671875 -17.664062 4.929688 -18.898438 6.515625 -19.765625 C 8.109375 -20.628906 9.847656 -21.0625 11.734375 -21.0625 C 13.609375 -21.0625 15.335938 -20.628906 16.921875 -19.765625 C 18.515625 -18.898438 19.78125 -17.664062 20.71875 -16.0625 C 21.664062 -14.457031 22.140625 -12.570312 22.140625 -10.40625 C 22.140625 -8.257812 21.664062 -6.378906 20.71875 -4.765625 C 19.78125 -3.148438 18.515625 -1.90625 16.921875 -1.03125 C 15.335938 -0.15625 13.609375 0.28125 11.734375 0.28125 Z M 11.734375 -2.5625 C 13.023438 -2.5625 14.207031 -2.867188 15.28125 -3.484375 C 16.351562 -4.097656 17.203125 -4.988281 17.828125 -6.15625 C 18.460938 -7.332031 18.78125 -8.738281 18.78125 -10.375 C 18.78125 -12.03125 18.460938 -13.445312 17.828125 -14.625 C 17.203125 -15.800781 16.359375 -16.6875 15.296875 -17.28125 C 14.234375 -17.882812 13.046875 -18.1875 11.734375 -18.1875 C 10.421875 -18.1875 9.226562 -17.882812 8.15625 -17.28125 C 7.082031 -16.6875 6.234375 -15.800781 5.609375 -14.625 C 4.992188 -13.445312 4.6875 -12.03125 4.6875 -10.375 C 4.6875 -8.738281 5.003906 -7.332031 5.640625 -6.15625 C 6.273438 -4.988281 7.132812 -4.097656 8.21875 -3.484375 C 9.300781 -2.867188 10.472656 -2.5625 11.734375 -2.5625 Z M 11.734375 -2.5625 "/></g></g></g><g fill="#000000" fill-opacity="1"><g transform="translate(183.445612, 229.440872)"><g><path d="M 11.875 0.28125 C 9.820312 0.28125 7.988281 -0.1875 6.375 -1.125 C 4.757812 -2.0625 3.492188 -3.351562 2.578125 -5 C 1.671875 -6.644531 1.21875 -8.492188 1.21875 -10.546875 C 1.21875 -12.535156 1.675781 -14.328125 2.59375 -15.921875 C 3.519531 -17.523438 4.800781 -18.78125 6.4375 -19.6875 C 8.070312 -20.59375 9.910156 -21.046875 11.953125 -21.046875 C 13.066406 -21.046875 14.066406 -20.945312 14.953125 -20.75 C 15.847656 -20.550781 16.578125 -20.320312 17.140625 -20.0625 C 17.710938 -19.8125 18.097656 -19.59375 18.296875 -19.40625 L 17.0625 -16.75 C 15.894531 -17.6875 14.175781 -18.15625 11.90625 -18.15625 C 10.394531 -18.15625 9.082031 -17.828125 7.96875 -17.171875 C 6.863281 -16.515625 6.019531 -15.617188 5.4375 -14.484375 C 4.851562 -13.359375 4.5625 -12.101562 4.5625 -10.71875 C 4.5625 -9.132812 4.875 -7.722656 5.5 -6.484375 C 6.132812 -5.242188 7.007812 -4.28125 8.125 -3.59375 C 9.25 -2.90625 10.519531 -2.5625 11.9375 -2.5625 C 12.8125 -2.5625 13.65625 -2.671875 14.46875 -2.890625 C 15.28125 -3.109375 15.96875 -3.453125 16.53125 -3.921875 L 16.53125 -7.921875 L 12.265625 -7.921875 L 12.265625 -10.828125 L 19.65625 -10.828125 L 19.65625 -2.703125 C 18.976562 -1.859375 17.957031 -1.148438 16.59375 -0.578125 C 15.226562 -0.00390625 13.65625 0.28125 11.875 0.28125 Z M 11.875 0.28125 "/></g></g></g><g fill="#000000" fill-opacity="1"><g transform="translate(204.64804, 229.440872)"><g><path d="M 2.5625 -20.734375 L 5.71875 -20.734375 L 5.71875 0 L 2.5625 0 Z M 2.5625 -20.734375 "/></g></g></g><g fill="#000000" fill-opacity="1"><g transform="translate(213.162903, 229.440872)"><g><path d="M 6.96875 0.28125 C 5.84375 0.28125 4.722656 0.0820312 3.609375 -0.3125 C 2.503906 -0.707031 1.707031 -1.148438 1.21875 -1.640625 L 2.703125 -4.3125 C 3.097656 -3.957031 3.710938 -3.585938 4.546875 -3.203125 C 5.390625 -2.816406 6.195312 -2.625 6.96875 -2.625 C 7.957031 -2.625 8.765625 -2.859375 9.390625 -3.328125 C 10.023438 -3.796875 10.34375 -4.445312 10.34375 -5.28125 C 10.34375 -5.914062 10.171875 -6.46875 9.828125 -6.9375 C 9.492188 -7.40625 9.082031 -7.796875 8.59375 -8.109375 C 8.113281 -8.421875 7.421875 -8.800781 6.515625 -9.25 C 5.441406 -9.78125 4.707031 -10.175781 4.3125 -10.4375 C 2.488281 -11.65625 1.578125 -13.347656 1.578125 -15.515625 C 1.578125 -17.296875 2.171875 -18.660156 3.359375 -19.609375 C 4.546875 -20.566406 6.039062 -21.046875 7.84375 -21.046875 C 9.78125 -21.046875 11.425781 -20.488281 12.78125 -19.375 L 11.28125 -16.8125 C 10.925781 -17.1875 10.421875 -17.507812 9.765625 -17.78125 C 9.117188 -18.050781 8.429688 -18.1875 7.703125 -18.1875 C 6.765625 -18.1875 6.023438 -17.972656 5.484375 -17.546875 C 4.953125 -17.128906 4.6875 -16.507812 4.6875 -15.6875 C 4.6875 -15.101562 4.851562 -14.578125 5.1875 -14.109375 C 5.53125 -13.648438 5.957031 -13.25 6.46875 -12.90625 C 6.988281 -12.570312 7.691406 -12.160156 8.578125 -11.671875 C 9.421875 -11.203125 10.066406 -10.832031 10.515625 -10.5625 C 10.972656 -10.289062 11.394531 -9.96875 11.78125 -9.59375 C 12.332031 -9.101562 12.773438 -8.519531 13.109375 -7.84375 C 13.453125 -7.164062 13.625 -6.421875 13.625 -5.609375 C 13.625 -4.347656 13.335938 -3.273438 12.765625 -2.390625 C 12.191406 -1.515625 11.398438 -0.847656 10.390625 -0.390625 C 9.390625 0.0546875 8.25 0.28125 6.96875 0.28125 Z M 6.96875 0.28125 "/></g></g></g><g fill="#000000" fill-opacity="1"><g transform="translate(228.190711, 229.440872)"><g><path d="M 6.140625 -17.96875 L 0.84375 -17.96875 L 0.84375 -20.734375 L 14.640625 -20.734375 L 14.640625 -17.96875 L 9.28125 -17.96875 L 9.28125 0 L 6.140625 0 Z M 6.140625 -17.96875 "/></g></g></g><g fill="#000000" fill-opacity="1"><g transform="translate(243.895186, 229.440872)"><g><path d="M 2.5625 -20.734375 L 5.71875 -20.734375 L 5.71875 0 L 2.5625 0 Z M 2.5625 -20.734375 "/></g></g></g><g fill="#000000" fill-opacity="1"><g transform="translate(252.410039, 229.440872)"><g><path d="M 11.625 0.203125 C 9.476562 0.203125 7.617188 -0.273438 6.046875 -1.234375 C 4.472656 -2.191406 3.273438 -3.472656 2.453125 -5.078125 C 1.628906 -6.691406 1.21875 -8.46875 1.21875 -10.40625 C 1.21875 -12.457031 1.660156 -14.289062 2.546875 -15.90625 C 3.441406 -17.519531 4.695312 -18.78125 6.3125 -19.6875 C 7.9375 -20.601562 9.769531 -21.0625 11.8125 -21.0625 C 12.738281 -21.0625 13.597656 -20.960938 14.390625 -20.765625 C 15.191406 -20.566406 15.851562 -20.34375 16.375 -20.09375 C 16.90625 -19.84375 17.253906 -19.628906 17.421875 -19.453125 L 16.046875 -16.640625 C 14.898438 -17.648438 13.40625 -18.15625 11.5625 -18.15625 C 10.269531 -18.15625 9.09375 -17.835938 8.03125 -17.203125 C 6.976562 -16.566406 6.148438 -15.65625 5.546875 -14.46875 C 4.953125 -13.28125 4.65625 -11.90625 4.65625 -10.34375 C 4.65625 -8.914062 4.921875 -7.617188 5.453125 -6.453125 C 5.992188 -5.285156 6.78125 -4.363281 7.8125 -3.6875 C 8.84375 -3.007812 10.070312 -2.671875 11.5 -2.671875 C 13.15625 -2.671875 14.753906 -3.144531 16.296875 -4.09375 L 17.234375 -1.40625 C 16.816406 -1.03125 16.054688 -0.664062 14.953125 -0.3125 C 13.859375 0.03125 12.75 0.203125 11.625 0.203125 Z M 11.625 0.203125 "/></g></g></g><g fill="#000000" fill-opacity="1"><g transform="translate(270.933978, 229.440872)"><g><path d="M 6.96875 0.28125 C 5.84375 0.28125 4.722656 0.0820312 3.609375 -0.3125 C 2.503906 -0.707031 1.707031 -1.148438 1.21875 -1.640625 L 2.703125 -4.3125 C 3.097656 -3.957031 3.710938 -3.585938 4.546875 -3.203125 C 5.390625 -2.816406 6.195312 -2.625 6.96875 -2.625 C 7.957031 -2.625 8.765625 -2.859375 9.390625 -3.328125 C 10.023438 -3.796875 10.34375 -4.445312 10.34375 -5.28125 C 10.34375 -5.914062 10.171875 -6.46875 9.828125 -6.9375 C 9.492188 -7.40625 9.082031 -7.796875 8.59375 -8.109375 C 8.113281 -8.421875 7.421875 -8.800781 6.515625 -9.25 C 5.441406 -9.78125 4.707031 -10.175781 4.3125 -10.4375 C 2.488281 -11.65625 1.578125 -13.347656 1.578125 -15.515625 C 1.578125 -17.296875 2.171875 -18.660156 3.359375 -19.609375 C 4.546875 -20.566406 6.039062 -21.046875 7.84375 -21.046875 C 9.78125 -21.046875 11.425781 -20.488281 12.78125 -19.375 L 11.28125 -16.8125 C 10.925781 -17.1875 10.421875 -17.507812 9.765625 -17.78125 C 9.117188 -18.050781 8.429688 -18.1875 7.703125 -18.1875 C 6.765625 -18.1875 6.023438 -17.972656 5.484375 -17.546875 C 4.953125 -17.128906 4.6875 -16.507812 4.6875 -15.6875 C 4.6875 -15.101562 4.851562 -14.578125 5.1875 -14.109375 C 5.53125 -13.648438 5.957031 -13.25 6.46875 -12.90625 C 6.988281 -12.570312 7.691406 -12.160156 8.578125 -11.671875 C 9.421875 -11.203125 10.066406 -10.832031 10.515625 -10.5625 C 10.972656 -10.289062 11.394531 -9.96875 11.78125 -9.59375 C 12.332031 -9.101562 12.773438 -8.519531 13.109375 -7.84375 C 13.453125 -7.164062 13.625 -6.421875 13.625 -5.609375 C 13.625 -4.347656 13.335938 -3.273438 12.765625 -2.390625 C 12.191406 -1.515625 11.398438 -0.847656 10.390625 -0.390625 C 9.390625 0.0546875 8.25 0.28125 6.96875 0.28125 Z M 6.96875 0.28125 "/></g></g></g><g fill="#000000" fill-opacity="1"><g transform="translate(74.828972, 243.161293)"><g><path d="M 6.765625 -4.203125 C 6.765625 -3.921875 6.707031 -3.660156 6.59375 -3.421875 C 6.476562 -3.179688 6.3125 -2.96875 6.09375 -2.78125 C 5.882812 -2.601562 5.648438 -2.46875 5.390625 -2.375 L 7.109375 0.015625 L 5.9375 0 L 4.328125 -2.25 L 2.375 -2.25 L 2.375 0 L 1.4375 0 L 1.4375 -6.09375 L 4.796875 -6.09375 C 5.148438 -6.09375 5.472656 -6.007812 5.765625 -5.84375 C 6.066406 -5.675781 6.304688 -5.453125 6.484375 -5.171875 C 6.671875 -4.890625 6.765625 -4.566406 6.765625 -4.203125 Z M 4.5625 -5.1875 L 2.375 -5.1875 L 2.375 -3.15625 L 4.609375 -3.15625 C 4.828125 -3.15625 5.023438 -3.203125 5.203125 -3.296875 C 5.378906 -3.398438 5.519531 -3.53125 5.625 -3.6875 C 5.726562 -3.84375 5.78125 -4.019531 5.78125 -4.21875 C 5.78125 -4.394531 5.722656 -4.554688 5.609375 -4.703125 C 5.503906 -4.859375 5.359375 -4.976562 5.171875 -5.0625 C 4.984375 -5.144531 4.78125 -5.1875 4.5625 -5.1875 Z M 4.5625 -5.1875 "/></g></g></g><g fill="#000000" fill-opacity="1"><g transform="translate(83.076632, 243.161293)"><g><path d="M 1.4375 -6.09375 L 6.25 -6.09375 L 6.25 -5.1875 L 2.375 -5.1875 L 2.375 -3.578125 L 5.765625 -3.578125 L 5.765625 -2.671875 L 2.375 -2.671875 L 2.375 -0.90625 L 6.25 -0.90625 L 6.25 0 L 1.4375 0 Z M 1.4375 -6.09375 "/></g></g></g><g fill="#000000" fill-opacity="1"><g transform="translate(90.567388, 243.161293)"><g><path d="M 7.015625 -0.875 C 6.859375 -0.738281 6.644531 -0.59375 6.375 -0.4375 C 6.113281 -0.289062 5.8125 -0.164062 5.46875 -0.0625 C 5.125 0.0390625 4.757812 0.09375 4.375 0.09375 C 3.894531 0.09375 3.445312 0.0195312 3.03125 -0.125 C 2.625 -0.28125 2.265625 -0.492188 1.953125 -0.765625 C 1.648438 -1.035156 1.410156 -1.363281 1.234375 -1.75 C 1.054688 -2.132812 0.96875 -2.566406 0.96875 -3.046875 C 0.96875 -3.492188 1.054688 -3.90625 1.234375 -4.28125 C 1.421875 -4.65625 1.671875 -4.984375 1.984375 -5.265625 C 2.304688 -5.546875 2.671875 -5.757812 3.078125 -5.90625 C 3.492188 -6.0625 3.929688 -6.140625 4.390625 -6.140625 C 4.765625 -6.140625 5.125 -6.085938 5.46875 -5.984375 C 5.820312 -5.890625 6.132812 -5.765625 6.40625 -5.609375 C 6.6875 -5.453125 6.910156 -5.289062 7.078125 -5.125 L 6.5 -4.359375 C 6.207031 -4.597656 5.878906 -4.800781 5.515625 -4.96875 C 5.160156 -5.132812 4.757812 -5.21875 4.3125 -5.21875 C 4.007812 -5.21875 3.71875 -5.164062 3.4375 -5.0625 C 3.15625 -4.96875 2.898438 -4.828125 2.671875 -4.640625 C 2.441406 -4.453125 2.257812 -4.222656 2.125 -3.953125 C 2 -3.679688 1.9375 -3.378906 1.9375 -3.046875 C 1.9375 -2.679688 2.003906 -2.359375 2.140625 -2.078125 C 2.273438 -1.804688 2.460938 -1.578125 2.703125 -1.390625 C 2.941406 -1.203125 3.210938 -1.0625 3.515625 -0.96875 C 3.816406 -0.875 4.128906 -0.828125 4.453125 -0.828125 C 4.773438 -0.828125 5.0625 -0.867188 5.3125 -0.953125 C 5.570312 -1.046875 5.800781 -1.15625 6 -1.28125 C 6.207031 -1.40625 6.394531 -1.53125 6.5625 -1.65625 Z M 7.015625 -0.875 "/></g></g></g><g fill="#000000" fill-opacity="1"><g transform="translate(98.580144, 243.161293)"><g><path d="M 6.765625 -4.203125 C 6.765625 -3.921875 6.707031 -3.660156 6.59375 -3.421875 C 6.476562 -3.179688 6.3125 -2.96875 6.09375 -2.78125 C 5.882812 -2.601562 5.648438 -2.46875 5.390625 -2.375 L 7.109375 0.015625 L 5.9375 0 L 4.328125 -2.25 L 2.375 -2.25 L 2.375 0 L 1.4375 0 L 1.4375 -6.09375 L 4.796875 -6.09375 C 5.148438 -6.09375 5.472656 -6.007812 5.765625 -5.84375 C 6.066406 -5.675781 6.304688 -5.453125 6.484375 -5.171875 C 6.671875 -4.890625 6.765625 -4.566406 6.765625 -4.203125 Z M 4.5625 -5.1875 L 2.375 -5.1875 L 2.375 -3.15625 L 4.609375 -3.15625 C 4.828125 -3.15625 5.023438 -3.203125 5.203125 -3.296875 C 5.378906 -3.398438 5.519531 -3.53125 5.625 -3.6875 C 5.726562 -3.84375 5.78125 -4.019531 5.78125 -4.21875 C 5.78125 -4.394531 5.722656 -4.554688 5.609375 -4.703125 C 5.503906 -4.859375 5.359375 -4.976562 5.171875 -5.0625 C 4.984375 -5.144531 4.78125 -5.1875 4.5625 -5.1875 Z M 4.5625 -5.1875 "/></g></g></g><g fill="#000000" fill-opacity="1"><g transform="translate(106.827803, 243.161293)"><g><path d="M 7.21875 -6.09375 L 7.21875 -2.796875 C 7.21875 -2.242188 7.09375 -1.753906 6.84375 -1.328125 C 6.601562 -0.898438 6.257812 -0.5625 5.8125 -0.3125 C 5.375 -0.0703125 4.863281 0.046875 4.28125 0.046875 C 3.6875 0.046875 3.171875 -0.0703125 2.734375 -0.3125 C 2.296875 -0.5625 1.953125 -0.898438 1.703125 -1.328125 C 1.460938 -1.753906 1.34375 -2.242188 1.34375 -2.796875 L 1.34375 -6.09375 L 2.28125 -6.09375 L 2.28125 -2.84375 C 2.28125 -2.457031 2.367188 -2.113281 2.546875 -1.8125 C 2.722656 -1.507812 2.960938 -1.273438 3.265625 -1.109375 C 3.566406 -0.941406 3.90625 -0.859375 4.28125 -0.859375 C 4.664062 -0.859375 5.007812 -0.941406 5.3125 -1.109375 C 5.625 -1.273438 5.867188 -1.507812 6.046875 -1.8125 C 6.234375 -2.113281 6.328125 -2.457031 6.328125 -2.84375 L 6.328125 -6.09375 Z M 7.21875 -6.09375 "/></g></g></g><g fill="#000000" fill-opacity="1"><g transform="translate(115.379962, 243.161293)"><g><path d="M 5.328125 0 L 1.4375 0 L 1.4375 -0.921875 L 2.921875 -0.921875 L 2.921875 -5.171875 L 1.4375 -5.171875 L 1.4375 -6.09375 L 5.328125 -6.09375 L 5.328125 -5.171875 L 3.859375 -5.171875 L 3.859375 -0.921875 L 5.328125 -0.921875 Z M 5.328125 0 "/></g></g></g><g fill="#000000" fill-opacity="1"><g transform="translate(122.157311, 243.161293)"><g><path d="M 2.953125 0 L 2.953125 -5.1875 L 0.75 -5.1875 L 0.75 -6.09375 L 6.140625 -6.09375 L 6.140625 -5.1875 L 3.890625 -5.1875 L 3.890625 0 Z M 2.953125 0 "/></g></g></g><g fill="#000000" fill-opacity="1"><g transform="translate(129.047764, 243.161293)"><g><path d="M 5.328125 0 L 1.4375 0 L 1.4375 -0.921875 L 2.921875 -0.921875 L 2.921875 -5.171875 L 1.4375 -5.171875 L 1.4375 -6.09375 L 5.328125 -6.09375 L 5.328125 -5.171875 L 3.859375 -5.171875 L 3.859375 -0.921875 L 5.328125 -0.921875 Z M 5.328125 0 "/></g></g></g><g fill="#000000" fill-opacity="1"><g transform="translate(135.825113, 243.161293)"><g><path d="M 6.8125 -6.09375 L 7.75 -6.09375 L 7.75 0 L 6.8125 0 L 2.21875 -4.765625 C 2.25 -4.390625 2.28125 -4.015625 2.3125 -3.640625 C 2.351562 -3.273438 2.375 -2.90625 2.375 -2.53125 L 2.375 0 L 1.4375 0 L 1.4375 -6.09375 L 2.34375 -6.09375 L 6.953125 -1.203125 C 6.910156 -1.492188 6.878906 -1.804688 6.859375 -2.140625 C 6.835938 -2.472656 6.820312 -2.804688 6.8125 -3.140625 C 6.8125 -3.472656 6.8125 -3.789062 6.8125 -4.09375 Z M 6.8125 -6.09375 "/></g></g></g><g fill="#000000" fill-opacity="1"><g transform="translate(145.003681, 243.161293)"><g><path d="M 4.609375 -6.140625 C 5.023438 -6.140625 5.414062 -6.085938 5.78125 -5.984375 C 6.144531 -5.890625 6.460938 -5.765625 6.734375 -5.609375 C 7.003906 -5.453125 7.21875 -5.285156 7.375 -5.109375 L 6.765625 -4.4375 C 6.472656 -4.664062 6.144531 -4.851562 5.78125 -5 C 5.414062 -5.15625 5.023438 -5.234375 4.609375 -5.234375 C 4.109375 -5.234375 3.65625 -5.132812 3.25 -4.9375 C 2.851562 -4.75 2.539062 -4.488281 2.3125 -4.15625 C 2.082031 -3.832031 1.96875 -3.460938 1.96875 -3.046875 C 1.96875 -2.671875 2.035156 -2.34375 2.171875 -2.0625 C 2.316406 -1.789062 2.515625 -1.5625 2.765625 -1.375 C 3.015625 -1.195312 3.289062 -1.0625 3.59375 -0.96875 C 3.90625 -0.875 4.226562 -0.828125 4.5625 -0.828125 C 5 -0.828125 5.390625 -0.882812 5.734375 -1 C 6.078125 -1.113281 6.351562 -1.265625 6.5625 -1.453125 C 6.78125 -1.648438 6.898438 -1.878906 6.921875 -2.140625 L 4.59375 -2.140625 L 4.59375 -3.0625 L 7.921875 -3.0625 C 7.929688 -2.988281 7.9375 -2.914062 7.9375 -2.84375 C 7.945312 -2.769531 7.953125 -2.695312 7.953125 -2.625 C 7.953125 -2.3125 7.898438 -2.015625 7.796875 -1.734375 C 7.703125 -1.453125 7.578125 -1.210938 7.421875 -1.015625 C 7.140625 -0.671875 6.742188 -0.398438 6.234375 -0.203125 C 5.734375 -0.00390625 5.15625 0.09375 4.5 0.09375 C 4.019531 0.09375 3.566406 0.0234375 3.140625 -0.109375 C 2.722656 -0.253906 2.347656 -0.457031 2.015625 -0.71875 C 1.691406 -0.988281 1.4375 -1.316406 1.25 -1.703125 C 1.0625 -2.085938 0.96875 -2.535156 0.96875 -3.046875 C 0.96875 -3.484375 1.0625 -3.890625 1.25 -4.265625 C 1.4375 -4.640625 1.695312 -4.96875 2.03125 -5.25 C 2.363281 -5.53125 2.75 -5.75 3.1875 -5.90625 C 3.625 -6.0625 4.097656 -6.140625 4.609375 -6.140625 Z M 4.609375 -6.140625 "/></g></g></g><g fill="#000000" fill-opacity="1"><g transform="translate(153.869045, 243.161293)"><g/></g></g><g fill="#000000" fill-opacity="1"><g transform="translate(157.731869, 243.161293)"><g><path d="M 1.578125 -1.875 C 1.898438 -1.519531 2.238281 -1.242188 2.59375 -1.046875 C 2.957031 -0.847656 3.394531 -0.75 3.90625 -0.75 C 4.175781 -0.75 4.441406 -0.785156 4.703125 -0.859375 C 4.960938 -0.929688 5.175781 -1.035156 5.34375 -1.171875 C 5.507812 -1.316406 5.59375 -1.5 5.59375 -1.71875 C 5.59375 -1.914062 5.519531 -2.066406 5.375 -2.171875 C 5.226562 -2.285156 5.007812 -2.375 4.71875 -2.4375 C 4.4375 -2.5 4.097656 -2.554688 3.703125 -2.609375 C 3.203125 -2.671875 2.769531 -2.773438 2.40625 -2.921875 C 2.050781 -3.066406 1.773438 -3.257812 1.578125 -3.5 C 1.378906 -3.738281 1.28125 -4.035156 1.28125 -4.390625 C 1.28125 -4.765625 1.394531 -5.082031 1.625 -5.34375 C 1.851562 -5.613281 2.164062 -5.816406 2.5625 -5.953125 C 2.957031 -6.097656 3.390625 -6.171875 3.859375 -6.171875 C 4.453125 -6.171875 4.960938 -6.078125 5.390625 -5.890625 C 5.828125 -5.710938 6.171875 -5.453125 6.421875 -5.109375 L 5.78125 -4.4375 C 5.570312 -4.695312 5.300781 -4.910156 4.96875 -5.078125 C 4.644531 -5.242188 4.269531 -5.328125 3.84375 -5.328125 C 3.394531 -5.328125 3.019531 -5.253906 2.71875 -5.109375 C 2.425781 -4.960938 2.28125 -4.753906 2.28125 -4.484375 C 2.28125 -4.273438 2.351562 -4.109375 2.5 -3.984375 C 2.644531 -3.859375 2.847656 -3.757812 3.109375 -3.6875 C 3.367188 -3.613281 3.675781 -3.550781 4.03125 -3.5 C 4.363281 -3.46875 4.679688 -3.414062 4.984375 -3.34375 C 5.296875 -3.269531 5.570312 -3.175781 5.8125 -3.0625 C 6.050781 -2.945312 6.242188 -2.789062 6.390625 -2.59375 C 6.535156 -2.40625 6.609375 -2.160156 6.609375 -1.859375 C 6.609375 -1.460938 6.492188 -1.117188 6.265625 -0.828125 C 6.046875 -0.535156 5.726562 -0.304688 5.3125 -0.140625 C 4.90625 0.015625 4.425781 0.09375 3.875 0.09375 C 3.269531 0.09375 2.726562 0 2.25 -0.1875 C 1.769531 -0.375 1.34375 -0.675781 0.96875 -1.09375 Z M 1.578125 -1.875 "/></g></g></g><g fill="#000000" fill-opacity="1"><g transform="translate(165.327022, 243.161293)"><g><path d="M 1.4375 -6.09375 L 6.25 -6.09375 L 6.25 -5.1875 L 2.375 -5.1875 L 2.375 -3.578125 L 5.765625 -3.578125 L 5.765625 -2.671875 L 2.375 -2.671875 L 2.375 -0.90625 L 6.25 -0.90625 L 6.25 0 L 1.4375 0 Z M 1.4375 -6.09375 "/></g></g></g><g fill="#000000" fill-opacity="1"><g transform="translate(172.817777, 243.161293)"><g><path d="M 6.765625 -4.203125 C 6.765625 -3.921875 6.707031 -3.660156 6.59375 -3.421875 C 6.476562 -3.179688 6.3125 -2.96875 6.09375 -2.78125 C 5.882812 -2.601562 5.648438 -2.46875 5.390625 -2.375 L 7.109375 0.015625 L 5.9375 0 L 4.328125 -2.25 L 2.375 -2.25 L 2.375 0 L 1.4375 0 L 1.4375 -6.09375 L 4.796875 -6.09375 C 5.148438 -6.09375 5.472656 -6.007812 5.765625 -5.84375 C 6.066406 -5.675781 6.304688 -5.453125 6.484375 -5.171875 C 6.671875 -4.890625 6.765625 -4.566406 6.765625 -4.203125 Z M 4.5625 -5.1875 L 2.375 -5.1875 L 2.375 -3.15625 L 4.609375 -3.15625 C 4.828125 -3.15625 5.023438 -3.203125 5.203125 -3.296875 C 5.378906 -3.398438 5.519531 -3.53125 5.625 -3.6875 C 5.726562 -3.84375 5.78125 -4.019531 5.78125 -4.21875 C 5.78125 -4.394531 5.722656 -4.554688 5.609375 -4.703125 C 5.503906 -4.859375 5.359375 -4.976562 5.171875 -5.0625 C 4.984375 -5.144531 4.78125 -5.1875 4.5625 -5.1875 Z M 4.5625 -5.1875 "/></g></g></g><g fill="#000000" fill-opacity="1"><g transform="translate(181.065437, 243.161293)"><g><path d="M 7.1875 -6.09375 L 4.515625 0 L 3.421875 0 L 0.671875 -6.09375 L 1.75 -6.09375 L 3.34375 -2.453125 C 3.4375 -2.222656 3.546875 -1.972656 3.671875 -1.703125 C 3.796875 -1.441406 3.90625 -1.191406 4 -0.953125 C 4.09375 -1.191406 4.195312 -1.441406 4.3125 -1.703125 C 4.425781 -1.960938 4.523438 -2.207031 4.609375 -2.4375 L 6.078125 -6.09375 Z M 7.1875 -6.09375 "/></g></g></g><g fill="#000000" fill-opacity="1"><g transform="translate(188.938992, 243.161293)"><g><path d="M 5.328125 0 L 1.4375 0 L 1.4375 -0.921875 L 2.921875 -0.921875 L 2.921875 -5.171875 L 1.4375 -5.171875 L 1.4375 -6.09375 L 5.328125 -6.09375 L 5.328125 -5.171875 L 3.859375 -5.171875 L 3.859375 -0.921875 L 5.328125 -0.921875 Z M 5.328125 0 "/></g></g></g><g fill="#000000" fill-opacity="1"><g transform="translate(195.716341, 243.161293)"><g><path d="M 7.015625 -0.875 C 6.859375 -0.738281 6.644531 -0.59375 6.375 -0.4375 C 6.113281 -0.289062 5.8125 -0.164062 5.46875 -0.0625 C 5.125 0.0390625 4.757812 0.09375 4.375 0.09375 C 3.894531 0.09375 3.445312 0.0195312 3.03125 -0.125 C 2.625 -0.28125 2.265625 -0.492188 1.953125 -0.765625 C 1.648438 -1.035156 1.410156 -1.363281 1.234375 -1.75 C 1.054688 -2.132812 0.96875 -2.566406 0.96875 -3.046875 C 0.96875 -3.492188 1.054688 -3.90625 1.234375 -4.28125 C 1.421875 -4.65625 1.671875 -4.984375 1.984375 -5.265625 C 2.304688 -5.546875 2.671875 -5.757812 3.078125 -5.90625 C 3.492188 -6.0625 3.929688 -6.140625 4.390625 -6.140625 C 4.765625 -6.140625 5.125 -6.085938 5.46875 -5.984375 C 5.820312 -5.890625 6.132812 -5.765625 6.40625 -5.609375 C 6.6875 -5.453125 6.910156 -5.289062 7.078125 -5.125 L 6.5 -4.359375 C 6.207031 -4.597656 5.878906 -4.800781 5.515625 -4.96875 C 5.160156 -5.132812 4.757812 -5.21875 4.3125 -5.21875 C 4.007812 -5.21875 3.71875 -5.164062 3.4375 -5.0625 C 3.15625 -4.96875 2.898438 -4.828125 2.671875 -4.640625 C 2.441406 -4.453125 2.257812 -4.222656 2.125 -3.953125 C 2 -3.679688 1.9375 -3.378906 1.9375 -3.046875 C 1.9375 -2.679688 2.003906 -2.359375 2.140625 -2.078125 C 2.273438 -1.804688 2.460938 -1.578125 2.703125 -1.390625 C 2.941406 -1.203125 3.210938 -1.0625 3.515625 -0.96875 C 3.816406 -0.875 4.128906 -0.828125 4.453125 -0.828125 C 4.773438 -0.828125 5.0625 -0.867188 5.3125 -0.953125 C 5.570312 -1.046875 5.800781 -1.15625 6 -1.28125 C 6.207031 -1.40625 6.394531 -1.53125 6.5625 -1.65625 Z M 7.015625 -0.875 "/></g></g></g><g fill="#000000" fill-opacity="1"><g transform="translate(203.729097, 243.161293)"><g><path d="M 1.4375 -6.09375 L 6.25 -6.09375 L 6.25 -5.1875 L 2.375 -5.1875 L 2.375 -3.578125 L 5.765625 -3.578125 L 5.765625 -2.671875 L 2.375 -2.671875 L 2.375 -0.90625 L 6.25 -0.90625 L 6.25 0 L 1.4375 0 Z M 1.4375 -6.09375 "/></g></g></g><g fill="#000000" fill-opacity="1"><g transform="translate(211.219852, 243.161293)"><g/></g></g><g fill="#000000" fill-opacity="1"><g transform="translate(215.082676, 243.161293)"><g><path d="M 5.328125 0 L 1.4375 0 L 1.4375 -0.921875 L 2.921875 -0.921875 L 2.921875 -5.171875 L 1.4375 -5.171875 L 1.4375 -6.09375 L 5.328125 -6.09375 L 5.328125 -5.171875 L 3.859375 -5.171875 L 3.859375 -0.921875 L 5.328125 -0.921875 Z M 5.328125 0 "/></g></g></g><g fill="#000000" fill-opacity="1"><g transform="translate(221.860025, 243.161293)"><g><path d="M 6.8125 -6.09375 L 7.75 -6.09375 L 7.75 0 L 6.8125 0 L 2.21875 -4.765625 C 2.25 -4.390625 2.28125 -4.015625 2.3125 -3.640625 C 2.351562 -3.273438 2.375 -2.90625 2.375 -2.53125 L 2.375 0 L 1.4375 0 L 1.4375 -6.09375 L 2.34375 -6.09375 L 6.953125 -1.203125 C 6.910156 -1.492188 6.878906 -1.804688 6.859375 -2.140625 C 6.835938 -2.472656 6.820312 -2.804688 6.8125 -3.140625 C 6.8125 -3.472656 6.8125 -3.789062 6.8125 -4.09375 Z M 6.8125 -6.09375 "/></g></g></g><g fill="#000000" fill-opacity="1"><g transform="translate(231.038593, 243.161293)"><g/></g></g><g fill="#000000" fill-opacity="1"><g transform="translate(234.901417, 243.161293)"><g><path d="M 2.953125 0 L 2.953125 -5.1875 L 0.75 -5.1875 L 0.75 -6.09375 L 6.140625 -6.09375 L 6.140625 -5.1875 L 3.890625 -5.1875 L 3.890625 0 Z M 2.953125 0 "/></g></g></g><g fill="#000000" fill-opacity="1"><g transform="translate(241.791871, 243.161293)"><g><path d="M 6.765625 -4.203125 C 6.765625 -3.921875 6.707031 -3.660156 6.59375 -3.421875 C 6.476562 -3.179688 6.3125 -2.96875 6.09375 -2.78125 C 5.882812 -2.601562 5.648438 -2.46875 5.390625 -2.375 L 7.109375 0.015625 L 5.9375 0 L 4.328125 -2.25 L 2.375 -2.25 L 2.375 0 L 1.4375 0 L 1.4375 -6.09375 L 4.796875 -6.09375 C 5.148438 -6.09375 5.472656 -6.007812 5.765625 -5.84375 C 6.066406 -5.675781 6.304688 -5.453125 6.484375 -5.171875 C 6.671875 -4.890625 6.765625 -4.566406 6.765625 -4.203125 Z M 4.5625 -5.1875 L 2.375 -5.1875 L 2.375 -3.15625 L 4.609375 -3.15625 C 4.828125 -3.15625 5.023438 -3.203125 5.203125 -3.296875 C 5.378906 -3.398438 5.519531 -3.53125 5.625 -3.6875 C 5.726562 -3.84375 5.78125 -4.019531 5.78125 -4.21875 C 5.78125 -4.394531 5.722656 -4.554688 5.609375 -4.703125 C 5.503906 -4.859375 5.359375 -4.976562 5.171875 -5.0625 C 4.984375 -5.144531 4.78125 -5.1875 4.5625 -5.1875 Z M 4.5625 -5.1875 "/></g></g></g><g fill="#000000" fill-opacity="1"><g transform="translate(250.03953, 243.161293)"><g><path d="M 7.21875 -6.09375 L 7.21875 -2.796875 C 7.21875 -2.242188 7.09375 -1.753906 6.84375 -1.328125 C 6.601562 -0.898438 6.257812 -0.5625 5.8125 -0.3125 C 5.375 -0.0703125 4.863281 0.046875 4.28125 0.046875 C 3.6875 0.046875 3.171875 -0.0703125 2.734375 -0.3125 C 2.296875 -0.5625 1.953125 -0.898438 1.703125 -1.328125 C 1.460938 -1.753906 1.34375 -2.242188 1.34375 -2.796875 L 1.34375 -6.09375 L 2.28125 -6.09375 L 2.28125 -2.84375 C 2.28125 -2.457031 2.367188 -2.113281 2.546875 -1.8125 C 2.722656 -1.507812 2.960938 -1.273438 3.265625 -1.109375 C 3.566406 -0.941406 3.90625 -0.859375 4.28125 -0.859375 C 4.664062 -0.859375 5.007812 -0.941406 5.3125 -1.109375 C 5.625 -1.273438 5.867188 -1.507812 6.046875 -1.8125 C 6.234375 -2.113281 6.328125 -2.457031 6.328125 -2.84375 L 6.328125 -6.09375 Z M 7.21875 -6.09375 "/></g></g></g><g fill="#000000" fill-opacity="1"><g transform="translate(258.591689, 243.161293)"><g><path d="M 7.015625 -0.875 C 6.859375 -0.738281 6.644531 -0.59375 6.375 -0.4375 C 6.113281 -0.289062 5.8125 -0.164062 5.46875 -0.0625 C 5.125 0.0390625 4.757812 0.09375 4.375 0.09375 C 3.894531 0.09375 3.445312 0.0195312 3.03125 -0.125 C 2.625 -0.28125 2.265625 -0.492188 1.953125 -0.765625 C 1.648438 -1.035156 1.410156 -1.363281 1.234375 -1.75 C 1.054688 -2.132812 0.96875 -2.566406 0.96875 -3.046875 C 0.96875 -3.492188 1.054688 -3.90625 1.234375 -4.28125 C 1.421875 -4.65625 1.671875 -4.984375 1.984375 -5.265625 C 2.304688 -5.546875 2.671875 -5.757812 3.078125 -5.90625 C 3.492188 -6.0625 3.929688 -6.140625 4.390625 -6.140625 C 4.765625 -6.140625 5.125 -6.085938 5.46875 -5.984375 C 5.820312 -5.890625 6.132812 -5.765625 6.40625 -5.609375 C 6.6875 -5.453125 6.910156 -5.289062 7.078125 -5.125 L 6.5 -4.359375 C 6.207031 -4.597656 5.878906 -4.800781 5.515625 -4.96875 C 5.160156 -5.132812 4.757812 -5.21875 4.3125 -5.21875 C 4.007812 -5.21875 3.71875 -5.164062 3.4375 -5.0625 C 3.15625 -4.96875 2.898438 -4.828125 2.671875 -4.640625 C 2.441406 -4.453125 2.257812 -4.222656 2.125 -3.953125 C 2 -3.679688 1.9375 -3.378906 1.9375 -3.046875 C 1.9375 -2.679688 2.003906 -2.359375 2.140625 -2.078125 C 2.273438 -1.804688 2.460938 -1.578125 2.703125 -1.390625 C 2.941406 -1.203125 3.210938 -1.0625 3.515625 -0.96875 C 3.816406 -0.875 4.128906 -0.828125 4.453125 -0.828125 C 4.773438 -0.828125 5.0625 -0.867188 5.3125 -0.953125 C 5.570312 -1.046875 5.800781 -1.15625 6 -1.28125 C 6.207031 -1.40625 6.394531 -1.53125 6.5625 -1.65625 Z M 7.015625 -0.875 "/></g></g></g><g fill="#000000" fill-opacity="1"><g transform="translate(266.604445, 243.161293)"><g><path d="M 2.375 0 L 1.4375 0 L 1.4375 -6.09375 L 2.375 -6.09375 L 2.375 -2.859375 L 3.90625 -4.09375 L 6.359375 -6.09375 L 7.71875 -6.09375 L 4.671875 -3.625 L 7.625 0 L 6.390625 0 L 3.953125 -3.046875 L 2.375 -1.78125 Z M 2.375 0 "/></g></g></g><g fill="#000000" fill-opacity="1"><g transform="translate(275.330618, 243.161293)"><g><path d="M 5.328125 0 L 1.4375 0 L 1.4375 -0.921875 L 2.921875 -0.921875 L 2.921875 -5.171875 L 1.4375 -5.171875 L 1.4375 -6.09375 L 5.328125 -6.09375 L 5.328125 -5.171875 L 3.859375 -5.171875 L 3.859375 -0.921875 L 5.328125 -0.921875 Z M 5.328125 0 "/></g></g></g><g fill="#000000" fill-opacity="1"><g transform="translate(282.107978, 243.161293)"><g><path d="M 6.8125 -6.09375 L 7.75 -6.09375 L 7.75 0 L 6.8125 0 L 2.21875 -4.765625 C 2.25 -4.390625 2.28125 -4.015625 2.3125 -3.640625 C 2.351562 -3.273438 2.375 -2.90625 2.375 -2.53125 L 2.375 0 L 1.4375 0 L 1.4375 -6.09375 L 2.34375 -6.09375 L 6.953125 -1.203125 C 6.910156 -1.492188 6.878906 -1.804688 6.859375 -2.140625 C 6.835938 -2.472656 6.820312 -2.804688 6.8125 -3.140625 C 6.8125 -3.472656 6.8125 -3.789062 6.8125 -4.09375 Z M 6.8125 -6.09375 "/></g></g></g><g fill="#000000" fill-opacity="1"><g transform="translate(291.286547, 243.161293)"><g><path d="M 4.609375 -6.140625 C 5.023438 -6.140625 5.414062 -6.085938 5.78125 -5.984375 C 6.144531 -5.890625 6.460938 -5.765625 6.734375 -5.609375 C 7.003906 -5.453125 7.21875 -5.285156 7.375 -5.109375 L 6.765625 -4.4375 C 6.472656 -4.664062 6.144531 -4.851562 5.78125 -5 C 5.414062 -5.15625 5.023438 -5.234375 4.609375 -5.234375 C 4.109375 -5.234375 3.65625 -5.132812 3.25 -4.9375 C 2.851562 -4.75 2.539062 -4.488281 2.3125 -4.15625 C 2.082031 -3.832031 1.96875 -3.460938 1.96875 -3.046875 C 1.96875 -2.671875 2.035156 -2.34375 2.171875 -2.0625 C 2.316406 -1.789062 2.515625 -1.5625 2.765625 -1.375 C 3.015625 -1.195312 3.289062 -1.0625 3.59375 -0.96875 C 3.90625 -0.875 4.226562 -0.828125 4.5625 -0.828125 C 5 -0.828125 5.390625 -0.882812 5.734375 -1 C 6.078125 -1.113281 6.351562 -1.265625 6.5625 -1.453125 C 6.78125 -1.648438 6.898438 -1.878906 6.921875 -2.140625 L 4.59375 -2.140625 L 4.59375 -3.0625 L 7.921875 -3.0625 C 7.929688 -2.988281 7.9375 -2.914062 7.9375 -2.84375 C 7.945312 -2.769531 7.953125 -2.695312 7.953125 -2.625 C 7.953125 -2.3125 7.898438 -2.015625 7.796875 -1.734375 C 7.703125 -1.453125 7.578125 -1.210938 7.421875 -1.015625 C 7.140625 -0.671875 6.742188 -0.398438 6.234375 -0.203125 C 5.734375 -0.00390625 5.15625 0.09375 4.5 0.09375 C 4.019531 0.09375 3.566406 0.0234375 3.140625 -0.109375 C 2.722656 -0.253906 2.347656 -0.457031 2.015625 -0.71875 C 1.691406 -0.988281 1.4375 -1.316406 1.25 -1.703125 C 1.0625 -2.085938 0.96875 -2.535156 0.96875 -3.046875 C 0.96875 -3.484375 1.0625 -3.890625 1.25 -4.265625 C 1.4375 -4.640625 1.695312 -4.96875 2.03125 -5.25 C 2.363281 -5.53125 2.75 -5.75 3.1875 -5.90625 C 3.625 -6.0625 4.097656 -6.140625 4.609375 -6.140625 Z M 4.609375 -6.140625 "/></g></g></g></svg>