<svg xmlns="http://www.w3.org/2000/svg" xmlns:xlink="http://www.w3.org/1999/xlink" width="500" zoomAndPan="magnify" viewBox="0 0 375 374.999991" height="500" preserveAspectRatio="xMidYMid meet" version="1.0"><defs><g/><clipPath id="760ec62d12"><path d="M 9.546875 142.761719 L 116.046875 142.761719 L 116.046875 199.46875 L 9.546875 199.46875 Z M 9.546875 142.761719 " clip-rule="nonzero"/></clipPath></defs><rect x="-37.5" width="450" fill="#ffffff" y="-37.499999" height="449.999989" fill-opacity="1"/><rect x="-37.5" width="450" fill="#ffffff" y="-37.499999" height="449.999989" fill-opacity="1"/><path fill="#ffa500" d="M 49.574219 184.417969 L 49.859375 152.335938 C 51.46875 152.664062 60.585938 154.984375 63.4375 156.34375 L 65.648438 167.917969 C 65.648438 167.917969 66.558594 168.574219 67.917969 168.71875 C 69.300781 168.863281 86.003906 164.875 86.003906 164.875 C 86.003906 164.875 84.15625 167.714844 84.300781 168.753906 C 84.445312 169.8125 84.300781 180.628906 84.300781 180.628906 L 79.136719 183.898438 C 79.136719 183.898438 77.289062 175.566406 73.699219 174.472656 C 70.101562 173.40625 67.222656 175.082031 66.578125 176.066406 C 65.941406 177.035156 64.328125 180.304688 64.238281 182.726562 C 64.144531 185.140625 64.292969 188.445312 64.292969 188.445312 L 51.507812 188.5 L 49.574219 184.417969 " fill-opacity="1" fill-rule="evenodd"/><path fill="#7bb7e0" d="M 10.679688 189.539062 L 10.769531 175.75 L 44.921875 152.5 L 44.996094 184.65625 L 10.679688 189.539062 " fill-opacity="1" fill-rule="evenodd"/><g clip-path="url(#760ec62d12)"><path fill="#022135" d="M 60.878906 159.273438 C 60.878906 159.273438 63.164062 158.507812 63.472656 158.671875 C 63.753906 158.828125 64 159.976562 64 159.976562 L 65.019531 167.105469 L 60.695312 168.644531 C 60.695312 168.644531 60.320312 168.738281 59.765625 168.4375 C 59.230469 168.109375 59.246094 167.589844 59.246094 167.589844 L 58.671875 160.148438 Z M 52.699219 195.128906 L 52.882812 195.011719 L 52.71875 195.011719 C 52.71875 195.039062 52.699219 195.074219 52.699219 195.128906 Z M 71.140625 177.070312 C 72.425781 177.050781 73.628906 177.871094 74.464844 179.648438 C 75.464844 181.769531 76.003906 185.195312 76.394531 188.707031 C 76.785156 192.304688 79.21875 193.882812 80.703125 194.472656 C 80.257812 197.617188 79.773438 198.023438 78.453125 199.371094 C 74.839844 199.398438 72.679688 199.410156 69.046875 199.445312 C 68.089844 198.488281 67.277344 196.886719 66.734375 194.882812 L 64.976562 194.902344 C 64.9375 195.109375 64.902344 195.367188 64.828125 195.648438 C 64.382812 197.296875 63.179688 199.089844 63.179688 199.089844 L 55.183594 199.273438 C 55.183594 199.273438 54.382812 199.363281 53.507812 198.664062 C 52.953125 198.214844 52.636719 196.667969 52.488281 196.011719 C 52.453125 196.078125 52.433594 196.167969 52.417969 196.238281 C 51.863281 198.023438 51.078125 198.972656 51.078125 198.972656 C 49.183594 199.390625 42.527344 199.863281 41.46875 199.382812 C 40.6875 199.019531 40.386719 197.652344 40.386719 197.652344 L 42.027344 195.074219 L 35.566406 195.128906 C 35.566406 195.203125 35.566406 195.257812 35.550781 195.3125 C 35.230469 197.652344 33.746094 199.292969 33.746094 199.292969 L 30.167969 199.519531 C 30.167969 199.519531 26.523438 199.753906 25.933594 199.144531 C 25.359375 198.535156 24.929688 195.957031 24.929688 195.957031 C 24.929688 195.957031 24.695312 195.941406 24.355469 197.078125 C 24.019531 198.207031 23.355469 199.582031 23.355469 199.582031 L 15.652344 199.636719 C 14.484375 199.65625 13.503906 197.96875 13.328125 195.777344 C 13.21875 195.867188 13.109375 195.941406 13 195.957031 C 12.644531 195.976562 10.898438 196.113281 10.550781 195.8125 C 10.230469 195.519531 10.230469 195.273438 10.230469 195.273438 L 10.03125 191.121094 C 10.015625 191.078125 9.996094 191.003906 9.996094 190.929688 L 9.960938 189.335938 L 9.550781 174.027344 C 9.53125 173.820312 9.640625 173.636719 9.804688 173.507812 L 44.046875 148.28125 C 45.367188 147.296875 46.925781 149.347656 45.195312 150.53125 L 10.769531 174.320312 L 11.160156 188.800781 L 45.886719 183.625 L 45.851562 152.160156 C 45.851562 152.035156 45.886719 151.941406 45.921875 151.851562 C 46.03125 151.605469 46.535156 150.605469 47.753906 150.066406 L 47.753906 144.074219 C 47.753906 143.4375 48.28125 142.898438 48.929688 142.898438 C 49.574219 142.882812 50.113281 143.417969 50.113281 144.054688 L 50.113281 146.488281 C 52.179688 146.542969 58.410156 146.667969 64.074219 146.914062 C 69.082031 147.132812 73.875 147.488281 73.875 147.726562 L 73.875 150.832031 L 74.78125 150.886719 L 74.78125 144.59375 C 74.78125 144.039062 75.257812 143.574219 75.804688 143.574219 C 76.378906 143.574219 76.824219 144.019531 76.824219 144.574219 L 76.824219 151.015625 L 79.101562 151.160156 C 79.101562 151.160156 79.15625 150.8125 84.539062 152.871094 C 89.9375 154.929688 93.042969 156.988281 92.90625 157.152344 C 92.78125 157.308594 90.367188 156.878906 85.246094 156.75 C 81.222656 156.671875 72.90625 156.75 69.527344 156.804688 C 69.546875 156.914062 69.621094 157.042969 69.746094 157.152344 C 70.03125 157.34375 90.402344 157.652344 91.167969 157.753906 C 91.921875 157.863281 92.222656 158.328125 92.40625 158.601562 C 92.578125 158.882812 93.910156 162.515625 93.910156 162.515625 C 93.910156 162.515625 99.355469 163.335938 99.875 163.480469 C 100.394531 163.636719 100.375 164.101562 100.375 164.101562 L 86.039062 163.671875 L 69.136719 167.269531 C 69.136719 167.269531 66.832031 166.988281 66.597656 165.765625 L 65.148438 157.652344 C 65.074219 157.253906 66.40625 156.734375 67.316406 156.414062 C 62.644531 153.800781 57.445312 151.996094 51.5625 151.195312 L 50.949219 151.160156 L 50.949219 183.289062 C 50.949219 183.289062 51.789062 183.789062 52.542969 184.972656 C 53.273438 186.175781 53.363281 187.980469 53.363281 187.980469 L 63.699219 187.441406 C 63.699219 187.441406 63.84375 182.671875 64.164062 181.632812 C 64.492188 180.59375 64.976562 181.285156 64.976562 181.558594 C 64.976562 181.824219 64.792969 186.050781 64.792969 186.761719 C 64.792969 187.480469 64.828125 189.019531 64.828125 189.019531 L 50.503906 189.730469 C 50.503906 189.730469 50.203125 188.910156 49.039062 186.960938 C 47.890625 185.027344 46.550781 184.957031 46.550781 184.957031 C 46.550781 184.957031 47.644531 185.921875 48.261719 187.070312 C 48.875 188.207031 49.464844 191.640625 49.703125 191.933594 C 49.949219 192.214844 50.714844 192.234375 50.714844 192.234375 L 66.167969 191.96875 C 66.039062 190.957031 65.96875 189.894531 65.96875 188.78125 C 65.96875 182.324219 68.296875 177.085938 71.140625 177.070312 Z M 86.15625 179.59375 L 86.15625 169.273438 C 86.15625 167.195312 88.34375 164.621094 90.476562 164.710938 L 106.03125 165.140625 C 107.925781 165.210938 109.035156 167.050781 109.035156 168.917969 L 109.035156 172.933594 C 110.054688 173.417969 112.023438 174.390625 113.023438 175.304688 C 114.382812 176.570312 114.546875 176.660156 114.382812 176.769531 C 114.234375 176.859375 109.335938 176.996094 109.335938 176.996094 C 109.335938 176.996094 109.28125 180.003906 109.445312 180.113281 C 109.609375 180.21875 115.367188 179.984375 115.648438 180.257812 C 115.921875 180.539062 116.578125 187.535156 116.167969 190.121094 C 115.757812 192.714844 114.828125 193.308594 114.664062 193.308594 C 114.617188 193.308594 112.296875 193.328125 108.917969 193.355469 C 108.855469 193.636719 108.753906 193.964844 108.625 194.347656 C 107.734375 196.832031 106.257812 199.007812 106.257812 199.007812 L 98.445312 199.054688 C 98.445312 199.054688 96.976562 198.445312 95.992188 196.613281 C 95.339844 195.421875 95.183594 194.183594 95.15625 193.472656 L 82.441406 193.570312 C 82.441406 193.570312 79.402344 192.359375 78.691406 189.128906 C 77.988281 185.902344 77.671875 179.964844 76.113281 177.40625 C 74.539062 174.875 70.921875 174.765625 69.765625 174.882812 C 68.597656 175.011719 67.152344 175.675781 66.578125 176.066406 C 66.003906 176.441406 68.710938 172.761719 72.269531 172.132812 C 75.820312 171.503906 79.15625 172.023438 81.605469 173.65625 C 84.074219 175.265625 84.28125 175.941406 84.28125 175.941406 L 79.917969 175.976562 C 79.917969 175.976562 79.210938 176.140625 79.21875 176.605469 C 79.238281 177.070312 79.402344 179.054688 79.402344 179.054688 C 79.402344 179.054688 79.457031 179.445312 80.21875 179.539062 C 80.847656 179.609375 84.820312 179.59375 86.15625 179.59375 " fill-opacity="1" fill-rule="evenodd"/></g><path fill="#ffa500" d="M 109.171875 180.503906 L 115.59375 180.503906 L 115.59375 176.714844 L 109.171875 176.714844 L 109.171875 180.503906 " fill-opacity="1" fill-rule="evenodd"/><path fill="#ffffff" d="M 45.351562 178.773438 C 44.730469 178.664062 44.101562 178.609375 43.621094 178.71875 C 42.171875 179.054688 17.152344 183.253906 17.0625 183.253906 C 16.972656 183.253906 16.882812 183.152344 16.882812 183.042969 C 16.898438 182.933594 17.097656 182.878906 17.097656 182.878906 L 45.351562 175.285156 Z M 45.3125 161.167969 C 45.140625 161.207031 44.9375 161.242188 44.75 161.296875 C 42.542969 161.871094 17.792969 174.417969 16.988281 174.636719 C 16.171875 174.855469 16.335938 174.566406 16.363281 174.472656 C 16.398438 174.402344 37.71875 160.367188 45.304688 155.375 Z M 45.332031 170.09375 C 44.53125 170.039062 43.78125 170.148438 43.265625 170.3125 C 42.433594 170.574219 17.382812 178.855469 17.027344 178.855469 C 16.652344 178.871094 16.78125 178.699219 16.84375 178.628906 C 16.917969 178.570312 38.054688 169 45.332031 165.695312 L 45.332031 170.09375 " fill-opacity="1" fill-rule="nonzero"/><path fill="#7bb7e0" d="M 46.214844 185.996094 C 47.40625 185.996094 48.375 188.609375 48.375 191.824219 C 48.375 195.054688 47.40625 197.6875 46.214844 197.707031 C 44.996094 197.707031 44.027344 195.09375 44.027344 191.859375 C 44.027344 188.636719 44.996094 186.011719 46.214844 185.996094 Z M 70.675781 179.109375 C 72.515625 179.109375 74.019531 183.398438 74.019531 188.726562 C 74.019531 194.054688 72.515625 198.390625 70.675781 198.40625 C 69.554688 198.417969 68.570312 196.839844 67.960938 194.410156 L 68.871094 194.402344 C 69.246094 195.292969 69.730469 195.832031 70.25 195.8125 C 71.476562 195.8125 72.480469 192.789062 72.480469 189.054688 C 72.480469 185.328125 71.476562 182.324219 70.25 182.34375 C 69.375 182.34375 68.617188 183.84375 68.261719 186.050781 L 67.46875 186.050781 C 67.878906 182.0625 69.164062 179.128906 70.675781 179.109375 Z M 19.832031 190.230469 C 20.476562 190.230469 20.996094 192.042969 20.996094 194.253906 C 20.996094 196.496094 20.476562 198.316406 19.832031 198.316406 C 19.210938 198.316406 18.691406 196.503906 18.691406 194.273438 C 18.691406 192.058594 19.210938 190.230469 19.832031 190.230469 Z M 15.878906 190.519531 C 16.453125 190.519531 16.917969 192.289062 16.917969 194.492188 C 16.917969 196.667969 16.453125 198.445312 15.878906 198.460938 C 15.3125 198.460938 14.851562 196.6875 14.851562 194.492188 C 14.851562 192.304688 15.3125 190.519531 15.878906 190.519531 Z M 41.078125 186.816406 C 42.28125 186.796875 43.246094 189.246094 43.246094 192.25 C 43.246094 195.273438 42.28125 197.722656 41.078125 197.742188 C 39.886719 197.742188 38.894531 195.3125 38.894531 192.289062 C 38.894531 189.28125 39.886719 186.816406 41.078125 186.816406 " fill-opacity="1" fill-rule="evenodd"/><path fill="#022135" d="M 40.96875 194.902344 C 41.1875 194.128906 41.332031 193.109375 41.332031 191.988281 C 41.332031 191.003906 41.222656 190.09375 41.042969 189.355469 C 41.097656 188.351562 41.972656 188.945312 42.152344 190.210938 C 42.242188 190.75 42.28125 191.339844 42.28125 191.988281 C 42.28125 193.214844 42.117188 194.347656 41.851562 195.128906 C 41.597656 195.832031 40.703125 195.757812 40.96875 194.902344 Z M 46.234375 195.09375 C 46.441406 194.238281 46.585938 193.109375 46.585938 191.859375 C 46.585938 190.75 46.480469 189.746094 46.304688 188.925781 C 46.371094 187.816406 47.234375 188.480469 47.425781 189.875 C 47.5 190.484375 47.535156 191.140625 47.535156 191.859375 C 47.535156 193.234375 47.371094 194.472656 47.105469 195.347656 C 46.871094 196.132812 45.976562 196.058594 46.234375 195.09375 " fill-opacity="1" fill-rule="evenodd"/><path fill="#999999" d="M 66.988281 145.277344 C 66.988281 145.277344 72.890625 139.785156 74.355469 139.820312 C 75.839844 139.875 75.929688 141.570312 75.914062 142.199219 C 75.894531 142.84375 75.722656 142.34375 74.683594 142.460938 C 73.628906 142.589844 69.382812 145.148438 68.546875 145.433594 C 67.707031 145.742188 66.988281 145.277344 66.988281 145.277344 Z M 25.25 156.914062 C 25.25 156.914062 25.078125 156.378906 25.558594 155.769531 C 26.023438 155.167969 26.824219 154.59375 27.308594 154.910156 C 27.773438 155.230469 27.773438 155.894531 27.273438 156.34375 C 26.769531 156.789062 25.714844 157.152344 25.503906 157.097656 C 25.285156 157.0625 25.25 156.914062 25.25 156.914062 Z M 29.277344 153 C 29.277344 153 39.058594 143.4375 42.28125 140.839844 C 45.476562 138.226562 47.480469 138.082031 48.683594 138.984375 C 49.859375 139.875 48.726562 140.804688 48.726562 140.804688 C 48.726562 140.804688 48.109375 140.121094 47.425781 140.285156 C 46.753906 140.429688 35.285156 149.175781 33.582031 150.421875 C 31.890625 151.679688 29.613281 153.238281 29.382812 153.21875 C 29.164062 153.21875 29.277344 153 29.277344 153 Z M 21.90625 159.867188 C 21.90625 159.867188 21.761719 159.421875 22.164062 158.917969 C 22.554688 158.417969 23.210938 157.9375 23.609375 158.199219 C 24 158.453125 24 159.027344 23.59375 159.382812 C 23.164062 159.757812 22.28125 160.046875 22.125 160.011719 C 21.945312 159.992188 21.90625 159.867188 21.90625 159.867188 " fill-opacity="1" fill-rule="evenodd"/><path fill="#7bb7e0" d="M 106.230469 167.878906 C 106.675781 167.863281 107.03125 168.21875 107.03125 168.664062 L 107.03125 179.773438 L 105.4375 179.773438 L 105.4375 168.683594 C 105.4375 168.234375 105.792969 167.878906 106.230469 167.878906 Z M 98.679688 167.933594 C 99.109375 167.933594 99.464844 168.289062 99.464844 168.71875 L 99.464844 179.820312 L 97.871094 179.839844 L 97.871094 168.738281 C 97.871094 168.308594 98.234375 167.933594 98.679688 167.933594 Z M 94.785156 167.972656 C 95.230469 167.972656 95.585938 168.328125 95.585938 168.753906 L 95.585938 179.855469 L 93.992188 179.875 L 93.992188 168.773438 C 93.992188 168.328125 94.355469 167.972656 94.785156 167.972656 Z M 90.558594 168.007812 C 90.996094 168.007812 91.351562 168.363281 91.351562 168.792969 L 91.351562 179.890625 L 89.753906 179.890625 L 89.753906 168.808594 C 89.753906 168.363281 90.109375 168.007812 90.558594 168.007812 Z M 89.164062 157.308594 L 81.742188 163.726562 L 74.984375 165.359375 L 83.226562 157.214844 Z M 80.886719 157.207031 L 72.25 166.003906 L 69.117188 166.550781 L 78.0625 157.214844 Z M 102.617188 167.898438 C 103.042969 167.898438 103.417969 168.253906 103.417969 168.699219 L 103.417969 179.792969 L 101.8125 179.8125 L 101.8125 168.699219 C 101.8125 168.273438 102.167969 167.917969 102.617188 167.898438 " fill-opacity="1" fill-rule="evenodd"/><path fill="#999999" d="M 81.90625 183.828125 L 114.199219 183.5625 L 114.199219 185.996094 L 81.90625 186.257812 L 81.90625 183.828125 " fill-opacity="1" fill-rule="evenodd"/><path fill="#ffffff" d="M 48.929688 151.140625 L 48.855469 151.160156 C 47.800781 151.351562 47.371094 152.035156 47.234375 152.296875 L 47.234375 164.464844 L 48.929688 163.945312 L 48.929688 151.140625 " fill-opacity="1" fill-rule="nonzero"/><g fill="#022135" fill-opacity="1"><g transform="translate(128.225738, 167.768499)"><g><path d="M 4 -20.609375 L 15.328125 -20.609375 C 17.078125 -20.609375 18.410156 -20.234375 19.328125 -19.484375 C 20.242188 -18.742188 20.703125 -17.703125 20.703125 -16.359375 C 20.703125 -15.972656 20.648438 -15.488281 20.546875 -14.90625 C 20.117188 -12.90625 19.082031 -11.4375 17.4375 -10.5 C 18.125 -10.195312 18.644531 -9.800781 19 -9.3125 C 19.363281 -8.820312 19.546875 -8.191406 19.546875 -7.421875 C 19.546875 -7.078125 19.492188 -6.640625 19.390625 -6.109375 C 18.960938 -4.148438 18.046875 -2.640625 16.640625 -1.578125 C 15.234375 -0.523438 13.429688 0 11.234375 0 L -0.359375 0 Z M 11.96875 -12.390625 C 13.414062 -12.390625 14.289062 -13.050781 14.59375 -14.375 C 14.632812 -14.519531 14.65625 -14.71875 14.65625 -14.96875 C 14.65625 -15.445312 14.492188 -15.800781 14.171875 -16.03125 C 13.859375 -16.269531 13.347656 -16.390625 12.640625 -16.390625 L 8.890625 -16.390625 L 8.0625 -12.390625 Z M 10.46875 -4.1875 C 11.28125 -4.1875 11.914062 -4.359375 12.375 -4.703125 C 12.832031 -5.046875 13.144531 -5.613281 13.3125 -6.40625 C 13.351562 -6.695312 13.375 -6.882812 13.375 -6.96875 C 13.375 -7.46875 13.203125 -7.832031 12.859375 -8.0625 C 12.523438 -8.300781 11.984375 -8.421875 11.234375 -8.421875 L 7.203125 -8.421875 L 6.296875 -4.1875 Z M 10.46875 -4.1875 "/></g></g></g><g fill="#022135" fill-opacity="1"><g transform="translate(148.924654, 167.768499)"><g><path d="M 4 -20.609375 L 14.71875 -20.609375 C 16.632812 -20.609375 18.113281 -20.113281 19.15625 -19.125 C 20.207031 -18.144531 20.734375 -16.828125 20.734375 -15.171875 C 20.734375 -14.585938 20.671875 -13.957031 20.546875 -13.28125 C 20.242188 -11.914062 19.640625 -10.703125 18.734375 -9.640625 C 17.828125 -8.585938 16.722656 -7.773438 15.421875 -7.203125 C 15.617188 -7.023438 15.769531 -6.804688 15.875 -6.546875 C 15.976562 -6.296875 16.09375 -5.914062 16.21875 -5.40625 L 17.46875 0 L 11.203125 0 L 10.046875 -4.953125 C 9.941406 -5.335938 9.785156 -5.609375 9.578125 -5.765625 C 9.378906 -5.929688 9.054688 -6.015625 8.609375 -6.015625 L 6.90625 -6.015625 L 5.65625 0 L -0.359375 0 Z M 11.078125 -10.625 C 11.953125 -10.625 12.675781 -10.851562 13.25 -11.3125 C 13.820312 -11.769531 14.207031 -12.425781 14.40625 -13.28125 C 14.488281 -13.789062 14.53125 -14.128906 14.53125 -14.296875 C 14.53125 -14.859375 14.363281 -15.28125 14.03125 -15.5625 C 13.695312 -15.851562 13.160156 -16 12.421875 -16 L 9.0625 -16 L 7.90625 -10.625 Z M 11.078125 -10.625 "/></g></g></g><g fill="#022135" fill-opacity="1"><g transform="translate(169.239655, 167.768499)"><g><path d="M 7.578125 -16.125 L 1.796875 -16.125 L 2.71875 -20.609375 L 20.3125 -20.609375 L 19.390625 -16.125 L 13.59375 -16.125 L 10.171875 0 L 4.15625 0 Z M 7.578125 -16.125 "/></g></g></g><g fill="#022135" fill-opacity="1"><g transform="translate(187.155254, 167.768499)"><g/></g></g><g fill="#022135" fill-opacity="1"><g transform="translate(198.032576, 167.768499)"><g><path d="M 4 -20.609375 L 10.015625 -20.609375 L 6.625 -4.609375 L 15.90625 -4.609375 L 14.9375 0 L -0.359375 0 Z M 4 -20.609375 "/></g></g></g><g fill="#022135" fill-opacity="1"><g transform="translate(214.924421, 167.768499)"><g><path d="M 9.4375 0.3125 C 6.6875 0.3125 4.554688 -0.28125 3.046875 -1.46875 C 1.546875 -2.664062 0.796875 -4.5 0.796875 -6.96875 C 0.796875 -7.9375 0.925781 -9.023438 1.1875 -10.234375 C 2 -14.015625 3.425781 -16.738281 5.46875 -18.40625 C 7.519531 -20.082031 10.359375 -20.921875 13.984375 -20.921875 C 16.773438 -20.921875 18.910156 -20.316406 20.390625 -19.109375 C 21.878906 -17.910156 22.625 -16.070312 22.625 -13.59375 C 22.625 -12.613281 22.492188 -11.492188 22.234375 -10.234375 C 21.453125 -6.546875 20.023438 -3.863281 17.953125 -2.1875 C 15.878906 -0.519531 13.039062 0.3125 9.4375 0.3125 Z M 10.53125 -4.796875 C 12.0625 -4.796875 13.265625 -5.226562 14.140625 -6.09375 C 15.015625 -6.957031 15.664062 -8.335938 16.09375 -10.234375 C 16.3125 -11.222656 16.421875 -12.085938 16.421875 -12.828125 C 16.421875 -13.898438 16.144531 -14.664062 15.59375 -15.125 C 15.050781 -15.582031 14.148438 -15.8125 12.890625 -15.8125 C 11.335938 -15.8125 10.132812 -15.390625 9.28125 -14.546875 C 8.425781 -13.703125 7.773438 -12.265625 7.328125 -10.234375 C 7.085938 -9.171875 6.96875 -8.304688 6.96875 -7.640625 C 6.96875 -6.617188 7.242188 -5.890625 7.796875 -5.453125 C 8.359375 -5.015625 9.269531 -4.796875 10.53125 -4.796875 Z M 10.53125 -4.796875 "/></g></g></g><g fill="#022135" fill-opacity="1"><g transform="translate(237.574852, 167.768499)"><g><path d="M 10.171875 0.3125 C 7.316406 0.3125 5.050781 -0.363281 3.375 -1.71875 C 1.695312 -3.070312 0.859375 -4.992188 0.859375 -7.484375 C 0.859375 -8.316406 0.957031 -9.191406 1.15625 -10.109375 C 2.6875 -17.316406 7.347656 -20.921875 15.140625 -20.921875 C 17.566406 -20.921875 19.632812 -20.625 21.34375 -20.03125 L 20.21875 -14.875 C 18.707031 -15.5 16.789062 -15.8125 14.46875 -15.8125 C 12.5625 -15.8125 10.988281 -15.347656 9.75 -14.421875 C 8.519531 -13.492188 7.703125 -12.054688 7.296875 -10.109375 C 7.109375 -9.273438 7.015625 -8.550781 7.015625 -7.9375 C 7.015625 -6.820312 7.34375 -6.019531 8 -5.53125 C 8.65625 -5.039062 9.742188 -4.796875 11.265625 -4.796875 C 12.285156 -4.796875 13.296875 -4.9375 14.296875 -5.21875 L 14.9375 -8.21875 L 10.84375 -8.21875 L 11.640625 -11.9375 L 20.765625 -11.9375 L 18.5625 -1.5625 C 17.5625 -1.007812 16.351562 -0.554688 14.9375 -0.203125 C 13.53125 0.140625 11.941406 0.3125 10.171875 0.3125 Z M 10.171875 0.3125 "/></g></g></g><g fill="#022135" fill-opacity="1"><g transform="translate(258.401735, 167.768499)"><g><path d="M 4 -20.609375 L 10.015625 -20.609375 L 5.65625 0 L -0.359375 0 Z M 4 -20.609375 "/></g></g></g><g fill="#022135" fill-opacity="1"><g transform="translate(267.295545, 167.768499)"><g><path d="M 6.296875 0.3125 C 4.890625 0.3125 3.59375 0.203125 2.40625 -0.015625 C 1.226562 -0.242188 0.253906 -0.554688 -0.515625 -0.953125 L 0.546875 -5.921875 C 1.421875 -5.472656 2.414062 -5.109375 3.53125 -4.828125 C 4.65625 -4.554688 5.71875 -4.421875 6.71875 -4.421875 C 7.875 -4.421875 8.722656 -4.519531 9.265625 -4.71875 C 9.804688 -4.925781 10.140625 -5.328125 10.265625 -5.921875 C 10.285156 -6.003906 10.296875 -6.109375 10.296875 -6.234375 C 10.296875 -6.660156 10.09375 -6.984375 9.6875 -7.203125 C 9.289062 -7.429688 8.503906 -7.75 7.328125 -8.15625 L 6.375 -8.484375 C 4.851562 -9.015625 3.734375 -9.644531 3.015625 -10.375 C 2.304688 -11.113281 1.953125 -12.0625 1.953125 -13.21875 C 1.953125 -13.769531 2.003906 -14.269531 2.109375 -14.71875 C 2.554688 -16.789062 3.578125 -18.34375 5.171875 -19.375 C 6.773438 -20.40625 9.0625 -20.921875 12.03125 -20.921875 C 13.113281 -20.921875 14.238281 -20.832031 15.40625 -20.65625 C 16.570312 -20.476562 17.515625 -20.257812 18.234375 -20 L 17.1875 -15.015625 C 15.476562 -15.753906 13.738281 -16.125 11.96875 -16.125 C 10.832031 -16.125 9.960938 -16.035156 9.359375 -15.859375 C 8.753906 -15.691406 8.382812 -15.320312 8.25 -14.75 C 8.226562 -14.6875 8.21875 -14.59375 8.21875 -14.46875 C 8.21875 -14.101562 8.40625 -13.820312 8.78125 -13.625 C 9.15625 -13.4375 9.910156 -13.171875 11.046875 -12.828125 L 11.6875 -12.640625 C 13.476562 -12.109375 14.75 -11.441406 15.5 -10.640625 C 16.257812 -9.835938 16.640625 -8.863281 16.640625 -7.71875 C 16.640625 -7.269531 16.566406 -6.671875 16.421875 -5.921875 C 15.992188 -3.910156 14.992188 -2.367188 13.421875 -1.296875 C 11.859375 -0.222656 9.484375 0.3125 6.296875 0.3125 Z M 6.296875 0.3125 "/></g></g></g><g fill="#022135" fill-opacity="1"><g transform="translate(285.051178, 167.768499)"><g><path d="M 7.578125 -16.125 L 1.796875 -16.125 L 2.71875 -20.609375 L 20.3125 -20.609375 L 19.390625 -16.125 L 13.59375 -16.125 L 10.171875 0 L 4.15625 0 Z M 7.578125 -16.125 "/></g></g></g><g fill="#022135" fill-opacity="1"><g transform="translate(302.966777, 167.768499)"><g><path d="M 4 -20.609375 L 10.015625 -20.609375 L 5.65625 0 L -0.359375 0 Z M 4 -20.609375 "/></g></g></g><g fill="#022135" fill-opacity="1"><g transform="translate(311.860586, 167.768499)"><g><path d="M 10.40625 0.3125 C 7.414062 0.3125 5.078125 -0.367188 3.390625 -1.734375 C 1.703125 -3.097656 0.859375 -5.035156 0.859375 -7.546875 C 0.859375 -8.359375 0.957031 -9.242188 1.15625 -10.203125 C 1.894531 -13.765625 3.367188 -16.441406 5.578125 -18.234375 C 7.785156 -20.023438 10.894531 -20.921875 14.90625 -20.921875 C 16.125 -20.921875 17.207031 -20.832031 18.15625 -20.65625 C 19.101562 -20.476562 20.035156 -20.207031 20.953125 -19.84375 L 19.84375 -14.59375 C 18.195312 -15.40625 16.328125 -15.8125 14.234375 -15.8125 C 12.273438 -15.8125 10.726562 -15.363281 9.59375 -14.46875 C 8.46875 -13.570312 7.703125 -12.148438 7.296875 -10.203125 C 7.128906 -9.390625 7.046875 -8.71875 7.046875 -8.1875 C 7.046875 -7 7.425781 -6.132812 8.1875 -5.59375 C 8.957031 -5.0625 10.207031 -4.796875 11.9375 -4.796875 C 14.070312 -4.796875 16.117188 -5.191406 18.078125 -5.984375 L 16.953125 -0.703125 C 14.847656 -0.0234375 12.664062 0.3125 10.40625 0.3125 Z M 10.40625 0.3125 "/></g></g></g><g fill="#022135" fill-opacity="1"><g transform="translate(331.279801, 167.768499)"><g><path d="M 6.296875 0.3125 C 4.890625 0.3125 3.59375 0.203125 2.40625 -0.015625 C 1.226562 -0.242188 0.253906 -0.554688 -0.515625 -0.953125 L 0.546875 -5.921875 C 1.421875 -5.472656 2.414062 -5.109375 3.53125 -4.828125 C 4.65625 -4.554688 5.71875 -4.421875 6.71875 -4.421875 C 7.875 -4.421875 8.722656 -4.519531 9.265625 -4.71875 C 9.804688 -4.925781 10.140625 -5.328125 10.265625 -5.921875 C 10.285156 -6.003906 10.296875 -6.109375 10.296875 -6.234375 C 10.296875 -6.660156 10.09375 -6.984375 9.6875 -7.203125 C 9.289062 -7.429688 8.503906 -7.75 7.328125 -8.15625 L 6.375 -8.484375 C 4.851562 -9.015625 3.734375 -9.644531 3.015625 -10.375 C 2.304688 -11.113281 1.953125 -12.0625 1.953125 -13.21875 C 1.953125 -13.769531 2.003906 -14.269531 2.109375 -14.71875 C 2.554688 -16.789062 3.578125 -18.34375 5.171875 -19.375 C 6.773438 -20.40625 9.0625 -20.921875 12.03125 -20.921875 C 13.113281 -20.921875 14.238281 -20.832031 15.40625 -20.65625 C 16.570312 -20.476562 17.515625 -20.257812 18.234375 -20 L 17.1875 -15.015625 C 15.476562 -15.753906 13.738281 -16.125 11.96875 -16.125 C 10.832031 -16.125 9.960938 -16.035156 9.359375 -15.859375 C 8.753906 -15.691406 8.382812 -15.320312 8.25 -14.75 C 8.226562 -14.6875 8.21875 -14.59375 8.21875 -14.46875 C 8.21875 -14.101562 8.40625 -13.820312 8.78125 -13.625 C 9.15625 -13.4375 9.910156 -13.171875 11.046875 -12.828125 L 11.6875 -12.640625 C 13.476562 -12.109375 14.75 -11.441406 15.5 -10.640625 C 16.257812 -9.835938 16.640625 -8.863281 16.640625 -7.71875 C 16.640625 -7.269531 16.566406 -6.671875 16.421875 -5.921875 C 15.992188 -3.910156 14.992188 -2.367188 13.421875 -1.296875 C 11.859375 -0.222656 9.484375 0.3125 6.296875 0.3125 Z M 6.296875 0.3125 "/></g></g></g><g fill="#022135" fill-opacity="1"><g transform="translate(132.588533, 194.018044)"><g><path d="M 0.40625 -6.4375 L 3.875 -6.4375 C 4.65625 -6.4375 5.242188 -6.222656 5.640625 -5.796875 C 6.046875 -5.367188 6.25 -4.800781 6.25 -4.09375 C 6.25 -3.664062 6.144531 -3.285156 5.9375 -2.953125 C 5.726562 -2.628906 5.445312 -2.363281 5.09375 -2.15625 C 5.21875 -2.0625 5.320312 -1.914062 5.40625 -1.71875 L 6.15625 0 L 3.921875 0 L 3.265625 -1.484375 C 3.210938 -1.585938 3.15625 -1.660156 3.09375 -1.703125 C 3.039062 -1.742188 2.960938 -1.765625 2.859375 -1.765625 L 2.546875 -1.765625 L 2.546875 0 L 0.40625 0 Z M 3.34375 -3.421875 C 3.570312 -3.421875 3.75 -3.476562 3.875 -3.59375 C 4 -3.707031 4.0625 -3.875 4.0625 -4.09375 C 4.0625 -4.539062 3.835938 -4.765625 3.390625 -4.765625 L 2.546875 -4.765625 L 2.546875 -3.421875 Z M 3.34375 -3.421875 "/></g></g></g><g fill="#022135" fill-opacity="1"><g transform="translate(141.03598, 194.018044)"><g><path d="M 0.40625 -6.4375 L 5.40625 -6.4375 L 5.40625 -4.84375 L 2.546875 -4.84375 L 2.546875 -4.03125 L 5.046875 -4.03125 L 5.046875 -2.40625 L 2.546875 -2.40625 L 2.546875 -1.59375 L 5.40625 -1.59375 L 5.40625 0 L 0.40625 0 Z M 0.40625 -6.4375 "/></g></g></g><g fill="#022135" fill-opacity="1"><g transform="translate(148.593786, 194.018044)"><g><path d="M 3.921875 0.09375 C 2.703125 0.09375 1.773438 -0.1875 1.140625 -0.75 C 0.515625 -1.3125 0.203125 -2.128906 0.203125 -3.203125 C 0.203125 -4.296875 0.507812 -5.125 1.125 -5.6875 C 1.75 -6.257812 2.675781 -6.546875 3.90625 -6.546875 C 4.289062 -6.546875 4.640625 -6.515625 4.953125 -6.453125 C 5.273438 -6.398438 5.59375 -6.3125 5.90625 -6.1875 L 5.90625 -4.3125 C 5.300781 -4.582031 4.679688 -4.71875 4.046875 -4.71875 C 3.492188 -4.71875 3.078125 -4.597656 2.796875 -4.359375 C 2.523438 -4.117188 2.390625 -3.734375 2.390625 -3.203125 C 2.390625 -2.679688 2.53125 -2.300781 2.8125 -2.0625 C 3.09375 -1.832031 3.507812 -1.71875 4.0625 -1.71875 C 4.71875 -1.71875 5.335938 -1.847656 5.921875 -2.109375 L 5.921875 -0.234375 C 5.609375 -0.117188 5.289062 -0.0351562 4.96875 0.015625 C 4.65625 0.0664062 4.304688 0.09375 3.921875 0.09375 Z M 3.921875 0.09375 "/></g></g></g><g fill="#022135" fill-opacity="1"><g transform="translate(156.711369, 194.018044)"><g><path d="M 0.40625 -6.4375 L 3.875 -6.4375 C 4.65625 -6.4375 5.242188 -6.222656 5.640625 -5.796875 C 6.046875 -5.367188 6.25 -4.800781 6.25 -4.09375 C 6.25 -3.664062 6.144531 -3.285156 5.9375 -2.953125 C 5.726562 -2.628906 5.445312 -2.363281 5.09375 -2.15625 C 5.21875 -2.0625 5.320312 -1.914062 5.40625 -1.71875 L 6.15625 0 L 3.921875 0 L 3.265625 -1.484375 C 3.210938 -1.585938 3.15625 -1.660156 3.09375 -1.703125 C 3.039062 -1.742188 2.960938 -1.765625 2.859375 -1.765625 L 2.546875 -1.765625 L 2.546875 0 L 0.40625 0 Z M 3.34375 -3.421875 C 3.570312 -3.421875 3.75 -3.476562 3.875 -3.59375 C 4 -3.707031 4.0625 -3.875 4.0625 -4.09375 C 4.0625 -4.539062 3.835938 -4.765625 3.390625 -4.765625 L 2.546875 -4.765625 L 2.546875 -3.421875 Z M 3.34375 -3.421875 "/></g></g></g><g fill="#022135" fill-opacity="1"><g transform="translate(165.158816, 194.018044)"><g><path d="M 3.484375 0.09375 C 2.867188 0.09375 2.328125 -0.00390625 1.859375 -0.203125 C 1.390625 -0.398438 1.019531 -0.695312 0.75 -1.09375 C 0.476562 -1.488281 0.34375 -1.960938 0.34375 -2.515625 L 0.34375 -6.4375 L 2.5 -6.4375 L 2.5 -2.765625 C 2.5 -2.066406 2.828125 -1.71875 3.484375 -1.71875 C 4.128906 -1.71875 4.453125 -2.066406 4.453125 -2.765625 L 4.453125 -6.4375 L 6.609375 -6.4375 L 6.609375 -2.515625 C 6.609375 -1.960938 6.472656 -1.488281 6.203125 -1.09375 C 5.941406 -0.695312 5.578125 -0.398438 5.109375 -0.203125 C 4.640625 -0.00390625 4.097656 0.09375 3.484375 0.09375 Z M 3.484375 0.09375 "/></g></g></g><g fill="#022135" fill-opacity="1"><g transform="translate(174.116064, 194.018044)"><g><path d="M 0.40625 -6.4375 L 2.546875 -6.4375 L 2.546875 0 L 0.40625 0 Z M 0.40625 -6.4375 "/></g></g></g><g fill="#022135" fill-opacity="1"><g transform="translate(179.064892, 194.018044)"><g><path d="M 1.71875 -4.875 L 0 -4.875 L 0 -6.4375 L 5.59375 -6.4375 L 5.59375 -4.875 L 3.875 -4.875 L 3.875 0 L 1.71875 0 Z M 1.71875 -4.875 "/></g></g></g><g fill="#022135" fill-opacity="1"><g transform="translate(186.662687, 194.018044)"><g><path d="M 0.40625 -6.4375 L 2.546875 -6.4375 L 2.546875 0 L 0.40625 0 Z M 0.40625 -6.4375 "/></g></g></g><g fill="#022135" fill-opacity="1"><g transform="translate(191.611512, 194.018044)"><g><path d="M 0.40625 -6.4375 L 2.203125 -6.4375 L 4.328125 -3.46875 L 4.328125 -6.4375 L 6.484375 -6.4375 L 6.484375 0 L 4.65625 0 L 2.546875 -2.953125 L 2.546875 0 L 0.40625 0 Z M 0.40625 -6.4375 "/></g></g></g><g fill="#022135" fill-opacity="1"><g transform="translate(200.488797, 194.018044)"><g><path d="M 3.828125 0.09375 C 2.648438 0.09375 1.75 -0.179688 1.125 -0.734375 C 0.507812 -1.296875 0.203125 -2.113281 0.203125 -3.1875 C 0.203125 -4.269531 0.523438 -5.097656 1.171875 -5.671875 C 1.816406 -6.253906 2.753906 -6.546875 3.984375 -6.546875 C 4.765625 -6.546875 5.441406 -6.445312 6.015625 -6.25 L 6.015625 -4.421875 C 5.484375 -4.617188 4.851562 -4.71875 4.125 -4.71875 C 3.5625 -4.71875 3.128906 -4.59375 2.828125 -4.34375 C 2.535156 -4.101562 2.390625 -3.71875 2.390625 -3.1875 C 2.390625 -2.664062 2.503906 -2.289062 2.734375 -2.0625 C 2.972656 -1.832031 3.332031 -1.71875 3.8125 -1.71875 C 4.101562 -1.71875 4.359375 -1.75 4.578125 -1.8125 L 4.578125 -2.484375 L 3.40625 -2.484375 L 3.40625 -3.796875 L 6.375 -3.796875 L 6.375 -0.515625 C 6.082031 -0.328125 5.722656 -0.175781 5.296875 -0.0625 C 4.867188 0.0390625 4.378906 0.09375 3.828125 0.09375 Z M 3.828125 0.09375 "/></g></g></g><g fill="#022135" fill-opacity="1"><g transform="translate(209.056198, 194.018044)"><g/></g></g><g fill="#022135" fill-opacity="1"><g transform="translate(214.254928, 194.018044)"><g><path d="M 2.5625 0.09375 C 2.125 0.09375 1.703125 0.0546875 1.296875 -0.015625 C 0.890625 -0.0859375 0.546875 -0.1875 0.265625 -0.3125 L 0.265625 -2 C 0.578125 -1.851562 0.921875 -1.734375 1.296875 -1.640625 C 1.679688 -1.546875 2.03125 -1.5 2.34375 -1.5 C 2.625 -1.5 2.832031 -1.523438 2.96875 -1.578125 C 3.101562 -1.640625 3.171875 -1.738281 3.171875 -1.875 C 3.171875 -2 3.109375 -2.097656 2.984375 -2.171875 C 2.859375 -2.242188 2.617188 -2.335938 2.265625 -2.453125 C 2.171875 -2.472656 2.046875 -2.507812 1.890625 -2.5625 C 1.453125 -2.71875 1.113281 -2.878906 0.875 -3.046875 C 0.632812 -3.210938 0.460938 -3.414062 0.359375 -3.65625 C 0.253906 -3.894531 0.203125 -4.195312 0.203125 -4.5625 C 0.203125 -5.882812 1.117188 -6.546875 2.953125 -6.546875 C 3.273438 -6.546875 3.632812 -6.515625 4.03125 -6.453125 C 4.425781 -6.390625 4.753906 -6.316406 5.015625 -6.234375 L 5.015625 -4.546875 C 4.398438 -4.796875 3.832031 -4.921875 3.3125 -4.921875 C 3.019531 -4.921875 2.789062 -4.894531 2.625 -4.84375 C 2.46875 -4.800781 2.390625 -4.710938 2.390625 -4.578125 C 2.390625 -4.492188 2.421875 -4.425781 2.484375 -4.375 C 2.554688 -4.320312 2.65625 -4.273438 2.78125 -4.234375 C 2.914062 -4.191406 3.148438 -4.128906 3.484375 -4.046875 C 3.992188 -3.898438 4.382812 -3.726562 4.65625 -3.53125 C 4.925781 -3.332031 5.113281 -3.101562 5.21875 -2.84375 C 5.320312 -2.582031 5.375 -2.265625 5.375 -1.890625 C 5.375 -1.273438 5.132812 -0.789062 4.65625 -0.4375 C 4.175781 -0.0820312 3.476562 0.09375 2.5625 0.09375 Z M 2.5625 0.09375 "/></g></g></g><g fill="#022135" fill-opacity="1"><g transform="translate(221.822723, 194.018044)"><g><path d="M 0.40625 -6.4375 L 5.40625 -6.4375 L 5.40625 -4.84375 L 2.546875 -4.84375 L 2.546875 -4.03125 L 5.046875 -4.03125 L 5.046875 -2.40625 L 2.546875 -2.40625 L 2.546875 -1.59375 L 5.40625 -1.59375 L 5.40625 0 L 0.40625 0 Z M 0.40625 -6.4375 "/></g></g></g><g fill="#022135" fill-opacity="1"><g transform="translate(229.380526, 194.018044)"><g><path d="M 0.40625 -6.4375 L 3.875 -6.4375 C 4.65625 -6.4375 5.242188 -6.222656 5.640625 -5.796875 C 6.046875 -5.367188 6.25 -4.800781 6.25 -4.09375 C 6.25 -3.664062 6.144531 -3.285156 5.9375 -2.953125 C 5.726562 -2.628906 5.445312 -2.363281 5.09375 -2.15625 C 5.21875 -2.0625 5.320312 -1.914062 5.40625 -1.71875 L 6.15625 0 L 3.921875 0 L 3.265625 -1.484375 C 3.210938 -1.585938 3.15625 -1.660156 3.09375 -1.703125 C 3.039062 -1.742188 2.960938 -1.765625 2.859375 -1.765625 L 2.546875 -1.765625 L 2.546875 0 L 0.40625 0 Z M 3.34375 -3.421875 C 3.570312 -3.421875 3.75 -3.476562 3.875 -3.59375 C 4 -3.707031 4.0625 -3.875 4.0625 -4.09375 C 4.0625 -4.539062 3.835938 -4.765625 3.390625 -4.765625 L 2.546875 -4.765625 L 2.546875 -3.421875 Z M 3.34375 -3.421875 "/></g></g></g><g fill="#022135" fill-opacity="1"><g transform="translate(237.827971, 194.018044)"><g><path d="M 0.203125 -6.4375 L 2.4375 -6.4375 L 3.796875 -2.515625 L 5.15625 -6.4375 L 7.40625 -6.4375 L 4.921875 0 L 2.671875 0 Z M 0.203125 -6.4375 "/></g></g></g><g fill="#022135" fill-opacity="1"><g transform="translate(247.424962, 194.018044)"><g><path d="M 0.40625 -6.4375 L 2.546875 -6.4375 L 2.546875 0 L 0.40625 0 Z M 0.40625 -6.4375 "/></g></g></g><g fill="#022135" fill-opacity="1"><g transform="translate(252.373788, 194.018044)"><g><path d="M 3.921875 0.09375 C 2.703125 0.09375 1.773438 -0.1875 1.140625 -0.75 C 0.515625 -1.3125 0.203125 -2.128906 0.203125 -3.203125 C 0.203125 -4.296875 0.507812 -5.125 1.125 -5.6875 C 1.75 -6.257812 2.675781 -6.546875 3.90625 -6.546875 C 4.289062 -6.546875 4.640625 -6.515625 4.953125 -6.453125 C 5.273438 -6.398438 5.59375 -6.3125 5.90625 -6.1875 L 5.90625 -4.3125 C 5.300781 -4.582031 4.679688 -4.71875 4.046875 -4.71875 C 3.492188 -4.71875 3.078125 -4.597656 2.796875 -4.359375 C 2.523438 -4.117188 2.390625 -3.734375 2.390625 -3.203125 C 2.390625 -2.679688 2.53125 -2.300781 2.8125 -2.0625 C 3.09375 -1.832031 3.507812 -1.71875 4.0625 -1.71875 C 4.71875 -1.71875 5.335938 -1.847656 5.921875 -2.109375 L 5.921875 -0.234375 C 5.609375 -0.117188 5.289062 -0.0351562 4.96875 0.015625 C 4.65625 0.0664062 4.304688 0.09375 3.921875 0.09375 Z M 3.921875 0.09375 "/></g></g></g><g fill="#022135" fill-opacity="1"><g transform="translate(260.491368, 194.018044)"><g><path d="M 0.40625 -6.4375 L 5.40625 -6.4375 L 5.40625 -4.84375 L 2.546875 -4.84375 L 2.546875 -4.03125 L 5.046875 -4.03125 L 5.046875 -2.40625 L 2.546875 -2.40625 L 2.546875 -1.59375 L 5.40625 -1.59375 L 5.40625 0 L 0.40625 0 Z M 0.40625 -6.4375 "/></g></g></g><g fill="#022135" fill-opacity="1"><g transform="translate(268.049171, 194.018044)"><g/></g></g><g fill="#022135" fill-opacity="1"><g transform="translate(273.247901, 194.018044)"><g><path d="M 0.40625 -6.4375 L 2.546875 -6.4375 L 2.546875 0 L 0.40625 0 Z M 0.40625 -6.4375 "/></g></g></g><g fill="#022135" fill-opacity="1"><g transform="translate(278.196727, 194.018044)"><g><path d="M 0.40625 -6.4375 L 2.203125 -6.4375 L 4.328125 -3.46875 L 4.328125 -6.4375 L 6.484375 -6.4375 L 6.484375 0 L 4.65625 0 L 2.546875 -2.953125 L 2.546875 0 L 0.40625 0 Z M 0.40625 -6.4375 "/></g></g></g><g fill="#022135" fill-opacity="1"><g transform="translate(287.074011, 194.018044)"><g/></g></g><g fill="#022135" fill-opacity="1"><g transform="translate(292.272741, 194.018044)"><g><path d="M 1.71875 -4.875 L 0 -4.875 L 0 -6.4375 L 5.59375 -6.4375 L 5.59375 -4.875 L 3.875 -4.875 L 3.875 0 L 1.71875 0 Z M 1.71875 -4.875 "/></g></g></g><g fill="#022135" fill-opacity="1"><g transform="translate(299.870531, 194.018044)"><g><path d="M 0.40625 -6.4375 L 3.875 -6.4375 C 4.65625 -6.4375 5.242188 -6.222656 5.640625 -5.796875 C 6.046875 -5.367188 6.25 -4.800781 6.25 -4.09375 C 6.25 -3.664062 6.144531 -3.285156 5.9375 -2.953125 C 5.726562 -2.628906 5.445312 -2.363281 5.09375 -2.15625 C 5.21875 -2.0625 5.320312 -1.914062 5.40625 -1.71875 L 6.15625 0 L 3.921875 0 L 3.265625 -1.484375 C 3.210938 -1.585938 3.15625 -1.660156 3.09375 -1.703125 C 3.039062 -1.742188 2.960938 -1.765625 2.859375 -1.765625 L 2.546875 -1.765625 L 2.546875 0 L 0.40625 0 Z M 3.34375 -3.421875 C 3.570312 -3.421875 3.75 -3.476562 3.875 -3.59375 C 4 -3.707031 4.0625 -3.875 4.0625 -4.09375 C 4.0625 -4.539062 3.835938 -4.765625 3.390625 -4.765625 L 2.546875 -4.765625 L 2.546875 -3.421875 Z M 3.34375 -3.421875 "/></g></g></g><g fill="#022135" fill-opacity="1"><g transform="translate(308.317975, 194.018044)"><g><path d="M 3.484375 0.09375 C 2.867188 0.09375 2.328125 -0.00390625 1.859375 -0.203125 C 1.390625 -0.398438 1.019531 -0.695312 0.75 -1.09375 C 0.476562 -1.488281 0.34375 -1.960938 0.34375 -2.515625 L 0.34375 -6.4375 L 2.5 -6.4375 L 2.5 -2.765625 C 2.5 -2.066406 2.828125 -1.71875 3.484375 -1.71875 C 4.128906 -1.71875 4.453125 -2.066406 4.453125 -2.765625 L 4.453125 -6.4375 L 6.609375 -6.4375 L 6.609375 -2.515625 C 6.609375 -1.960938 6.472656 -1.488281 6.203125 -1.09375 C 5.941406 -0.695312 5.578125 -0.398438 5.109375 -0.203125 C 4.640625 -0.00390625 4.097656 0.09375 3.484375 0.09375 Z M 3.484375 0.09375 "/></g></g></g><g fill="#022135" fill-opacity="1"><g transform="translate(317.275219, 194.018044)"><g><path d="M 3.921875 0.09375 C 2.703125 0.09375 1.773438 -0.1875 1.140625 -0.75 C 0.515625 -1.3125 0.203125 -2.128906 0.203125 -3.203125 C 0.203125 -4.296875 0.507812 -5.125 1.125 -5.6875 C 1.75 -6.257812 2.675781 -6.546875 3.90625 -6.546875 C 4.289062 -6.546875 4.640625 -6.515625 4.953125 -6.453125 C 5.273438 -6.398438 5.59375 -6.3125 5.90625 -6.1875 L 5.90625 -4.3125 C 5.300781 -4.582031 4.679688 -4.71875 4.046875 -4.71875 C 3.492188 -4.71875 3.078125 -4.597656 2.796875 -4.359375 C 2.523438 -4.117188 2.390625 -3.734375 2.390625 -3.203125 C 2.390625 -2.679688 2.53125 -2.300781 2.8125 -2.0625 C 3.09375 -1.832031 3.507812 -1.71875 4.0625 -1.71875 C 4.71875 -1.71875 5.335938 -1.847656 5.921875 -2.109375 L 5.921875 -0.234375 C 5.609375 -0.117188 5.289062 -0.0351562 4.96875 0.015625 C 4.65625 0.0664062 4.304688 0.09375 3.921875 0.09375 Z M 3.921875 0.09375 "/></g></g></g><g fill="#022135" fill-opacity="1"><g transform="translate(325.392811, 194.018044)"><g><path d="M 0.40625 -6.4375 L 2.546875 -6.4375 L 2.546875 -4.40625 L 4.234375 -6.4375 L 6.65625 -6.4375 L 4.4375 -3.78125 L 6.84375 0 L 4.5625 0 L 3.109375 -2.421875 L 2.546875 -1.765625 L 2.546875 0 L 0.40625 0 Z M 0.40625 -6.4375 "/></g></g></g><g fill="#022135" fill-opacity="1"><g transform="translate(334.430026, 194.018044)"><g><path d="M 0.40625 -6.4375 L 2.546875 -6.4375 L 2.546875 0 L 0.40625 0 Z M 0.40625 -6.4375 "/></g></g></g><g fill="#022135" fill-opacity="1"><g transform="translate(339.378863, 194.018044)"><g><path d="M 0.40625 -6.4375 L 2.203125 -6.4375 L 4.328125 -3.46875 L 4.328125 -6.4375 L 6.484375 -6.4375 L 6.484375 0 L 4.65625 0 L 2.546875 -2.953125 L 2.546875 0 L 0.40625 0 Z M 0.40625 -6.4375 "/></g></g></g><g fill="#022135" fill-opacity="1"><g transform="translate(348.256159, 194.018044)"><g><path d="M 3.828125 0.09375 C 2.648438 0.09375 1.75 -0.179688 1.125 -0.734375 C 0.507812 -1.296875 0.203125 -2.113281 0.203125 -3.1875 C 0.203125 -4.269531 0.523438 -5.097656 1.171875 -5.671875 C 1.816406 -6.253906 2.753906 -6.546875 3.984375 -6.546875 C 4.765625 -6.546875 5.441406 -6.445312 6.015625 -6.25 L 6.015625 -4.421875 C 5.484375 -4.617188 4.851562 -4.71875 4.125 -4.71875 C 3.5625 -4.71875 3.128906 -4.59375 2.828125 -4.34375 C 2.535156 -4.101562 2.390625 -3.71875 2.390625 -3.1875 C 2.390625 -2.664062 2.503906 -2.289062 2.734375 -2.0625 C 2.972656 -1.832031 3.332031 -1.71875 3.8125 -1.71875 C 4.101562 -1.71875 4.359375 -1.75 4.578125 -1.8125 L 4.578125 -2.484375 L 3.40625 -2.484375 L 3.40625 -3.796875 L 6.375 -3.796875 L 6.375 -0.515625 C 6.082031 -0.328125 5.722656 -0.175781 5.296875 -0.0625 C 4.867188 0.0390625 4.378906 0.09375 3.828125 0.09375 Z M 3.828125 0.09375 "/></g></g></g></svg>