<svg xmlns="http://www.w3.org/2000/svg" xmlns:xlink="http://www.w3.org/1999/xlink" width="200" zoomAndPan="magnify" viewBox="0 0 150 60" height="80" preserveAspectRatio="xMidYMid meet" version="1.2"><defs><clipPath id="548f61f416"><path d="M 13 33 L 24 33 L 24 41.558594 L 13 41.558594 Z M 13 33 "/></clipPath><clipPath id="153068347f"><path d="M 29 9.308594 L 40 9.308594 L 40 35 L 29 35 Z M 29 9.308594 "/></clipPath><clipPath id="d72266ae11"><path d="M 9.035156 19 L 51 19 L 51 41.558594 L 9.035156 41.558594 Z M 9.035156 19 "/></clipPath><clipPath id="8d5c1bdc01"><path d="M 16 36 L 22 36 L 22 41.558594 L 16 41.558594 Z M 16 36 "/></clipPath></defs><g id="119f5b22ef"><g clip-rule="nonzero" clip-path="url(#548f61f416)"><path style=" stroke:none;fill-rule:nonzero;fill:#000000;fill-opacity:1;" d="M 15.613281 33.863281 C 18.132812 32.691406 21.4375 34.46875 23 37.828125 C 23.578125 39.074219 23.832031 40.359375 23.800781 41.546875 L 23.765625 41.546875 C 23.6875 40.824219 23.484375 40.074219 23.144531 39.34375 C 21.863281 36.589844 19.152344 35.132812 17.085938 36.089844 C 15.332031 36.90625 14.609375 39.191406 15.210938 41.546875 L 13.65625 41.546875 C 12.398438 38.335938 13.222656 34.972656 15.613281 33.863281 "/></g><g clip-rule="nonzero" clip-path="url(#153068347f)"><path style=" stroke:none;fill-rule:nonzero;fill:#000000;fill-opacity:1;" d="M 32.910156 13.796875 C 31.964844 14.285156 31.464844 15.34375 31.6875 16.382812 L 31.960938 17.660156 C 32.105469 18.324219 32.53125 18.890625 33.132812 19.207031 L 33.402344 19.351562 C 34.0625 19.699219 34.511719 20.347656 34.605469 21.089844 L 35.800781 30.492188 C 35.894531 31.226562 36.246094 31.902344 36.792969 32.402344 L 39.199219 34.585938 L 35.316406 33.332031 C 33.773438 32.835938 32.597656 31.578125 32.207031 30.003906 L 29.625 19.671875 C 29.480469 19.105469 29.742188 18.511719 30.257812 18.230469 L 29.667969 15.492188 C 29.339844 13.972656 29.933594 12.402344 31.1875 11.476562 L 34.117188 9.3125 L 33.4375 13.519531 L 32.910156 13.796875 "/></g><path style=" stroke:none;fill-rule:nonzero;fill:#000000;fill-opacity:1;" d="M 33.957031 19.128906 L 33.683594 18.984375 C 33.4375 18.855469 33.226562 18.679688 33.058594 18.472656 L 60.855469 18.472656 L 35.148438 20.496094 C 34.933594 19.914062 34.511719 19.425781 33.957031 19.128906 "/><g clip-rule="nonzero" clip-path="url(#d72266ae11)"><path style=" stroke:none;fill-rule:nonzero;fill:#000000;fill-opacity:1;" d="M 16.390625 29.710938 L 16.566406 27.976562 C 16.695312 26.679688 17.757812 25.675781 19.058594 25.621094 L 22.5 25.46875 C 22.734375 25.460938 22.933594 25.636719 22.957031 25.871094 L 23.238281 29.175781 L 29.90625 29.710938 Z M 21.015625 30.980469 L 22.269531 32.105469 C 22.269531 32.105469 24.171875 31.707031 24.222656 33.507812 L 31.410156 34.734375 L 23.019531 34.308594 Z M 9.253906 37.484375 C 9.449219 37.890625 9.660156 38.5625 9.550781 39.414062 C 9.503906 39.789062 9.613281 40.171875 9.839844 40.476562 L 9.855469 40.496094 C 10.058594 40.773438 10.351562 40.96875 10.6875 41.050781 L 12.699219 41.546875 L 13.304688 41.546875 C 12.027344 38.160156 12.910156 34.640625 15.429688 33.46875 C 18.113281 32.222656 21.632812 34.113281 23.292969 37.691406 C 23.894531 38.980469 24.167969 40.3125 24.148438 41.546875 L 50.972656 41.546875 L 26.027344 40.398438 C 26.027344 40.398438 25.875 39.59375 25.429688 38.519531 L 45.113281 38.042969 L 24.71875 37.082031 C 24.300781 36.367188 23.761719 35.632812 23.070312 34.984375 L 41.203125 36.039062 L 35.226562 34.410156 C 33.351562 33.898438 31.898438 32.414062 31.429688 30.523438 L 28.703125 19.496094 C 28.628906 19.207031 28.363281 19.015625 28.066406 19.039062 C 26.1875 19.199219 19.710938 20.085938 18.109375 24.867188 L 17.363281 24.945312 C 16.523438 25.03125 15.867188 25.710938 15.8125 26.554688 L 15.648438 29.058594 C 15.625 29.417969 15.324219 29.703125 14.960938 29.703125 L 10.722656 29.703125 C 9.757812 29.703125 9.039062 30.59375 9.242188 31.539062 L 10.003906 35.046875 C 10.136719 35.65625 9.917969 36.285156 9.433594 36.679688 C 9.195312 36.875 9.125 37.207031 9.253906 37.484375 "/></g><g clip-rule="nonzero" clip-path="url(#8d5c1bdc01)"><path style=" stroke:none;fill-rule:nonzero;fill:#000000;fill-opacity:1;" d="M 18.203125 37.011719 C 19.613281 36.640625 21.125 37.742188 21.582031 39.472656 C 21.773438 40.203125 21.746094 40.925781 21.546875 41.546875 L 16.75 41.546875 C 16.636719 41.320312 16.546875 41.078125 16.476562 40.820312 C 16.023438 39.089844 16.792969 37.386719 18.203125 37.011719 "/></g><g style="fill:#000000;fill-opacity:1;"><g transform="translate(42.132625, 31.370659)"><path style="stroke:none" d="M 8.109375 -4.953125 C 8.660156 -4.773438 9.085938 -4.484375 9.390625 -4.078125 C 9.703125 -3.679688 9.859375 -3.1875 9.859375 -2.59375 C 9.859375 -1.757812 9.53125 -1.117188 8.875 -0.671875 C 8.226562 -0.222656 7.285156 0 6.046875 0 L 1.125 0 L 1.125 -9.515625 L 5.78125 -9.515625 C 6.9375 -9.515625 7.820312 -9.289062 8.4375 -8.84375 C 9.0625 -8.40625 9.375 -7.804688 9.375 -7.046875 C 9.375 -6.578125 9.265625 -6.160156 9.046875 -5.796875 C 8.828125 -5.441406 8.515625 -5.160156 8.109375 -4.953125 Z M 3.3125 -7.859375 L 3.3125 -5.609375 L 5.5 -5.609375 C 6.050781 -5.609375 6.460938 -5.703125 6.734375 -5.890625 C 7.015625 -6.085938 7.15625 -6.375 7.15625 -6.75 C 7.15625 -7.113281 7.015625 -7.390625 6.734375 -7.578125 C 6.460938 -7.765625 6.050781 -7.859375 5.5 -7.859375 Z M 5.890625 -1.65625 C 6.460938 -1.65625 6.894531 -1.75 7.1875 -1.9375 C 7.488281 -2.132812 7.640625 -2.429688 7.640625 -2.828125 C 7.640625 -3.617188 7.054688 -4.015625 5.890625 -4.015625 L 3.3125 -4.015625 L 3.3125 -1.65625 Z M 5.890625 -1.65625 "/></g></g><g style="fill:#000000;fill-opacity:1;"><g transform="translate(52.529925, 31.370659)"><path style="stroke:none" d="M 7.1875 0 L 5.359375 -2.65625 L 3.328125 -2.65625 L 3.328125 0 L 1.125 0 L 1.125 -9.515625 L 5.25 -9.515625 C 6.09375 -9.515625 6.820312 -9.375 7.4375 -9.09375 C 8.0625 -8.8125 8.539062 -8.410156 8.875 -7.890625 C 9.207031 -7.378906 9.375 -6.769531 9.375 -6.0625 C 9.375 -5.351562 9.203125 -4.742188 8.859375 -4.234375 C 8.523438 -3.722656 8.046875 -3.332031 7.421875 -3.0625 L 9.5625 0 Z M 7.15625 -6.0625 C 7.15625 -6.59375 6.976562 -7 6.625 -7.28125 C 6.28125 -7.570312 5.78125 -7.71875 5.125 -7.71875 L 3.328125 -7.71875 L 3.328125 -4.40625 L 5.125 -4.40625 C 5.78125 -4.40625 6.28125 -4.550781 6.625 -4.84375 C 6.976562 -5.132812 7.15625 -5.539062 7.15625 -6.0625 Z M 7.15625 -6.0625 "/></g></g><g style="fill:#000000;fill-opacity:1;"><g transform="translate(62.383508, 31.370659)"><path style="stroke:none" d="M 3.09375 -7.71875 L 0.046875 -7.71875 L 0.046875 -9.515625 L 8.34375 -9.515625 L 8.34375 -7.71875 L 5.296875 -7.71875 L 5.296875 0 L 3.09375 0 Z M 3.09375 -7.71875 "/></g></g><g style="fill:#000000;fill-opacity:1;"><g transform="translate(70.782895, 31.370659)"><path style="stroke:none" d=""/></g></g><g style="fill:#000000;fill-opacity:1;"><g transform="translate(74.629221, 31.370659)"><path style="stroke:none" d="M 1.125 -9.515625 L 3.328125 -9.515625 L 3.328125 -1.796875 L 8.109375 -1.796875 L 8.109375 0 L 1.125 0 Z M 1.125 -9.515625 "/></g></g><g style="fill:#000000;fill-opacity:1;"><g transform="translate(82.783955, 31.370659)"><path style="stroke:none" d="M 4.453125 0.109375 C 3.679688 0.109375 2.988281 -0.0507812 2.375 -0.375 C 1.769531 -0.695312 1.296875 -1.140625 0.953125 -1.703125 C 0.609375 -2.273438 0.4375 -2.925781 0.4375 -3.65625 C 0.4375 -4.382812 0.609375 -5.03125 0.953125 -5.59375 C 1.296875 -6.164062 1.769531 -6.613281 2.375 -6.9375 C 2.988281 -7.257812 3.679688 -7.421875 4.453125 -7.421875 C 5.222656 -7.421875 5.910156 -7.257812 6.515625 -6.9375 C 7.128906 -6.613281 7.609375 -6.164062 7.953125 -5.59375 C 8.296875 -5.03125 8.46875 -4.382812 8.46875 -3.65625 C 8.46875 -2.925781 8.296875 -2.273438 7.953125 -1.703125 C 7.609375 -1.140625 7.128906 -0.695312 6.515625 -0.375 C 5.910156 -0.0507812 5.222656 0.109375 4.453125 0.109375 Z M 4.453125 -1.625 C 5.003906 -1.625 5.453125 -1.804688 5.796875 -2.171875 C 6.148438 -2.546875 6.328125 -3.039062 6.328125 -3.65625 C 6.328125 -4.269531 6.148438 -4.757812 5.796875 -5.125 C 5.453125 -5.5 5.003906 -5.6875 4.453125 -5.6875 C 3.910156 -5.6875 3.460938 -5.5 3.109375 -5.125 C 2.753906 -4.757812 2.578125 -4.269531 2.578125 -3.65625 C 2.578125 -3.039062 2.753906 -2.546875 3.109375 -2.171875 C 3.460938 -1.804688 3.910156 -1.625 4.453125 -1.625 Z M 4.453125 -1.625 "/></g></g><g style="fill:#000000;fill-opacity:1;"><g transform="translate(91.686228, 31.370659)"><path style="stroke:none" d="M 8.515625 -7.3125 L 8.515625 -1.21875 C 8.515625 0.113281 8.164062 1.109375 7.46875 1.765625 C 6.78125 2.421875 5.765625 2.75 4.421875 2.75 C 3.710938 2.75 3.039062 2.660156 2.40625 2.484375 C 1.769531 2.316406 1.242188 2.066406 0.828125 1.734375 L 1.671875 0.21875 C 1.984375 0.46875 2.375 0.664062 2.84375 0.8125 C 3.3125 0.96875 3.78125 1.046875 4.25 1.046875 C 4.988281 1.046875 5.53125 0.878906 5.875 0.546875 C 6.226562 0.210938 6.40625 -0.285156 6.40625 -0.953125 L 6.40625 -1.265625 C 5.851562 -0.660156 5.082031 -0.359375 4.09375 -0.359375 C 3.414062 -0.359375 2.796875 -0.503906 2.234375 -0.796875 C 1.679688 -1.085938 1.242188 -1.5 0.921875 -2.03125 C 0.597656 -2.570312 0.4375 -3.191406 0.4375 -3.890625 C 0.4375 -4.585938 0.597656 -5.203125 0.921875 -5.734375 C 1.242188 -6.265625 1.679688 -6.675781 2.234375 -6.96875 C 2.796875 -7.269531 3.414062 -7.421875 4.09375 -7.421875 C 5.15625 -7.421875 5.960938 -7.070312 6.515625 -6.375 L 6.515625 -7.3125 Z M 4.515625 -2.09375 C 5.078125 -2.09375 5.535156 -2.253906 5.890625 -2.578125 C 6.253906 -2.910156 6.4375 -3.347656 6.4375 -3.890625 C 6.4375 -4.421875 6.253906 -4.851562 5.890625 -5.1875 C 5.535156 -5.519531 5.078125 -5.6875 4.515625 -5.6875 C 3.953125 -5.6875 3.488281 -5.519531 3.125 -5.1875 C 2.757812 -4.851562 2.578125 -4.421875 2.578125 -3.890625 C 2.578125 -3.347656 2.757812 -2.910156 3.125 -2.578125 C 3.488281 -2.253906 3.953125 -2.09375 4.515625 -2.09375 Z M 4.515625 -2.09375 "/></g></g><g style="fill:#000000;fill-opacity:1;"><g transform="translate(101.200108, 31.370659)"><path style="stroke:none" d="M 0.984375 -7.3125 L 3.09375 -7.3125 L 3.09375 0 L 0.984375 0 Z M 2.03125 -8.328125 C 1.644531 -8.328125 1.328125 -8.441406 1.078125 -8.671875 C 0.835938 -8.898438 0.71875 -9.179688 0.71875 -9.515625 C 0.71875 -9.847656 0.835938 -10.128906 1.078125 -10.359375 C 1.328125 -10.585938 1.644531 -10.703125 2.03125 -10.703125 C 2.414062 -10.703125 2.726562 -10.59375 2.96875 -10.375 C 3.21875 -10.15625 3.34375 -9.882812 3.34375 -9.5625 C 3.34375 -9.207031 3.21875 -8.910156 2.96875 -8.671875 C 2.726562 -8.441406 2.414062 -8.328125 2.03125 -8.328125 Z M 2.03125 -8.328125 "/></g></g><g style="fill:#000000;fill-opacity:1;"><g transform="translate(105.291075, 31.370659)"><path style="stroke:none" d="M 3.4375 0.109375 C 2.832031 0.109375 2.238281 0.0351562 1.65625 -0.109375 C 1.070312 -0.265625 0.609375 -0.453125 0.265625 -0.671875 L 0.984375 -2.203125 C 1.304688 -1.992188 1.695312 -1.820312 2.15625 -1.6875 C 2.625 -1.5625 3.078125 -1.5 3.515625 -1.5 C 4.410156 -1.5 4.859375 -1.71875 4.859375 -2.15625 C 4.859375 -2.363281 4.734375 -2.515625 4.484375 -2.609375 C 4.242188 -2.703125 3.875 -2.78125 3.375 -2.84375 C 2.769531 -2.9375 2.273438 -3.039062 1.890625 -3.15625 C 1.503906 -3.269531 1.164062 -3.476562 0.875 -3.78125 C 0.59375 -4.082031 0.453125 -4.507812 0.453125 -5.0625 C 0.453125 -5.519531 0.582031 -5.925781 0.84375 -6.28125 C 1.113281 -6.644531 1.503906 -6.925781 2.015625 -7.125 C 2.523438 -7.320312 3.128906 -7.421875 3.828125 -7.421875 C 4.347656 -7.421875 4.863281 -7.363281 5.375 -7.25 C 5.882812 -7.132812 6.304688 -6.976562 6.640625 -6.78125 L 5.9375 -5.28125 C 5.289062 -5.632812 4.585938 -5.8125 3.828125 -5.8125 C 3.378906 -5.8125 3.039062 -5.75 2.8125 -5.625 C 2.582031 -5.5 2.46875 -5.335938 2.46875 -5.140625 C 2.46875 -4.910156 2.585938 -4.75 2.828125 -4.65625 C 3.078125 -4.570312 3.472656 -4.488281 4.015625 -4.40625 C 4.609375 -4.300781 5.09375 -4.191406 5.46875 -4.078125 C 5.851562 -3.972656 6.1875 -3.769531 6.46875 -3.46875 C 6.75 -3.164062 6.890625 -2.75 6.890625 -2.21875 C 6.890625 -1.757812 6.753906 -1.351562 6.484375 -1 C 6.210938 -0.644531 5.816406 -0.367188 5.296875 -0.171875 C 4.773438 0.015625 4.15625 0.109375 3.4375 0.109375 Z M 3.4375 0.109375 "/></g></g><g style="fill:#000000;fill-opacity:1;"><g transform="translate(112.508028, 31.370659)"><path style="stroke:none" d="M 5.703125 -0.359375 C 5.492188 -0.203125 5.234375 -0.0820312 4.921875 0 C 4.617188 0.0703125 4.300781 0.109375 3.96875 0.109375 C 3.101562 0.109375 2.429688 -0.109375 1.953125 -0.546875 C 1.472656 -0.992188 1.234375 -1.648438 1.234375 -2.515625 L 1.234375 -5.515625 L 0.109375 -5.515625 L 0.109375 -7.15625 L 1.234375 -7.15625 L 1.234375 -8.9375 L 3.359375 -8.9375 L 3.359375 -7.15625 L 5.171875 -7.15625 L 5.171875 -5.515625 L 3.359375 -5.515625 L 3.359375 -2.546875 C 3.359375 -2.234375 3.4375 -1.992188 3.59375 -1.828125 C 3.75 -1.660156 3.972656 -1.578125 4.265625 -1.578125 C 4.597656 -1.578125 4.882812 -1.664062 5.125 -1.84375 Z M 5.703125 -0.359375 "/></g></g><g style="fill:#000000;fill-opacity:1;"><g transform="translate(118.420222, 31.370659)"><path style="stroke:none" d="M 0.984375 -7.3125 L 3.09375 -7.3125 L 3.09375 0 L 0.984375 0 Z M 2.03125 -8.328125 C 1.644531 -8.328125 1.328125 -8.441406 1.078125 -8.671875 C 0.835938 -8.898438 0.71875 -9.179688 0.71875 -9.515625 C 0.71875 -9.847656 0.835938 -10.128906 1.078125 -10.359375 C 1.328125 -10.585938 1.644531 -10.703125 2.03125 -10.703125 C 2.414062 -10.703125 2.726562 -10.59375 2.96875 -10.375 C 3.21875 -10.15625 3.34375 -9.882812 3.34375 -9.5625 C 3.34375 -9.207031 3.21875 -8.910156 2.96875 -8.671875 C 2.726562 -8.441406 2.414062 -8.328125 2.03125 -8.328125 Z M 2.03125 -8.328125 "/></g></g><g style="fill:#000000;fill-opacity:1;"><g transform="translate(122.511188, 31.370659)"><path style="stroke:none" d="M 4.515625 0.109375 C 3.734375 0.109375 3.03125 -0.0507812 2.40625 -0.375 C 1.789062 -0.695312 1.304688 -1.140625 0.953125 -1.703125 C 0.609375 -2.273438 0.4375 -2.925781 0.4375 -3.65625 C 0.4375 -4.382812 0.609375 -5.03125 0.953125 -5.59375 C 1.304688 -6.164062 1.789062 -6.613281 2.40625 -6.9375 C 3.03125 -7.257812 3.734375 -7.421875 4.515625 -7.421875 C 5.285156 -7.421875 5.957031 -7.257812 6.53125 -6.9375 C 7.101562 -6.613281 7.523438 -6.15625 7.796875 -5.5625 L 6.140625 -4.671875 C 5.765625 -5.347656 5.21875 -5.6875 4.5 -5.6875 C 3.945312 -5.6875 3.488281 -5.503906 3.125 -5.140625 C 2.757812 -4.773438 2.578125 -4.28125 2.578125 -3.65625 C 2.578125 -3.03125 2.757812 -2.535156 3.125 -2.171875 C 3.488281 -1.804688 3.945312 -1.625 4.5 -1.625 C 5.226562 -1.625 5.773438 -1.960938 6.140625 -2.640625 L 7.796875 -1.734375 C 7.523438 -1.160156 7.101562 -0.707031 6.53125 -0.375 C 5.957031 -0.0507812 5.285156 0.109375 4.515625 0.109375 Z M 4.515625 0.109375 "/></g></g><g style="fill:#000000;fill-opacity:1;"><g transform="translate(130.543622, 31.370659)"><path style="stroke:none" d="M 3.4375 0.109375 C 2.832031 0.109375 2.238281 0.0351562 1.65625 -0.109375 C 1.070312 -0.265625 0.609375 -0.453125 0.265625 -0.671875 L 0.984375 -2.203125 C 1.304688 -1.992188 1.695312 -1.820312 2.15625 -1.6875 C 2.625 -1.5625 3.078125 -1.5 3.515625 -1.5 C 4.410156 -1.5 4.859375 -1.71875 4.859375 -2.15625 C 4.859375 -2.363281 4.734375 -2.515625 4.484375 -2.609375 C 4.242188 -2.703125 3.875 -2.78125 3.375 -2.84375 C 2.769531 -2.9375 2.273438 -3.039062 1.890625 -3.15625 C 1.503906 -3.269531 1.164062 -3.476562 0.875 -3.78125 C 0.59375 -4.082031 0.453125 -4.507812 0.453125 -5.0625 C 0.453125 -5.519531 0.582031 -5.925781 0.84375 -6.28125 C 1.113281 -6.644531 1.503906 -6.925781 2.015625 -7.125 C 2.523438 -7.320312 3.128906 -7.421875 3.828125 -7.421875 C 4.347656 -7.421875 4.863281 -7.363281 5.375 -7.25 C 5.882812 -7.132812 6.304688 -6.976562 6.640625 -6.78125 L 5.9375 -5.28125 C 5.289062 -5.632812 4.585938 -5.8125 3.828125 -5.8125 C 3.378906 -5.8125 3.039062 -5.75 2.8125 -5.625 C 2.582031 -5.5 2.46875 -5.335938 2.46875 -5.140625 C 2.46875 -4.910156 2.585938 -4.75 2.828125 -4.65625 C 3.078125 -4.570312 3.472656 -4.488281 4.015625 -4.40625 C 4.609375 -4.300781 5.09375 -4.191406 5.46875 -4.078125 C 5.851562 -3.972656 6.1875 -3.769531 6.46875 -3.46875 C 6.75 -3.164062 6.890625 -2.75 6.890625 -2.21875 C 6.890625 -1.757812 6.753906 -1.351562 6.484375 -1 C 6.210938 -0.644531 5.816406 -0.367188 5.296875 -0.171875 C 4.773438 0.015625 4.15625 0.109375 3.4375 0.109375 Z M 3.4375 0.109375 "/></g></g><g style="fill:#000000;fill-opacity:1;"><g transform="translate(57.726143, 41.033846)"><path style="stroke:none" d="M 3.375 0 L 2.515625 -1.25 L 1.5625 -1.25 L 1.5625 0 L 0.53125 0 L 0.53125 -4.46875 L 2.453125 -4.46875 C 2.847656 -4.46875 3.191406 -4.398438 3.484375 -4.265625 C 3.773438 -4.128906 4 -3.941406 4.15625 -3.703125 C 4.320312 -3.460938 4.40625 -3.175781 4.40625 -2.84375 C 4.40625 -2.507812 4.320312 -2.222656 4.15625 -1.984375 C 4 -1.742188 3.773438 -1.5625 3.484375 -1.4375 L 4.484375 0 Z M 3.359375 -2.84375 C 3.359375 -3.09375 3.273438 -3.285156 3.109375 -3.421875 C 2.953125 -3.554688 2.71875 -3.625 2.40625 -3.625 L 1.5625 -3.625 L 1.5625 -2.0625 L 2.40625 -2.0625 C 2.71875 -2.0625 2.953125 -2.128906 3.109375 -2.265625 C 3.273438 -2.398438 3.359375 -2.59375 3.359375 -2.84375 Z M 3.359375 -2.84375 "/></g></g><g style="fill:#000000;fill-opacity:1;"><g transform="translate(62.415252, 41.033846)"><path style="stroke:none" d="M 3.8125 -1.703125 C 3.8125 -1.691406 3.804688 -1.601562 3.796875 -1.4375 L 1.203125 -1.4375 C 1.253906 -1.21875 1.363281 -1.046875 1.53125 -0.921875 C 1.707031 -0.804688 1.925781 -0.75 2.1875 -0.75 C 2.363281 -0.75 2.519531 -0.773438 2.65625 -0.828125 C 2.800781 -0.878906 2.929688 -0.960938 3.046875 -1.078125 L 3.578125 -0.5 C 3.253906 -0.132812 2.78125 0.046875 2.15625 0.046875 C 1.769531 0.046875 1.425781 -0.0234375 1.125 -0.171875 C 0.832031 -0.328125 0.601562 -0.535156 0.4375 -0.796875 C 0.28125 -1.066406 0.203125 -1.375 0.203125 -1.71875 C 0.203125 -2.050781 0.28125 -2.351562 0.4375 -2.625 C 0.601562 -2.894531 0.820312 -3.101562 1.09375 -3.25 C 1.375 -3.40625 1.6875 -3.484375 2.03125 -3.484375 C 2.363281 -3.484375 2.664062 -3.410156 2.9375 -3.265625 C 3.21875 -3.117188 3.429688 -2.910156 3.578125 -2.640625 C 3.734375 -2.367188 3.8125 -2.054688 3.8125 -1.703125 Z M 2.046875 -2.734375 C 1.816406 -2.734375 1.625 -2.664062 1.46875 -2.53125 C 1.320312 -2.40625 1.226562 -2.234375 1.1875 -2.015625 L 2.875 -2.015625 C 2.84375 -2.234375 2.75 -2.40625 2.59375 -2.53125 C 2.445312 -2.664062 2.265625 -2.734375 2.046875 -2.734375 Z M 2.046875 -2.734375 "/></g></g><g style="fill:#000000;fill-opacity:1;"><g transform="translate(66.440868, 41.033846)"><path style="stroke:none" d="M 2.109375 0.046875 C 1.742188 0.046875 1.414062 -0.0234375 1.125 -0.171875 C 0.832031 -0.328125 0.601562 -0.535156 0.4375 -0.796875 C 0.28125 -1.066406 0.203125 -1.375 0.203125 -1.71875 C 0.203125 -2.050781 0.28125 -2.351562 0.4375 -2.625 C 0.601562 -2.894531 0.832031 -3.101562 1.125 -3.25 C 1.414062 -3.40625 1.742188 -3.484375 2.109375 -3.484375 C 2.472656 -3.484375 2.789062 -3.40625 3.0625 -3.25 C 3.332031 -3.101562 3.53125 -2.890625 3.65625 -2.609375 L 2.875 -2.1875 C 2.695312 -2.507812 2.441406 -2.671875 2.109375 -2.671875 C 1.847656 -2.671875 1.632812 -2.582031 1.46875 -2.40625 C 1.300781 -2.238281 1.21875 -2.007812 1.21875 -1.71875 C 1.21875 -1.425781 1.300781 -1.191406 1.46875 -1.015625 C 1.632812 -0.847656 1.847656 -0.765625 2.109375 -0.765625 C 2.453125 -0.765625 2.707031 -0.921875 2.875 -1.234375 L 3.65625 -0.8125 C 3.53125 -0.539062 3.332031 -0.328125 3.0625 -0.171875 C 2.789062 -0.0234375 2.472656 0.046875 2.109375 0.046875 Z M 2.109375 0.046875 "/></g></g><g style="fill:#000000;fill-opacity:1;"><g transform="translate(70.211295, 41.033846)"><path style="stroke:none" d="M 1.40625 -2.984375 C 1.53125 -3.140625 1.691406 -3.257812 1.890625 -3.34375 C 2.085938 -3.4375 2.320312 -3.484375 2.59375 -3.484375 L 2.59375 -2.5625 C 2.476562 -2.570312 2.398438 -2.578125 2.359375 -2.578125 C 2.078125 -2.578125 1.851562 -2.492188 1.6875 -2.328125 C 1.53125 -2.171875 1.453125 -1.9375 1.453125 -1.625 L 1.453125 0 L 0.453125 0 L 0.453125 -3.4375 L 1.40625 -3.4375 Z M 1.40625 -2.984375 "/></g></g><g style="fill:#000000;fill-opacity:1;"><g transform="translate(72.960963, 41.033846)"><path style="stroke:none" d="M 3.921875 -3.4375 L 3.921875 0 L 2.96875 0 L 2.96875 -0.40625 C 2.832031 -0.257812 2.671875 -0.144531 2.484375 -0.0625 C 2.304688 0.0078125 2.113281 0.046875 1.90625 0.046875 C 1.457031 0.046875 1.097656 -0.0820312 0.828125 -0.34375 C 0.566406 -0.601562 0.4375 -0.984375 0.4375 -1.484375 L 0.4375 -3.4375 L 1.4375 -3.4375 L 1.4375 -1.640625 C 1.4375 -1.085938 1.664062 -0.8125 2.125 -0.8125 C 2.363281 -0.8125 2.554688 -0.890625 2.703125 -1.046875 C 2.847656 -1.203125 2.921875 -1.429688 2.921875 -1.734375 L 2.921875 -3.4375 Z M 3.921875 -3.4375 "/></g></g><g style="fill:#000000;fill-opacity:1;"><g transform="translate(77.343845, 41.033846)"><path style="stroke:none" d="M 0.453125 -3.4375 L 1.453125 -3.4375 L 1.453125 0 L 0.453125 0 Z M 0.96875 -3.90625 C 0.78125 -3.90625 0.628906 -3.957031 0.515625 -4.0625 C 0.398438 -4.175781 0.34375 -4.3125 0.34375 -4.46875 C 0.34375 -4.625 0.398438 -4.753906 0.515625 -4.859375 C 0.628906 -4.960938 0.78125 -5.015625 0.96875 -5.015625 C 1.144531 -5.015625 1.289062 -4.960938 1.40625 -4.859375 C 1.519531 -4.765625 1.578125 -4.640625 1.578125 -4.484375 C 1.578125 -4.316406 1.519531 -4.175781 1.40625 -4.0625 C 1.289062 -3.957031 1.144531 -3.90625 0.96875 -3.90625 Z M 0.96875 -3.90625 "/></g></g><g style="fill:#000000;fill-opacity:1;"><g transform="translate(79.264146, 41.033846)"><path style="stroke:none" d="M 2.671875 -0.171875 C 2.578125 -0.0976562 2.457031 -0.0390625 2.3125 0 C 2.164062 0.03125 2.015625 0.046875 1.859375 0.046875 C 1.453125 0.046875 1.132812 -0.0546875 0.90625 -0.265625 C 0.6875 -0.472656 0.578125 -0.773438 0.578125 -1.171875 L 0.578125 -2.59375 L 0.046875 -2.59375 L 0.046875 -3.359375 L 0.578125 -3.359375 L 0.578125 -4.1875 L 1.578125 -4.1875 L 1.578125 -3.359375 L 2.421875 -3.359375 L 2.421875 -2.59375 L 1.578125 -2.59375 L 1.578125 -1.1875 C 1.578125 -1.039062 1.613281 -0.925781 1.6875 -0.84375 C 1.757812 -0.769531 1.863281 -0.734375 2 -0.734375 C 2.15625 -0.734375 2.289062 -0.773438 2.40625 -0.859375 Z M 2.671875 -0.171875 "/></g></g><g style="fill:#000000;fill-opacity:1;"><g transform="translate(82.039332, 41.033846)"><path style="stroke:none" d="M 0.453125 -3.4375 L 1.453125 -3.4375 L 1.453125 0 L 0.453125 0 Z M 0.96875 -3.90625 C 0.78125 -3.90625 0.628906 -3.957031 0.515625 -4.0625 C 0.398438 -4.175781 0.34375 -4.3125 0.34375 -4.46875 C 0.34375 -4.625 0.398438 -4.753906 0.515625 -4.859375 C 0.628906 -4.960938 0.78125 -5.015625 0.96875 -5.015625 C 1.144531 -5.015625 1.289062 -4.960938 1.40625 -4.859375 C 1.519531 -4.765625 1.578125 -4.640625 1.578125 -4.484375 C 1.578125 -4.316406 1.519531 -4.175781 1.40625 -4.0625 C 1.289062 -3.957031 1.144531 -3.90625 0.96875 -3.90625 Z M 0.96875 -3.90625 "/></g></g><g style="fill:#000000;fill-opacity:1;"><g transform="translate(83.959634, 41.033846)"><path style="stroke:none" d="M 2.546875 -3.484375 C 2.972656 -3.484375 3.316406 -3.351562 3.578125 -3.09375 C 3.835938 -2.84375 3.96875 -2.46875 3.96875 -1.96875 L 3.96875 0 L 2.96875 0 L 2.96875 -1.8125 C 2.96875 -2.082031 2.90625 -2.285156 2.78125 -2.421875 C 2.664062 -2.554688 2.5 -2.625 2.28125 -2.625 C 2.03125 -2.625 1.828125 -2.546875 1.671875 -2.390625 C 1.523438 -2.234375 1.453125 -2.003906 1.453125 -1.703125 L 1.453125 0 L 0.453125 0 L 0.453125 -3.4375 L 1.40625 -3.4375 L 1.40625 -3.03125 C 1.539062 -3.175781 1.703125 -3.285156 1.890625 -3.359375 C 2.085938 -3.441406 2.304688 -3.484375 2.546875 -3.484375 Z M 2.546875 -3.484375 "/></g></g><g style="fill:#000000;fill-opacity:1;"><g transform="translate(88.40632, 41.033846)"><path style="stroke:none" d="M 4 -3.4375 L 4 -0.578125 C 4 0.0546875 3.832031 0.523438 3.5 0.828125 C 3.175781 1.128906 2.703125 1.28125 2.078125 1.28125 C 1.742188 1.28125 1.425781 1.238281 1.125 1.15625 C 0.832031 1.082031 0.585938 0.96875 0.390625 0.8125 L 0.78125 0.109375 C 0.925781 0.222656 1.109375 0.3125 1.328125 0.375 C 1.546875 0.445312 1.769531 0.484375 2 0.484375 C 2.34375 0.484375 2.59375 0.40625 2.75 0.25 C 2.914062 0.101562 3 -0.128906 3 -0.453125 L 3 -0.59375 C 2.738281 -0.3125 2.378906 -0.171875 1.921875 -0.171875 C 1.609375 -0.171875 1.316406 -0.238281 1.046875 -0.375 C 0.785156 -0.507812 0.578125 -0.703125 0.421875 -0.953125 C 0.273438 -1.203125 0.203125 -1.492188 0.203125 -1.828125 C 0.203125 -2.148438 0.273438 -2.4375 0.421875 -2.6875 C 0.578125 -2.9375 0.785156 -3.128906 1.046875 -3.265625 C 1.316406 -3.410156 1.609375 -3.484375 1.921875 -3.484375 C 2.421875 -3.484375 2.796875 -3.316406 3.046875 -2.984375 L 3.046875 -3.4375 Z M 2.109375 -0.984375 C 2.378906 -0.984375 2.597656 -1.0625 2.765625 -1.21875 C 2.929688 -1.375 3.015625 -1.578125 3.015625 -1.828125 C 3.015625 -2.078125 2.929688 -2.28125 2.765625 -2.4375 C 2.597656 -2.59375 2.378906 -2.671875 2.109375 -2.671875 C 1.847656 -2.671875 1.632812 -2.59375 1.46875 -2.4375 C 1.300781 -2.28125 1.21875 -2.078125 1.21875 -1.828125 C 1.21875 -1.578125 1.300781 -1.375 1.46875 -1.21875 C 1.632812 -1.0625 1.847656 -0.984375 2.109375 -0.984375 Z M 2.109375 -0.984375 "/></g></g><g style="fill:#000000;fill-opacity:1;"><g transform="translate(92.872139, 41.033846)"><path style="stroke:none" d=""/></g></g><g style="fill:#000000;fill-opacity:1;"><g transform="translate(94.677604, 41.033846)"><path style="stroke:none" d="M 2 0.078125 C 1.644531 0.078125 1.300781 0.03125 0.96875 -0.0625 C 0.644531 -0.15625 0.378906 -0.28125 0.171875 -0.4375 L 0.53125 -1.21875 C 0.71875 -1.070312 0.941406 -0.957031 1.203125 -0.875 C 1.472656 -0.789062 1.738281 -0.75 2 -0.75 C 2.289062 -0.75 2.503906 -0.789062 2.640625 -0.875 C 2.785156 -0.96875 2.859375 -1.085938 2.859375 -1.234375 C 2.859375 -1.335938 2.816406 -1.421875 2.734375 -1.484375 C 2.648438 -1.554688 2.539062 -1.613281 2.40625 -1.65625 C 2.28125 -1.707031 2.109375 -1.753906 1.890625 -1.796875 C 1.554688 -1.878906 1.28125 -1.960938 1.0625 -2.046875 C 0.84375 -2.128906 0.65625 -2.257812 0.5 -2.4375 C 0.34375 -2.613281 0.265625 -2.851562 0.265625 -3.15625 C 0.265625 -3.40625 0.332031 -3.632812 0.46875 -3.84375 C 0.613281 -4.0625 0.828125 -4.226562 1.109375 -4.34375 C 1.390625 -4.46875 1.734375 -4.53125 2.140625 -4.53125 C 2.429688 -4.53125 2.710938 -4.492188 2.984375 -4.421875 C 3.253906 -4.359375 3.492188 -4.265625 3.703125 -4.140625 L 3.375 -3.359375 C 2.96875 -3.585938 2.554688 -3.703125 2.140625 -3.703125 C 1.847656 -3.703125 1.632812 -3.65625 1.5 -3.5625 C 1.363281 -3.476562 1.296875 -3.359375 1.296875 -3.203125 C 1.296875 -3.046875 1.375 -2.929688 1.53125 -2.859375 C 1.6875 -2.785156 1.929688 -2.710938 2.265625 -2.640625 C 2.597656 -2.554688 2.875 -2.472656 3.09375 -2.390625 C 3.3125 -2.316406 3.5 -2.191406 3.65625 -2.015625 C 3.8125 -1.835938 3.890625 -1.601562 3.890625 -1.3125 C 3.890625 -1.050781 3.816406 -0.816406 3.671875 -0.609375 C 3.535156 -0.398438 3.320312 -0.234375 3.03125 -0.109375 C 2.75 0.015625 2.40625 0.078125 2 0.078125 Z M 2 0.078125 "/></g></g><g style="fill:#000000;fill-opacity:1;"><g transform="translate(98.747877, 41.033846)"><path style="stroke:none" d="M 3.8125 -1.703125 C 3.8125 -1.691406 3.804688 -1.601562 3.796875 -1.4375 L 1.203125 -1.4375 C 1.253906 -1.21875 1.363281 -1.046875 1.53125 -0.921875 C 1.707031 -0.804688 1.925781 -0.75 2.1875 -0.75 C 2.363281 -0.75 2.519531 -0.773438 2.65625 -0.828125 C 2.800781 -0.878906 2.929688 -0.960938 3.046875 -1.078125 L 3.578125 -0.5 C 3.253906 -0.132812 2.78125 0.046875 2.15625 0.046875 C 1.769531 0.046875 1.425781 -0.0234375 1.125 -0.171875 C 0.832031 -0.328125 0.601562 -0.535156 0.4375 -0.796875 C 0.28125 -1.066406 0.203125 -1.375 0.203125 -1.71875 C 0.203125 -2.050781 0.28125 -2.351562 0.4375 -2.625 C 0.601562 -2.894531 0.820312 -3.101562 1.09375 -3.25 C 1.375 -3.40625 1.6875 -3.484375 2.03125 -3.484375 C 2.363281 -3.484375 2.664062 -3.410156 2.9375 -3.265625 C 3.21875 -3.117188 3.429688 -2.910156 3.578125 -2.640625 C 3.734375 -2.367188 3.8125 -2.054688 3.8125 -1.703125 Z M 2.046875 -2.734375 C 1.816406 -2.734375 1.625 -2.664062 1.46875 -2.53125 C 1.320312 -2.40625 1.226562 -2.234375 1.1875 -2.015625 L 2.875 -2.015625 C 2.84375 -2.234375 2.75 -2.40625 2.59375 -2.53125 C 2.445312 -2.664062 2.265625 -2.734375 2.046875 -2.734375 Z M 2.046875 -2.734375 "/></g></g><g style="fill:#000000;fill-opacity:1;"><g transform="translate(102.773493, 41.033846)"><path style="stroke:none" d="M 1.40625 -2.984375 C 1.53125 -3.140625 1.691406 -3.257812 1.890625 -3.34375 C 2.085938 -3.4375 2.320312 -3.484375 2.59375 -3.484375 L 2.59375 -2.5625 C 2.476562 -2.570312 2.398438 -2.578125 2.359375 -2.578125 C 2.078125 -2.578125 1.851562 -2.492188 1.6875 -2.328125 C 1.53125 -2.171875 1.453125 -1.9375 1.453125 -1.625 L 1.453125 0 L 0.453125 0 L 0.453125 -3.4375 L 1.40625 -3.4375 Z M 1.40625 -2.984375 "/></g></g><g style="fill:#000000;fill-opacity:1;"><g transform="translate(105.618878, 41.033846)"><path style="stroke:none" d="M 3.859375 -3.4375 L 2.421875 0 L 1.390625 0 L -0.046875 -3.4375 L 0.96875 -3.4375 L 1.921875 -1.09375 L 2.90625 -3.4375 Z M 3.859375 -3.4375 "/></g></g><g style="fill:#000000;fill-opacity:1;"><g transform="translate(109.433961, 41.033846)"><path style="stroke:none" d="M 0.453125 -3.4375 L 1.453125 -3.4375 L 1.453125 0 L 0.453125 0 Z M 0.96875 -3.90625 C 0.78125 -3.90625 0.628906 -3.957031 0.515625 -4.0625 C 0.398438 -4.175781 0.34375 -4.3125 0.34375 -4.46875 C 0.34375 -4.625 0.398438 -4.753906 0.515625 -4.859375 C 0.628906 -4.960938 0.78125 -5.015625 0.96875 -5.015625 C 1.144531 -5.015625 1.289062 -4.960938 1.40625 -4.859375 C 1.519531 -4.765625 1.578125 -4.640625 1.578125 -4.484375 C 1.578125 -4.316406 1.519531 -4.175781 1.40625 -4.0625 C 1.289062 -3.957031 1.144531 -3.90625 0.96875 -3.90625 Z M 0.96875 -3.90625 "/></g></g><g style="fill:#000000;fill-opacity:1;"><g transform="translate(111.354262, 41.033846)"><path style="stroke:none" d="M 2.109375 0.046875 C 1.742188 0.046875 1.414062 -0.0234375 1.125 -0.171875 C 0.832031 -0.328125 0.601562 -0.535156 0.4375 -0.796875 C 0.28125 -1.066406 0.203125 -1.375 0.203125 -1.71875 C 0.203125 -2.050781 0.28125 -2.351562 0.4375 -2.625 C 0.601562 -2.894531 0.832031 -3.101562 1.125 -3.25 C 1.414062 -3.40625 1.742188 -3.484375 2.109375 -3.484375 C 2.472656 -3.484375 2.789062 -3.40625 3.0625 -3.25 C 3.332031 -3.101562 3.53125 -2.890625 3.65625 -2.609375 L 2.875 -2.1875 C 2.695312 -2.507812 2.441406 -2.671875 2.109375 -2.671875 C 1.847656 -2.671875 1.632812 -2.582031 1.46875 -2.40625 C 1.300781 -2.238281 1.21875 -2.007812 1.21875 -1.71875 C 1.21875 -1.425781 1.300781 -1.191406 1.46875 -1.015625 C 1.632812 -0.847656 1.847656 -0.765625 2.109375 -0.765625 C 2.453125 -0.765625 2.707031 -0.921875 2.875 -1.234375 L 3.65625 -0.8125 C 3.53125 -0.539062 3.332031 -0.328125 3.0625 -0.171875 C 2.789062 -0.0234375 2.472656 0.046875 2.109375 0.046875 Z M 2.109375 0.046875 "/></g></g><g style="fill:#000000;fill-opacity:1;"><g transform="translate(115.080027, 41.033846)"><path style="stroke:none" d="M 3.8125 -1.703125 C 3.8125 -1.691406 3.804688 -1.601562 3.796875 -1.4375 L 1.203125 -1.4375 C 1.253906 -1.21875 1.363281 -1.046875 1.53125 -0.921875 C 1.707031 -0.804688 1.925781 -0.75 2.1875 -0.75 C 2.363281 -0.75 2.519531 -0.773438 2.65625 -0.828125 C 2.800781 -0.878906 2.929688 -0.960938 3.046875 -1.078125 L 3.578125 -0.5 C 3.253906 -0.132812 2.78125 0.046875 2.15625 0.046875 C 1.769531 0.046875 1.425781 -0.0234375 1.125 -0.171875 C 0.832031 -0.328125 0.601562 -0.535156 0.4375 -0.796875 C 0.28125 -1.066406 0.203125 -1.375 0.203125 -1.71875 C 0.203125 -2.050781 0.28125 -2.351562 0.4375 -2.625 C 0.601562 -2.894531 0.820312 -3.101562 1.09375 -3.25 C 1.375 -3.40625 1.6875 -3.484375 2.03125 -3.484375 C 2.363281 -3.484375 2.664062 -3.410156 2.9375 -3.265625 C 3.21875 -3.117188 3.429688 -2.910156 3.578125 -2.640625 C 3.734375 -2.367188 3.8125 -2.054688 3.8125 -1.703125 Z M 2.046875 -2.734375 C 1.816406 -2.734375 1.625 -2.664062 1.46875 -2.53125 C 1.320312 -2.40625 1.226562 -2.234375 1.1875 -2.015625 L 2.875 -2.015625 C 2.84375 -2.234375 2.75 -2.40625 2.59375 -2.53125 C 2.445312 -2.664062 2.265625 -2.734375 2.046875 -2.734375 Z M 2.046875 -2.734375 "/></g></g></g></svg>